<?xml version="1.0" encoding="UTF-8" standalone="no"?>
<!DOCTYPE svg PUBLIC "-//W3C//DTD SVG 1.1//EN" "http://www.w3.org/Graphics/SVG/1.1/DTD/svg11.dtd">
<svg width="100%" height="100%" viewBox="0 0 415 123" version="1.1" xmlns="http://www.w3.org/2000/svg" xmlns:xlink="http://www.w3.org/1999/xlink" xml:space="preserve" xmlns:serif="http://www.serif.com/" style="fill-rule:evenodd;clip-rule:evenodd;stroke-linejoin:round;stroke-miterlimit:1.41421;">
    <g transform="matrix(1,0,0,1,-439.86,-2036.56)">
        <g>
            <g transform="matrix(8.13587,0,0,8.13587,-8884.63,-209.344)">
                <path d="M1161.18,284.981C1160.65,284.981 1160.24,284.841 1159.95,284.561C1159.65,284.281 1159.51,283.893 1159.51,283.397L1159.51,278.129C1159.51,277.649 1159.65,277.271 1159.94,276.995C1160.23,276.719 1160.63,276.581 1161.14,276.581L1163.96,276.581C1164.81,276.581 1165.46,276.781 1165.93,277.181C1166.39,277.581 1166.62,278.145 1166.62,278.873C1166.62,279.273 1166.52,279.629 1166.3,279.941C1166.08,280.253 1165.8,280.489 1165.44,280.649L1165.44,280.661C1165.84,280.813 1166.17,281.053 1166.41,281.381C1166.65,281.709 1166.77,282.085 1166.77,282.509C1166.77,283.277 1166.53,283.881 1166.05,284.321C1165.58,284.761 1164.93,284.981 1164.1,284.981L1161.18,284.981ZM1164.02,280.229C1164.48,280.229 1164.83,280.109 1165.09,279.869C1165.35,279.629 1165.48,279.297 1165.48,278.873C1165.48,278.417 1165.35,278.071 1165.09,277.835C1164.83,277.599 1164.46,277.481 1163.96,277.481L1161.22,277.481C1161.05,277.481 1160.91,277.541 1160.8,277.661C1160.69,277.781 1160.64,277.941 1160.64,278.141L1160.64,280.229L1164.02,280.229ZM1164.02,284.069C1164.55,284.069 1164.95,283.939 1165.22,283.679C1165.49,283.419 1165.63,283.033 1165.63,282.521C1165.63,282.081 1165.48,281.739 1165.2,281.495C1164.91,281.251 1164.51,281.129 1164.01,281.129L1160.64,281.129L1160.64,283.421C1160.64,283.613 1160.69,283.769 1160.8,283.889C1160.91,284.009 1161.05,284.069 1161.22,284.069L1164.02,284.069Z" style="fill:rgb(0,16,221);fill-rule:nonzero;"/>
                <path d="M1168.82,285.101C1168.64,285.101 1168.51,285.051 1168.41,284.951C1168.31,284.851 1168.26,284.713 1168.26,284.537L1168.26,278.129C1168.26,277.649 1168.4,277.271 1168.69,276.995C1168.98,276.719 1169.38,276.581 1169.89,276.581L1171.92,276.581C1173.08,276.581 1173.96,276.825 1174.56,277.313C1175.15,277.801 1175.44,278.525 1175.44,279.485C1175.44,280.397 1175.15,281.095 1174.55,281.579C1173.95,282.063 1173.1,282.305 1171.98,282.305L1169.38,282.305L1169.38,284.537C1169.38,284.713 1169.33,284.851 1169.23,284.951C1169.13,285.051 1169,285.101 1168.82,285.101ZM1171.98,281.393C1172.72,281.393 1173.29,281.243 1173.69,280.943C1174.09,280.643 1174.29,280.157 1174.29,279.485C1174.29,278.789 1174.1,278.283 1173.7,277.967C1173.31,277.651 1172.74,277.493 1171.98,277.493L1169.98,277.493C1169.8,277.493 1169.65,277.553 1169.55,277.673C1169.44,277.793 1169.38,277.953 1169.38,278.153L1169.38,281.393L1171.98,281.393Z" style="fill:rgb(0,16,221);fill-rule:nonzero;"/>
                <path d="M1178.54,285.101C1177.76,285.101 1177.15,284.925 1176.7,284.573C1176.25,284.221 1176.02,283.745 1176.02,283.145C1176.02,282.545 1176.26,282.069 1176.73,281.717C1177.21,281.365 1177.86,281.189 1178.68,281.189C1179.12,281.189 1179.5,281.245 1179.84,281.357C1180.18,281.469 1180.46,281.621 1180.66,281.813L1180.66,281.213C1180.66,280.781 1180.53,280.451 1180.25,280.223C1179.97,279.995 1179.57,279.881 1179.03,279.881C1178.32,279.881 1177.7,280.045 1177.18,280.373C1177.03,280.461 1176.9,280.505 1176.79,280.505C1176.68,280.505 1176.58,280.461 1176.48,280.373C1176.39,280.285 1176.34,280.181 1176.34,280.061C1176.34,279.925 1176.41,279.801 1176.55,279.689C1176.84,279.473 1177.2,279.301 1177.64,279.173C1178.08,279.045 1178.54,278.981 1179.02,278.981C1179.89,278.981 1180.57,279.179 1181.06,279.575C1181.55,279.971 1181.79,280.525 1181.79,281.237L1181.79,284.561C1181.79,284.737 1181.75,284.871 1181.65,284.963C1181.56,285.055 1181.43,285.101 1181.25,285.101C1181.08,285.101 1180.94,285.055 1180.84,284.963C1180.75,284.871 1180.7,284.745 1180.7,284.585L1180.7,284.249C1180.22,284.817 1179.5,285.101 1178.54,285.101ZM1178.73,284.249C1179.32,284.249 1179.79,284.143 1180.14,283.931C1180.5,283.719 1180.68,283.441 1180.68,283.097C1180.68,282.761 1180.51,282.499 1180.17,282.311C1179.83,282.123 1179.36,282.029 1178.76,282.029C1178.24,282.029 1177.84,282.125 1177.56,282.317C1177.28,282.509 1177.14,282.785 1177.14,283.145C1177.14,283.497 1177.27,283.769 1177.55,283.961C1177.83,284.153 1178.22,284.249 1178.73,284.249Z" style="fill:rgb(0,16,221);fill-rule:nonzero;"/>
                <path d="M1185.49,285.101C1184.71,285.101 1184.1,284.925 1183.65,284.573C1183.19,284.221 1182.97,283.745 1182.97,283.145C1182.97,282.545 1183.21,282.069 1183.68,281.717C1184.16,281.365 1184.81,281.189 1185.63,281.189C1186.06,281.189 1186.45,281.245 1186.79,281.357C1187.13,281.469 1187.4,281.621 1187.61,281.813L1187.61,281.213C1187.61,280.781 1187.47,280.451 1187.2,280.223C1186.92,279.995 1186.52,279.881 1185.98,279.881C1185.27,279.881 1184.65,280.045 1184.13,280.373C1183.98,280.461 1183.85,280.505 1183.74,280.505C1183.63,280.505 1183.53,280.461 1183.42,280.373C1183.34,280.285 1183.29,280.181 1183.29,280.061C1183.29,279.925 1183.36,279.801 1183.5,279.689C1183.78,279.473 1184.15,279.301 1184.59,279.173C1185.03,279.045 1185.49,278.981 1185.97,278.981C1186.84,278.981 1187.52,279.179 1188.01,279.575C1188.5,279.971 1188.74,280.525 1188.74,281.237L1188.74,284.561C1188.74,284.737 1188.69,284.871 1188.6,284.963C1188.51,285.055 1188.38,285.101 1188.2,285.101C1188.02,285.101 1187.89,285.055 1187.79,284.963C1187.7,284.871 1187.65,284.745 1187.65,284.585L1187.65,284.249C1187.17,284.817 1186.45,285.101 1185.49,285.101ZM1185.68,284.249C1186.26,284.249 1186.73,284.143 1187.09,283.931C1187.45,283.719 1187.62,283.441 1187.62,283.097C1187.62,282.761 1187.45,282.499 1187.11,282.311C1186.77,282.123 1186.3,282.029 1185.7,282.029C1185.18,282.029 1184.78,282.125 1184.5,282.317C1184.22,282.509 1184.08,282.785 1184.08,283.145C1184.08,283.497 1184.22,283.769 1184.5,283.961C1184.77,284.153 1185.17,284.249 1185.68,284.249Z" style="fill:rgb(0,16,221);fill-rule:nonzero;"/>
                <path d="M1193.92,285.101C1193.15,285.101 1192.43,284.971 1191.77,284.711C1191.11,284.451 1190.58,284.089 1190.17,283.625C1190.09,283.521 1190.05,283.421 1190.05,283.325C1190.05,283.173 1190.12,283.041 1190.25,282.929C1190.34,282.857 1190.43,282.821 1190.53,282.821C1190.67,282.821 1190.82,282.897 1190.97,283.049C1191.32,283.401 1191.74,283.675 1192.25,283.871C1192.76,284.067 1193.32,284.165 1193.92,284.165C1194.56,284.165 1195.06,284.047 1195.42,283.811C1195.77,283.575 1195.95,283.245 1195.95,282.821C1195.95,282.429 1195.78,282.111 1195.42,281.867C1195.07,281.623 1194.47,281.409 1193.61,281.225C1192.44,280.961 1191.59,280.629 1191.07,280.229C1190.55,279.829 1190.29,279.301 1190.29,278.645C1190.29,278.205 1190.42,277.821 1190.68,277.493C1190.95,277.165 1191.32,276.911 1191.81,276.731C1192.3,276.551 1192.87,276.461 1193.52,276.461C1194.25,276.461 1194.91,276.587 1195.5,276.839C1196.08,277.091 1196.5,277.433 1196.77,277.865C1196.83,277.961 1196.86,278.061 1196.86,278.165C1196.86,278.325 1196.79,278.457 1196.64,278.561C1196.56,278.609 1196.48,278.633 1196.38,278.633C1196.3,278.633 1196.21,278.611 1196.12,278.567C1196.03,278.523 1195.96,278.465 1195.9,278.393C1195.67,278.073 1195.35,277.827 1194.94,277.655C1194.53,277.483 1194.05,277.397 1193.52,277.397C1192.84,277.397 1192.32,277.503 1191.96,277.715C1191.61,277.927 1191.43,278.237 1191.43,278.645C1191.43,278.893 1191.5,279.107 1191.64,279.287C1191.79,279.467 1192.02,279.627 1192.35,279.767C1192.68,279.907 1193.13,280.045 1193.71,280.181C1194.92,280.461 1195.78,280.807 1196.31,281.219C1196.84,281.631 1197.1,282.165 1197.1,282.821C1197.1,283.285 1196.97,283.687 1196.71,284.027C1196.45,284.367 1196.08,284.631 1195.6,284.819C1195.12,285.007 1194.56,285.101 1193.92,285.101Z" style="fill:rgb(0,16,221);fill-rule:nonzero;"/>
            </g>
            <g transform="matrix(0.60059,0,0,0.60059,214.605,824.865)">
                <g transform="matrix(0.408012,0,0,0.408012,-205.69,1385.87)">
                    <path d="M1588.91,1640.57C1582.66,1640.52 1576.87,1643.87 1573.8,1649.31C1565.92,1663.31 1550.64,1690.45 1542.66,1704.62C1541.59,1706.51 1541.62,1708.82 1542.71,1710.68C1543.81,1712.55 1545.82,1713.68 1547.98,1713.67C1564.36,1713.58 1595.84,1713.39 1611.87,1713.29C1618,1713.26 1623.64,1709.95 1626.68,1704.63C1634.49,1690.9 1649.71,1664.18 1657.66,1650.22C1658.73,1648.35 1658.72,1646.05 1657.65,1644.18C1656.57,1642.32 1654.59,1641.16 1652.44,1641.14C1636.22,1641 1605,1640.72 1588.91,1640.57Z" style="fill:rgb(0,16,221);"/>
                </g>
                <g transform="matrix(-0.204006,0.353349,-0.353349,-0.204006,1395.19,1863.56)">
                    <path d="M1588.91,1640.57C1582.66,1640.52 1576.87,1643.87 1573.8,1649.31C1565.92,1663.31 1550.64,1690.45 1542.66,1704.62C1541.59,1706.51 1541.62,1708.82 1542.71,1710.68C1543.81,1712.55 1545.82,1713.68 1547.98,1713.67C1564.36,1713.58 1595.84,1713.39 1611.87,1713.29C1618,1713.26 1623.64,1709.95 1626.68,1704.63C1634.49,1690.9 1649.71,1664.18 1657.66,1650.22C1658.73,1648.35 1658.72,1646.05 1657.65,1644.18C1656.57,1642.32 1654.59,1641.16 1652.44,1641.14C1636.22,1641 1605,1640.72 1588.91,1640.57Z" style="fill:rgb(0,16,221);"/>
                </g>
                <g transform="matrix(-0.407865,0.0109414,0.0109414,0.407865,1081.09,1401.81)">
                    <path d="M1588.91,1640.57C1582.66,1640.52 1576.87,1643.87 1573.8,1649.31C1565.92,1663.31 1550.64,1690.45 1542.66,1704.62C1541.59,1706.51 1541.62,1708.82 1542.71,1710.68C1543.81,1712.55 1545.82,1713.68 1547.98,1713.67C1564.36,1713.58 1595.84,1713.39 1611.87,1713.29C1618,1713.26 1623.64,1709.95 1626.68,1704.63C1634.49,1690.9 1649.71,1664.18 1657.66,1650.22C1658.73,1648.35 1658.72,1646.05 1657.65,1644.18C1656.57,1642.32 1654.59,1641.16 1652.44,1641.14C1636.22,1641 1605,1640.72 1588.91,1640.57Z" style="fill:rgb(0,16,221);"/>
                </g>
                <g transform="matrix(2.0072,0,0,2.0072,-2735.96,-1485.96)">
                    <circle cx="1571.01" cy="1750.82" r="3.833" style="fill:rgb(221,190,0);"/>
                </g>
                <g transform="matrix(2.0072,0,0,2.0072,-2769.13,-1426.88)">
                    <circle cx="1571.01" cy="1750.82" r="3.833" style="fill:rgb(221,190,0);"/>
                </g>
                <g transform="matrix(2.0072,0,0,2.0072,-2623.12,-1426.88)">
                    <circle cx="1571.01" cy="1750.82" r="3.833" style="fill:rgb(221,190,0);"/>
                </g>
                <g transform="matrix(2.0072,0,0,2.0072,-2737.04,-1368.78)">
                    <circle cx="1571.01" cy="1750.82" r="3.833" style="fill:rgb(221,190,0);"/>
                </g>
                <g transform="matrix(2.0072,0,0,2.0072,-2656.24,-1487.05)">
                    <circle cx="1571.01" cy="1750.82" r="3.833" style="fill:rgb(221,190,0);"/>
                </g>
                <g transform="matrix(2.0072,0,0,2.0072,-2655.16,-1369.87)">
                    <circle cx="1571.01" cy="1750.82" r="3.833" style="fill:rgb(221,190,0);"/>
                </g>
                <g transform="matrix(1.45113,-0.702665,0.702665,1.45113,-3133.45,650.721)">
                    <path d="M1593.01,1807.21C1593.12,1807.31 1593.12,1807.31 1593.21,1807.43L1593.87,1808.58C1594.15,1809.22 1593.27,1809.98 1592.72,1809.24L1592.06,1808.09C1591.69,1807.24 1592.28,1806.82 1593.01,1807.21ZM1600.19,1808.68C1600.39,1808.88 1600.4,1808.96 1600.42,1809.06C1600.51,1809.43 1600.39,1809.8 1599.78,1809.87L1598.45,1809.87C1597.73,1809.79 1597.6,1808.63 1598.45,1808.54L1599.78,1808.54C1599.95,1808.56 1599.87,1808.48 1600.19,1808.68ZM1589.69,1801.45C1589.8,1801.54 1589.8,1801.54 1589.89,1801.66L1590.56,1802.82C1590.83,1803.46 1589.95,1804.22 1589.4,1803.48L1588.74,1802.33C1588.37,1801.48 1588.96,1801.06 1589.69,1801.45ZM1606.84,1808.68C1607.14,1808.98 1607.09,1809.06 1607.09,1809.2C1607.09,1809.54 1606.97,1809.81 1606.43,1809.87L1605.1,1809.87C1604.38,1809.79 1604.25,1808.63 1605.1,1808.54L1606.43,1808.54C1606.6,1808.56 1606.52,1808.48 1606.84,1808.68ZM1586.37,1795.68C1586.49,1795.78 1586.49,1795.78 1586.57,1795.9L1587.24,1797.05C1587.52,1797.71 1586.59,1798.41 1586.08,1797.72L1585.42,1796.57C1585.05,1795.72 1585.64,1795.3 1586.37,1795.68ZM1613.49,1808.68C1613.69,1808.88 1613.7,1808.96 1613.72,1809.06C1613.81,1809.43 1613.69,1809.8 1613.08,1809.87L1611.75,1809.87C1611.05,1809.79 1610.83,1808.64 1611.75,1808.54L1613.08,1808.54C1613.25,1808.56 1613.17,1808.48 1613.49,1808.68ZM1620.14,1808.68C1620.34,1808.88 1620.35,1808.96 1620.37,1809.06C1620.46,1809.43 1620.34,1809.8 1619.73,1809.87L1618.39,1809.87C1617.68,1809.79 1617.5,1808.64 1618.39,1808.54L1619.73,1808.54C1619.89,1808.56 1619.82,1808.48 1620.14,1808.68ZM1583.05,1789.92C1583.17,1790.02 1583.17,1790.02 1583.26,1790.14L1583.92,1791.29C1584.21,1791.95 1583.27,1792.64 1582.77,1791.96L1582.1,1790.8C1581.99,1790.55 1582.01,1790.46 1582.02,1790.37C1582.08,1789.97 1582.4,1789.58 1583.05,1789.92ZM1626.79,1808.68C1626.99,1808.88 1627,1808.96 1627.02,1809.06C1627.11,1809.43 1626.99,1809.8 1626.37,1809.87L1625.04,1809.87C1624.35,1809.79 1624.08,1808.65 1625.04,1808.54L1626.37,1808.54C1626.54,1808.56 1626.47,1808.48 1626.79,1808.68ZM1579.74,1784.16C1579.85,1784.26 1579.85,1784.26 1579.94,1784.38L1580.6,1785.53C1580.89,1786.19 1579.96,1786.88 1579.45,1786.19L1578.79,1785.04C1578.67,1784.79 1578.69,1784.7 1578.7,1784.61C1578.77,1784.2 1579.08,1783.81 1579.74,1784.16ZM1633.44,1808.68C1633.74,1808.98 1633.69,1809.06 1633.69,1809.2C1633.69,1809.53 1633.57,1809.81 1633.02,1809.87L1631.69,1809.87C1631,1809.79 1630.78,1808.64 1631.69,1808.54L1633.02,1808.54C1633.19,1808.56 1633.12,1808.48 1633.44,1808.68ZM1576.42,1778.4C1576.53,1778.5 1576.53,1778.5 1576.62,1778.62L1577.28,1779.77C1577.57,1780.43 1576.64,1781.12 1576.13,1780.43L1575.47,1779.28C1575.1,1778.43 1575.69,1778.01 1576.42,1778.4ZM1639.62,1807.81C1639.82,1808.06 1639.87,1808.33 1639.73,1808.63L1639.18,1809.55C1638.9,1809.91 1638.92,1809.86 1638.61,1809.87C1638.42,1809.87 1637.92,1809.86 1637.74,1809.49C1637.58,1809.15 1637.61,1808.76 1638.19,1808.55L1638.68,1807.83C1638.96,1807.6 1639.26,1807.53 1639.62,1807.81ZM1573.23,1770.53C1573.44,1770.76 1573.5,1771.04 1573.37,1771.34C1573.37,1771.34 1572.73,1772.52 1572.73,1772.52C1572.73,1772.52 1573.1,1772.58 1573.3,1772.85L1573.97,1774.01C1574.25,1774.66 1573.35,1775.4 1572.81,1774.67L1572.15,1773.52C1572.04,1773.26 1572.12,1772.86 1572.12,1772.86C1571.44,1772.75 1571.33,1772.47 1571.57,1771.88L1572.2,1770.71C1572.58,1770.16 1572.9,1770.3 1573.23,1770.53ZM1643.06,1802.12C1643.26,1802.37 1643.3,1802.64 1643.17,1802.94L1642.48,1804.08C1642.05,1804.63 1640.93,1804.28 1641.34,1803.39L1642.03,1802.26C1642.43,1801.73 1642.75,1801.88 1643.06,1802.12ZM1576.38,1764.67C1576.6,1764.91 1576.66,1765.18 1576.53,1765.49L1575.9,1766.66C1575.5,1767.24 1574.39,1766.88 1574.73,1766.03L1575.36,1764.86C1575.58,1764.54 1575.84,1764.29 1576.38,1764.67ZM1646.5,1796.43C1646.7,1796.68 1646.74,1796.95 1646.6,1797.25L1645.92,1798.39C1645.48,1798.96 1644.4,1798.52 1644.78,1797.7L1645.47,1796.57C1645.7,1796.26 1645.97,1796.02 1646.5,1796.43ZM1579.55,1758.83C1579.76,1759.06 1579.82,1759.33 1579.69,1759.64L1579.06,1760.81C1578.66,1761.38 1577.53,1761.08 1577.89,1760.18L1578.52,1759.01C1578.74,1758.69 1579,1758.44 1579.55,1758.83ZM1649.93,1790.74C1650.14,1790.99 1650.18,1791.26 1650.04,1791.56L1649.36,1792.7C1648.93,1793.26 1647.83,1792.85 1648.22,1792.01L1648.9,1790.87C1649.14,1790.57 1649.4,1790.33 1649.93,1790.74ZM1582.7,1752.97C1582.92,1753.21 1582.98,1753.48 1582.85,1753.79L1582.22,1754.96C1581.82,1755.54 1580.71,1755.18 1581.05,1754.33L1581.68,1753.16C1582.06,1752.61 1582.38,1752.75 1582.7,1752.97ZM1653.37,1785.05C1653.58,1785.3 1653.62,1785.57 1653.48,1785.87L1652.79,1787.01C1652.37,1787.56 1651.27,1787.16 1651.65,1786.32L1652.34,1785.18C1652.58,1784.88 1652.84,1784.64 1653.37,1785.05ZM1585.87,1747.12C1586.08,1747.36 1586.14,1747.63 1586.01,1747.94L1585.38,1749.11C1584.97,1749.7 1583.89,1749.27 1584.21,1748.48L1584.84,1747.31C1585.22,1746.76 1585.54,1746.9 1585.87,1747.12ZM1656.81,1779.36C1657.02,1779.6 1657.06,1779.88 1656.92,1780.18L1656.23,1781.32C1655.79,1781.89 1654.74,1781.41 1655.09,1780.63L1655.78,1779.49C1656.19,1778.97 1656.5,1779.12 1656.81,1779.36ZM1589.03,1741.27C1589.24,1741.51 1589.3,1741.78 1589.17,1742.09L1588.54,1743.26C1588.14,1743.84 1587.03,1743.48 1587.37,1742.63L1588,1741.46C1588.38,1740.91 1588.7,1741.05 1589.03,1741.27ZM1660.25,1773.67C1660.45,1773.91 1660.5,1774.19 1660.36,1774.49L1659.67,1775.63C1659.24,1776.18 1658.15,1775.77 1658.53,1774.94L1659.22,1773.8C1659.63,1773.27 1659.94,1773.43 1660.25,1773.67ZM1657.56,1767.72C1657.67,1767.82 1657.67,1767.82 1657.75,1767.94L1658.36,1769.13C1658.62,1769.8 1657.65,1770.45 1657.18,1769.74L1656.57,1768.56C1656.42,1768.16 1656.49,1768.11 1656.55,1767.98C1656.7,1767.65 1656.98,1767.38 1657.56,1767.72ZM1592.18,1735.42C1592.4,1735.66 1592.46,1735.93 1592.33,1736.24L1591.7,1737.41C1591.3,1737.98 1590.17,1737.68 1590.53,1736.78L1591.16,1735.61C1591.54,1735.06 1591.86,1735.2 1592.18,1735.42ZM1598.81,1735.4C1599.01,1735.6 1599.02,1735.68 1599.04,1735.77C1599.13,1736.14 1599.01,1736.51 1598.39,1736.58L1597.06,1736.58C1596.37,1736.5 1596.1,1735.36 1597.06,1735.25L1598.39,1735.25C1598.56,1735.27 1598.49,1735.2 1598.81,1735.4ZM1654.51,1761.81C1654.62,1761.91 1654.62,1761.91 1654.7,1762.04L1655.31,1763.22C1655.57,1763.89 1654.6,1764.54 1654.13,1763.83L1653.52,1762.65C1653.19,1761.78 1653.8,1761.39 1654.51,1761.81ZM1605.46,1735.4C1605.76,1735.7 1605.71,1735.77 1605.71,1735.92C1605.71,1736.25 1605.59,1736.52 1605.04,1736.58L1603.71,1736.58C1603,1736.5 1602.86,1735.35 1603.71,1735.25L1605.04,1735.25C1605.21,1735.27 1605.14,1735.2 1605.46,1735.4ZM1651.46,1755.9C1651.57,1756.01 1651.57,1756.01 1651.65,1756.13L1652.26,1757.31C1652.52,1757.98 1651.55,1758.63 1651.08,1757.92L1650.47,1756.74C1650.32,1756.34 1650.39,1756.3 1650.45,1756.16C1650.6,1755.84 1650.88,1755.56 1651.46,1755.9ZM1612.11,1735.4C1612.3,1735.6 1612.32,1735.68 1612.34,1735.77C1612.42,1736.14 1612.31,1736.51 1611.69,1736.58L1610.36,1736.58C1609.67,1736.5 1609.39,1735.36 1610.36,1735.25L1611.69,1735.25C1611.86,1735.27 1611.79,1735.2 1612.11,1735.4ZM1648.41,1750C1648.52,1750.1 1648.52,1750.1 1648.6,1750.22L1649.21,1751.4C1649.46,1752.05 1648.57,1752.82 1648.03,1752.01L1647.42,1750.83C1647.27,1750.43 1647.34,1750.39 1647.4,1750.25C1647.55,1749.93 1647.83,1749.65 1648.41,1750ZM1618.76,1735.4C1618.95,1735.6 1618.97,1735.68 1618.99,1735.77C1619.07,1736.14 1618.96,1736.51 1618.34,1736.58L1617.01,1736.58C1616.3,1736.5 1616.11,1735.35 1617.01,1735.25L1618.34,1735.25C1618.51,1735.27 1618.43,1735.2 1618.76,1735.4ZM1625.4,1735.4C1625.6,1735.6 1625.62,1735.68 1625.64,1735.77C1625.72,1736.14 1625.61,1736.51 1624.99,1736.58L1623.66,1736.58C1622.96,1736.5 1622.75,1735.36 1623.66,1735.25L1624.99,1735.25C1625.16,1735.27 1625.08,1735.2 1625.4,1735.4ZM1645.36,1744.09C1645.47,1744.19 1645.47,1744.19 1645.55,1744.31L1646.16,1745.49C1646.41,1746.17 1645.45,1746.82 1644.98,1746.1L1644.37,1744.92C1644.27,1744.66 1644.29,1744.58 1644.31,1744.49C1644.38,1744.09 1644.72,1743.71 1645.36,1744.09ZM1632.05,1735.4C1632.67,1736.01 1632.38,1736.5 1631.64,1736.58L1630.31,1736.58C1629.61,1736.5 1629.4,1735.36 1630.31,1735.25L1631.64,1735.25C1631.81,1735.27 1631.73,1735.2 1632.05,1735.4ZM1642.31,1738.18C1642.41,1738.28 1642.41,1738.28 1642.5,1738.4L1643.11,1739.59C1643.36,1740.25 1642.43,1740.95 1641.93,1740.2L1641.32,1739.02C1641.22,1738.75 1641.24,1738.67 1641.25,1738.58C1641.34,1738.18 1641.67,1737.8 1642.31,1738.18ZM1638.7,1735.4C1639.32,1736.01 1639.03,1736.5 1638.29,1736.58L1636.96,1736.58C1636.24,1736.5 1636.11,1735.35 1636.96,1735.25L1638.29,1735.25C1638.46,1735.27 1638.38,1735.2 1638.7,1735.4Z" style="fill:rgb(0,16,221);fill-rule:nonzero;"/>
                </g>
                <g transform="matrix(0.408012,0,0,0.408012,-205.69,1385.87)">
                    <path d="M1652.48,1638.71C1658.23,1638.86 1662.81,1645.42 1659.91,1651.17C1649.76,1669.64 1639.21,1687.89 1628.62,1706.11C1625.18,1711.81 1618.89,1715.52 1612.21,1715.72C1590.8,1716.05 1569.39,1715.98 1547.98,1716.1C1542.15,1716.04 1537.56,1709.38 1540.4,1703.68C1550.6,1684.9 1561.21,1666.35 1571.85,1647.83C1575.33,1642 1581.77,1638.26 1588.59,1638.14C1609.89,1638.14 1631.18,1638.52 1652.48,1638.71ZM1588.63,1643.01C1583.53,1643.09 1578.66,1645.91 1576.05,1650.29C1565.44,1668.74 1554.87,1687.22 1544.72,1705.92C1543.61,1708.15 1545.28,1711.13 1547.85,1711.24C1569.26,1711.47 1590.68,1711.18 1612.1,1710.86C1617.11,1710.7 1621.85,1707.92 1624.44,1703.63C1634.98,1685.48 1645.49,1667.31 1655.61,1648.91C1656.72,1646.7 1655.06,1643.72 1652.54,1643.58C1631.24,1643.04 1609.94,1643.01 1588.63,1643.01Z" style="fill:none;"/>
                </g>
                <g transform="matrix(-0.204006,0.353349,-0.353349,-0.204006,1395.19,1863.56)">
                    <path d="M1540.48,1711.66C1539.18,1709.18 1539.15,1706.19 1540.4,1703.68C1550.58,1684.89 1561.21,1666.36 1571.85,1647.83C1575.32,1642.02 1581.76,1638.27 1588.59,1638.14C1609.89,1638.16 1631.18,1638.52 1652.48,1638.71C1658.23,1638.86 1662.8,1645.42 1659.91,1651.17C1649.76,1669.64 1639.22,1687.89 1628.63,1706.11C1625.2,1711.8 1618.91,1715.51 1612.21,1715.72C1590.8,1716.03 1569.39,1715.98 1547.98,1716.1C1544.85,1716.07 1542.3,1714.89 1540.48,1711.66ZM1544.87,1709.55C1545.53,1710.55 1546.64,1711.19 1547.85,1711.24C1569.26,1711.45 1590.68,1711.17 1612.1,1710.86C1617.11,1710.7 1621.86,1707.92 1624.44,1703.63C1634.99,1685.49 1645.49,1667.31 1655.61,1648.91C1656.72,1646.7 1655.07,1643.72 1652.54,1643.58C1631.24,1643.04 1609.94,1643.03 1588.63,1643.01C1583.52,1643.1 1578.66,1645.91 1576.05,1650.29C1565.45,1668.74 1554.85,1687.2 1544.72,1705.92C1544.14,1707.08 1544.07,1708.24 1544.87,1709.55Z" style="fill:none;"/>
                </g>
                <g transform="matrix(-0.407865,0.0109414,0.0109414,0.407865,1081.09,1401.81)">
                    <path d="M1587.93,1638.16C1581.4,1638.5 1575.24,1642.17 1571.85,1647.83C1561.25,1666.28 1550.97,1684.91 1540.53,1703.44C1537.75,1708.57 1541.45,1715.83 1547.71,1716.1C1569.21,1716.39 1590.71,1716.02 1612.21,1715.72C1618.86,1715.52 1625.18,1711.81 1628.62,1706.11C1639.15,1687.96 1649.4,1669.64 1659.78,1651.4C1662.58,1646.32 1659.05,1639.08 1652.74,1638.72C1631.37,1638.11 1609.98,1638.16 1588.6,1638.14C1588.26,1638.15 1588.26,1638.15 1587.93,1638.16ZM1588.63,1643.01C1609.93,1643.03 1631.24,1642.97 1652.53,1643.58C1655.02,1643.72 1656.76,1646.62 1655.61,1648.91C1645.49,1667.3 1634.97,1685.48 1624.44,1703.64C1621.85,1707.92 1617.1,1710.71 1612.1,1710.86C1590.69,1711.16 1569.27,1711.53 1547.85,1711.24C1545.37,1711.13 1543.58,1708.2 1544.72,1705.92C1554.87,1687.22 1565.44,1668.74 1576.05,1650.29C1578.69,1645.86 1583.06,1643.1 1588.63,1643.01Z" style="fill:none;"/>
                </g>
                <g transform="matrix(1.6123,0,0,1.6123,-2148.4,-770.531)">
                    <path d="M1640.62,1735.24C1640.81,1735.31 1640.97,1735.42 1641.08,1735.6L1660.63,1773.45C1660.72,1773.68 1660.71,1773.91 1660.61,1774.13L1639.2,1809.56C1639.06,1809.76 1638.86,1809.87 1638.61,1809.9L1593.47,1809.9C1593.22,1809.87 1593.01,1809.76 1592.86,1809.55L1571.55,1772.54C1571.45,1772.32 1571.45,1772.1 1571.54,1771.87L1591.14,1735.59C1591.28,1735.38 1591.49,1735.25 1591.75,1735.22L1640.47,1735.22C1640.52,1735.23 1640.57,1735.23 1640.62,1735.24ZM1592.16,1736.61L1572.95,1772.18L1593.87,1808.51L1638.22,1808.51L1659.22,1773.75L1640.04,1736.61C1624.08,1736.61 1608.12,1736.61 1592.16,1736.61Z" style="fill:rgb(221,190,0);fill-rule:nonzero;"/>
                </g>
                <g transform="matrix(1.31155,0,0,1.48648,-1669.95,-549.655)">
                    <path d="M1590.98,1757.48C1591.08,1757.49 1591.12,1757.48 1591.32,1757.59L1592.7,1758.37C1592.97,1758.54 1593.02,1758.65 1593.06,1758.84C1593.17,1759.38 1592.43,1759.9 1591.81,1759.58L1590.44,1758.8C1589.81,1758.41 1590.04,1757.41 1590.98,1757.48ZM1584.11,1753.57C1584.21,1753.59 1584.25,1753.58 1584.45,1753.68L1585.83,1754.46C1586.53,1754.9 1585.94,1756.19 1584.94,1755.67L1583.57,1754.89C1583.34,1754.75 1583.3,1754.68 1583.25,1754.55C1583.04,1754.09 1583.48,1753.53 1584.11,1753.57ZM1577.24,1749.66C1577.34,1749.68 1577.38,1749.67 1577.58,1749.78L1578.95,1750.56C1579.66,1751 1579.04,1752.27 1578.07,1751.77L1576.69,1750.99C1576.47,1750.85 1576.43,1750.77 1576.37,1750.64C1576.17,1750.18 1576.61,1749.62 1577.24,1749.66Z" style="fill:rgb(0,16,221);fill-rule:nonzero;"/>
                </g>
                <g transform="matrix(0.561935,1.15545,-1.25721,0.611429,1780.21,-872.41)">
                    <path d="M1590.93,1758.24C1591.19,1757.87 1591.69,1757.76 1592.1,1757.97L1593.52,1758.78C1594.27,1759.26 1593.58,1760.57 1592.63,1760.08L1591.22,1759.27C1590.85,1759.03 1590.73,1758.63 1590.93,1758.24ZM1583.86,1754.18C1584.11,1753.81 1584.6,1753.68 1585.03,1753.9L1586.44,1754.72C1586.89,1755 1586.86,1755.25 1586.83,1755.47C1586.76,1755.97 1586.08,1756.29 1585.56,1756.02L1584.14,1755.2C1583.78,1754.97 1583.65,1754.56 1583.86,1754.18ZM1576.78,1750.11C1577.04,1749.74 1577.54,1749.63 1577.95,1749.84L1579.37,1750.65C1580.09,1751.11 1579.51,1752.48 1578.48,1751.95L1577.07,1751.14C1576.7,1750.9 1576.58,1750.5 1576.78,1750.11Z" style="fill:rgb(0,16,221);fill-rule:nonzero;"/>
                </g>
                <g transform="matrix(1.24475,0,0,1.34817,-1469.37,-249.525)">
                    <path d="M1594.12,1759.19C1594.23,1759.21 1594.27,1759.2 1594.48,1759.31C1594.48,1759.31 1595.44,1759.7 1595.34,1760.36C1595.26,1760.89 1594.64,1761.23 1594.04,1760.92L1593.58,1760.66C1593.35,1760.52 1593.3,1760.44 1593.24,1760.29C1593.01,1759.79 1593.46,1759.16 1594.12,1759.19ZM1585.3,1754.22C1585.4,1754.24 1585.44,1754.23 1585.66,1754.34L1587.13,1755.16C1587.42,1755.34 1587.47,1755.47 1587.52,1755.67C1587.66,1756.27 1586.89,1756.86 1586.23,1756.52L1584.76,1755.69C1584.52,1755.55 1584.48,1755.46 1584.41,1755.32C1584.19,1754.82 1584.63,1754.19 1585.3,1754.22ZM1576.47,1749.25C1576.58,1749.27 1576.62,1749.26 1576.84,1749.36L1578.31,1750.19C1578.78,1750.49 1578.75,1750.75 1578.71,1750.99C1578.63,1751.5 1577.95,1751.82 1577.41,1751.55L1575.94,1750.72C1575.7,1750.57 1575.66,1750.49 1575.59,1750.35C1575.37,1749.85 1575.81,1749.22 1576.47,1749.25Z" style="fill:rgb(0,16,221);fill-rule:nonzero;"/>
                </g>
                <g transform="matrix(0.561406,-1.11095,1.20326,0.608051,-2491.9,2760.08)">
                    <path d="M1578.65,1750.56C1578.82,1750.98 1578.72,1751.07 1578.63,1751.23C1578.41,1751.63 1577.93,1751.82 1577.4,1751.55L1575.94,1750.72C1575.53,1750.47 1575.57,1750.34 1575.54,1750.16C1575.44,1749.55 1576.16,1749.02 1576.84,1749.37L1578.31,1750.2C1578.63,1750.4 1578.56,1750.4 1578.65,1750.56ZM1585.98,1754.72C1586.16,1755.14 1586.05,1755.23 1585.97,1755.39C1585.75,1755.79 1585.27,1755.98 1584.74,1755.72L1583.28,1754.88C1582.87,1754.63 1582.9,1754.51 1582.87,1754.32C1582.78,1753.72 1583.5,1753.18 1584.18,1753.53L1585.64,1754.36C1585.75,1754.43 1585.82,1754.4 1585.98,1754.72ZM1593.32,1758.88C1593.5,1759.31 1593.39,1759.39 1593.3,1759.56C1593.09,1759.95 1592.61,1760.15 1592.08,1759.88L1590.61,1759.04C1589.98,1758.65 1590.13,1758.32 1590.3,1758.01C1590.51,1757.61 1590.99,1757.42 1591.52,1757.69L1592.98,1758.52C1593.09,1758.59 1593.15,1758.56 1593.32,1758.88Z" style="fill:rgb(0,16,221);fill-rule:nonzero;"/>
                </g>
                <g transform="matrix(0.58821,1.20947,-1.30384,0.634106,1806.98,-888.239)">
                    <path d="M1589.35,1757.31C1589.61,1756.99 1590.05,1756.9 1590.43,1757.09L1591.79,1757.86C1592.37,1758.23 1592.23,1758.5 1592.11,1758.77C1591.93,1759.17 1591.38,1759.33 1590.96,1759.12L1589.6,1758.35C1589.22,1758.11 1589.1,1757.69 1589.35,1757.31ZM1582.54,1753.47C1582.8,1753.15 1583.23,1753.06 1583.61,1753.25L1584.98,1754.02C1585.25,1754.19 1585.3,1754.31 1585.34,1754.49C1585.47,1755.04 1584.77,1755.59 1584.15,1755.28L1582.79,1754.51C1582.41,1754.28 1582.29,1753.85 1582.54,1753.47ZM1575.73,1749.63C1575.99,1749.31 1576.42,1749.22 1576.8,1749.41L1578.16,1750.18C1578.87,1750.62 1578.34,1751.94 1577.34,1751.44L1575.97,1750.67C1575.6,1750.44 1575.48,1750.01 1575.73,1749.63Z" style="fill:rgb(0,16,221);fill-rule:nonzero;"/>
                </g>
                <g transform="matrix(-0.855327,1.0379,-1.11888,-0.922065,3727.39,2085.8)">
                    <path d="M1589.43,1758.07C1589.01,1757.49 1589.67,1756.6 1590.48,1757L1591.85,1757.75C1592.54,1758.18 1592.07,1759.54 1591.03,1759.02L1589.66,1758.27C1589.46,1758.14 1589.48,1758.12 1589.43,1758.07ZM1582.59,1754.28C1582.43,1754.06 1582.42,1753.96 1582.43,1753.8C1582.46,1753.3 1583.12,1752.94 1583.64,1753.2L1585.01,1753.96C1585.46,1754.24 1585.42,1754.47 1585.39,1754.7C1585.31,1755.18 1584.68,1755.47 1584.19,1755.23L1582.82,1754.47C1582.78,1754.44 1582.72,1754.42 1582.59,1754.28ZM1575.75,1750.48C1575.33,1749.9 1575.99,1749.01 1576.8,1749.41L1578.16,1750.17C1578.59,1750.43 1578.56,1750.64 1578.55,1750.84C1578.53,1751.35 1577.87,1751.69 1577.35,1751.44L1575.98,1750.68C1575.93,1750.65 1575.88,1750.63 1575.75,1750.48Z" style="fill:rgb(0,16,221);fill-rule:nonzero;"/>
                </g>
                <g transform="matrix(2.0072,0,0,2.0072,-2735.96,-1485.96)">
                    <path d="M1571.07,1746.26C1574.51,1746.32 1577.12,1751.23 1574.2,1754.09C1571.58,1756.64 1565.83,1754.5 1566.5,1750.13C1566.82,1748.05 1568.71,1746.33 1570.89,1746.26C1570.95,1746.26 1571.01,1746.26 1571.07,1746.26ZM1570.97,1747.72C1568.3,1747.76 1566.56,1752.36 1569.84,1753.7C1572.27,1754.69 1575.72,1751.27 1573.26,1748.68C1572.67,1748.06 1571.89,1747.71 1570.97,1747.72Z" style="fill:none;"/>
                </g>
                <g transform="matrix(2.0072,0,0,2.0072,-2769.13,-1426.88)">
                    <path d="M1571.07,1746.26C1574.1,1746.31 1576.59,1749.94 1575.08,1752.9C1573.4,1756.17 1567.17,1755.88 1566.5,1751.52C1566.12,1748.99 1568.17,1746.35 1570.89,1746.26C1570.95,1746.26 1571.01,1746.26 1571.07,1746.26ZM1570.97,1747.72C1568.32,1747.76 1566.55,1752.35 1569.84,1753.7C1572.05,1754.6 1575.07,1752.08 1573.81,1749.48C1573.29,1748.41 1572.23,1747.71 1570.97,1747.72Z" style="fill:none;"/>
                </g>
                <g transform="matrix(2.0072,0,0,2.0072,-2623.12,-1426.88)">
                    <path d="M1571.07,1746.26C1574.16,1746.31 1576.65,1750.09 1575,1753.05C1573.21,1756.23 1567.15,1755.76 1566.5,1751.52C1566.12,1748.99 1568.17,1746.35 1570.89,1746.26C1570.95,1746.26 1571.01,1746.26 1571.07,1746.26ZM1570.97,1747.72C1568.87,1747.75 1567.18,1750.32 1568.3,1752.33C1569.63,1754.71 1574.68,1753.98 1574.08,1750.31C1573.84,1748.87 1572.46,1747.71 1570.97,1747.72Z" style="fill:none;"/>
                </g>
                <g transform="matrix(2.0072,0,0,2.0072,-2737.04,-1368.78)">
                    <path d="M1571.07,1746.26C1574.55,1746.33 1577.1,1751.26 1574.2,1754.09C1571.57,1756.65 1565.79,1754.45 1566.51,1750.07C1566.85,1748.01 1568.73,1746.33 1570.89,1746.26C1570.95,1746.26 1571.01,1746.26 1571.07,1746.26ZM1570.97,1747.72C1568.91,1747.76 1567.23,1750.19 1568.23,1752.2C1569.46,1754.68 1574.7,1754.11 1574.08,1750.31C1573.84,1748.87 1572.46,1747.71 1570.97,1747.72Z" style="fill:none;"/>
                </g>
                <g transform="matrix(2.0072,0,0,2.0072,-2656.24,-1487.05)">
                    <path d="M1571.07,1746.26C1574.54,1746.32 1577.1,1751.31 1574.16,1754.12C1571.51,1756.65 1565.68,1754.4 1566.53,1749.96C1566.93,1747.88 1568.8,1746.24 1571.07,1746.26ZM1570.97,1747.72C1569.09,1747.75 1567.51,1749.76 1568.02,1751.63C1568.71,1754.2 1573.51,1754.74 1574.08,1751.33C1574.36,1749.61 1572.97,1747.78 1571.09,1747.72C1571.05,1747.72 1571.01,1747.72 1570.97,1747.72Z" style="fill:none;"/>
                </g>
                <g transform="matrix(2.0072,0,0,2.0072,-2655.16,-1369.87)">
                    <path d="M1571.07,1746.26C1574.53,1746.33 1577.1,1751.18 1574.24,1754.05C1571.64,1756.65 1565.78,1754.49 1566.51,1750.07C1566.86,1747.96 1568.84,1746.25 1571.07,1746.26ZM1570.97,1747.72C1568.82,1747.76 1567.14,1750.48 1568.38,1752.46C1569.79,1754.72 1574.58,1753.9 1574.09,1750.39C1573.88,1748.91 1572.49,1747.71 1570.97,1747.72Z" style="fill:none;"/>
                </g>
            </g>
        </g>
        <g transform="matrix(9.07908,0,0,9.07908,-10026,-428.477)">
            <path d="M1158.88,284.981L1158.88,283.041L1159.5,283.041C1159.62,283.041 1159.72,283.053 1159.81,283.076C1159.89,283.1 1159.96,283.133 1160.02,283.177C1160.07,283.22 1160.12,283.273 1160.14,283.336C1160.17,283.398 1160.18,283.469 1160.18,283.548C1160.18,283.595 1160.17,283.641 1160.16,283.686C1160.14,283.73 1160.12,283.771 1160.09,283.809C1160.06,283.847 1160.02,283.881 1159.98,283.91C1159.93,283.94 1159.88,283.965 1159.82,283.983C1159.96,284.011 1160.07,284.062 1160.14,284.136C1160.21,284.21 1160.25,284.308 1160.25,284.429C1160.25,284.511 1160.23,284.586 1160.2,284.654C1160.17,284.721 1160.13,284.78 1160.07,284.828C1160.01,284.877 1159.94,284.915 1159.86,284.941C1159.77,284.968 1159.67,284.981 1159.57,284.981L1158.88,284.981ZM1159.14,284.097L1159.14,284.773L1159.56,284.773C1159.64,284.773 1159.7,284.764 1159.76,284.747C1159.81,284.73 1159.85,284.706 1159.89,284.675C1159.92,284.644 1159.95,284.607 1159.96,284.564C1159.98,284.521 1159.99,284.474 1159.99,284.422C1159.99,284.322 1159.95,284.243 1159.88,284.185C1159.81,284.126 1159.7,284.097 1159.56,284.097L1159.14,284.097ZM1159.14,283.91L1159.49,283.91C1159.56,283.91 1159.63,283.902 1159.68,283.886C1159.74,283.87 1159.78,283.847 1159.82,283.818C1159.85,283.789 1159.88,283.754 1159.89,283.713C1159.91,283.672 1159.92,283.627 1159.92,283.579C1159.92,283.465 1159.89,283.381 1159.82,283.328C1159.75,283.275 1159.64,283.248 1159.5,283.248L1159.14,283.248L1159.14,283.91Z" style="fill:rgb(0,16,221);fill-rule:nonzero;"/>
            <rect x="1160.62" y="282.987" width="0.241" height="1.994" style="fill:rgb(0,16,221);fill-rule:nonzero;"/>
            <path d="M1161.84,283.588C1161.94,283.588 1162.03,283.605 1162.11,283.638C1162.19,283.672 1162.26,283.719 1162.32,283.78C1162.38,283.842 1162.42,283.916 1162.45,284.003C1162.48,284.09 1162.5,284.187 1162.5,284.295C1162.5,284.403 1162.48,284.501 1162.45,284.587C1162.42,284.674 1162.38,284.748 1162.32,284.809C1162.26,284.871 1162.19,284.918 1162.11,284.951C1162.03,284.984 1161.94,285 1161.84,285C1161.74,285 1161.65,284.984 1161.57,284.951C1161.49,284.918 1161.42,284.871 1161.36,284.809C1161.31,284.748 1161.26,284.674 1161.23,284.587C1161.2,284.501 1161.19,284.403 1161.19,284.295C1161.19,284.187 1161.2,284.09 1161.23,284.003C1161.26,283.916 1161.31,283.842 1161.36,283.78C1161.42,283.719 1161.49,283.672 1161.57,283.638C1161.65,283.605 1161.74,283.588 1161.84,283.588ZM1161.84,284.812C1161.98,284.812 1162.08,284.767 1162.14,284.676C1162.21,284.585 1162.25,284.459 1162.25,284.296C1162.25,284.133 1162.21,284.006 1162.14,283.914C1162.08,283.823 1161.98,283.778 1161.84,283.778C1161.77,283.778 1161.71,283.789 1161.66,283.813C1161.61,283.836 1161.57,283.87 1161.54,283.914C1161.5,283.959 1161.48,284.013 1161.46,284.078C1161.44,284.142 1161.44,284.215 1161.44,284.296C1161.44,284.377 1161.44,284.45 1161.46,284.514C1161.48,284.578 1161.5,284.632 1161.54,284.676C1161.57,284.72 1161.61,284.753 1161.66,284.777C1161.71,284.8 1161.77,284.812 1161.84,284.812Z" style="fill:rgb(0,16,221);fill-rule:nonzero;"/>
            <path d="M1163.73,283.854C1163.72,283.863 1163.71,283.871 1163.71,283.877C1163.7,283.882 1163.69,283.885 1163.67,283.885C1163.66,283.885 1163.65,283.879 1163.63,283.868C1163.62,283.856 1163.6,283.844 1163.57,283.83C1163.55,283.817 1163.52,283.805 1163.48,283.793C1163.45,283.782 1163.4,283.776 1163.35,283.776C1163.29,283.776 1163.23,283.788 1163.18,283.812C1163.13,283.836 1163.08,283.871 1163.05,283.916C1163.01,283.961 1162.99,284.016 1162.97,284.08C1162.95,284.144 1162.94,284.215 1162.94,284.295C1162.94,284.378 1162.95,284.452 1162.97,284.516C1162.99,284.581 1163.02,284.635 1163.05,284.679C1163.09,284.723 1163.13,284.756 1163.18,284.779C1163.23,284.802 1163.28,284.813 1163.34,284.813C1163.4,284.813 1163.45,284.806 1163.49,284.792C1163.53,284.778 1163.56,284.763 1163.58,284.746C1163.61,284.729 1163.63,284.713 1163.64,284.699C1163.66,284.685 1163.68,284.678 1163.69,284.678C1163.71,284.678 1163.73,284.686 1163.74,284.701L1163.81,284.789C1163.75,284.862 1163.67,284.916 1163.58,284.95C1163.49,284.983 1163.4,285 1163.3,285C1163.21,285 1163.13,284.984 1163.06,284.953C1162.99,284.921 1162.92,284.876 1162.87,284.815C1162.82,284.755 1162.77,284.682 1162.74,284.594C1162.71,284.507 1162.69,284.407 1162.69,284.295C1162.69,284.193 1162.71,284.099 1162.74,284.012C1162.77,283.925 1162.81,283.851 1162.86,283.788C1162.92,283.725 1162.98,283.676 1163.07,283.641C1163.14,283.606 1163.24,283.588 1163.34,283.588C1163.44,283.588 1163.52,283.604 1163.6,283.635C1163.67,283.666 1163.74,283.71 1163.79,283.767L1163.73,283.854Z" style="fill:rgb(0,16,221);fill-rule:nonzero;"/>
            <path d="M1164.31,282.987L1164.31,284.161L1164.37,284.161C1164.39,284.161 1164.4,284.158 1164.41,284.153C1164.43,284.148 1164.44,284.138 1164.45,284.123L1164.89,283.659C1164.9,283.644 1164.91,283.632 1164.93,283.623C1164.94,283.614 1164.96,283.61 1164.98,283.61L1165.2,283.61L1164.7,284.147C1164.68,284.163 1164.67,284.176 1164.66,284.188C1164.65,284.2 1164.63,284.21 1164.62,284.219C1164.63,284.23 1164.65,284.242 1164.66,284.256C1164.67,284.27 1164.69,284.286 1164.7,284.304L1165.24,284.981L1165.02,284.981C1165,284.981 1164.98,284.978 1164.97,284.97C1164.95,284.962 1164.94,284.95 1164.93,284.934L1164.48,284.372C1164.46,284.353 1164.45,284.341 1164.44,284.335C1164.42,284.329 1164.4,284.326 1164.38,284.326L1164.31,284.326L1164.31,284.981L1164.07,284.981L1164.07,282.987L1164.31,282.987Z" style="fill:rgb(0,16,221);fill-rule:nonzero;"/>
            <path d="M1166.33,283.854C1166.32,283.863 1166.32,283.871 1166.31,283.877C1166.3,283.882 1166.29,283.885 1166.28,283.885C1166.26,283.885 1166.25,283.879 1166.23,283.868C1166.22,283.856 1166.2,283.844 1166.17,283.83C1166.15,283.817 1166.12,283.805 1166.09,283.793C1166.05,283.782 1166.01,283.776 1165.96,283.776C1165.89,283.776 1165.83,283.788 1165.78,283.812C1165.73,283.836 1165.68,283.871 1165.65,283.916C1165.62,283.961 1165.59,284.016 1165.57,284.08C1165.55,284.144 1165.55,284.215 1165.55,284.295C1165.55,284.378 1165.56,284.452 1165.57,284.516C1165.59,284.581 1165.62,284.635 1165.65,284.679C1165.69,284.723 1165.73,284.756 1165.78,284.779C1165.83,284.802 1165.88,284.813 1165.94,284.813C1166,284.813 1166.05,284.806 1166.09,284.792C1166.13,284.778 1166.16,284.763 1166.18,284.746C1166.21,284.729 1166.23,284.713 1166.25,284.699C1166.26,284.685 1166.28,284.678 1166.3,284.678C1166.32,284.678 1166.33,284.686 1166.34,284.701L1166.41,284.789C1166.35,284.862 1166.28,284.916 1166.18,284.95C1166.1,284.983 1166,285 1165.9,285C1165.82,285 1165.74,284.984 1165.66,284.953C1165.59,284.921 1165.53,284.876 1165.47,284.815C1165.42,284.755 1165.38,284.682 1165.34,284.594C1165.31,284.507 1165.3,284.407 1165.3,284.295C1165.3,284.193 1165.31,284.099 1165.34,284.012C1165.37,283.925 1165.41,283.851 1165.46,283.788C1165.52,283.725 1165.59,283.676 1165.67,283.641C1165.75,283.606 1165.84,283.588 1165.94,283.588C1166.04,283.588 1166.12,283.604 1166.2,283.635C1166.27,283.666 1166.34,283.71 1166.39,283.767L1166.33,283.854Z" style="fill:rgb(0,16,221);fill-rule:nonzero;"/>
            <path d="M1166.66,284.981L1166.66,282.987L1166.9,282.987L1166.9,283.794C1166.96,283.732 1167.02,283.682 1167.1,283.644C1167.17,283.607 1167.25,283.588 1167.34,283.588C1167.42,283.588 1167.48,283.601 1167.54,283.625C1167.6,283.65 1167.64,283.685 1167.68,283.731C1167.72,283.777 1167.75,283.831 1167.77,283.895C1167.79,283.96 1167.8,284.03 1167.8,284.108L1167.8,284.981L1167.56,284.981L1167.56,284.108C1167.56,284.004 1167.54,283.924 1167.49,283.866C1167.44,283.809 1167.37,283.78 1167.27,283.78C1167.2,283.78 1167.13,283.798 1167.07,283.832C1167.01,283.866 1166.95,283.913 1166.9,283.971L1166.9,284.981L1166.66,284.981Z" style="fill:rgb(0,16,221);fill-rule:nonzero;"/>
            <path d="M1169.17,284.981L1169.07,284.981C1169.04,284.981 1169.02,284.978 1169.01,284.971C1168.99,284.963 1168.99,284.948 1168.98,284.924L1168.95,284.797C1168.92,284.83 1168.88,284.859 1168.85,284.885C1168.81,284.91 1168.78,284.932 1168.74,284.95C1168.7,284.967 1168.66,284.98 1168.62,284.989C1168.58,284.998 1168.53,285.003 1168.48,285.003C1168.42,285.003 1168.37,284.996 1168.33,284.981C1168.28,284.966 1168.24,284.943 1168.2,284.913C1168.17,284.883 1168.14,284.846 1168.12,284.8C1168.1,284.754 1168.09,284.7 1168.09,284.638C1168.09,284.583 1168.11,284.531 1168.14,284.481C1168.17,284.43 1168.21,284.386 1168.28,284.347C1168.35,284.308 1168.43,284.276 1168.54,284.251C1168.65,284.226 1168.78,284.214 1168.93,284.214L1168.93,284.106C1168.93,283.999 1168.91,283.918 1168.87,283.863C1168.82,283.808 1168.75,283.78 1168.66,283.78C1168.61,283.78 1168.56,283.788 1168.52,283.803C1168.48,283.818 1168.44,283.834 1168.41,283.853C1168.38,283.871 1168.36,283.888 1168.34,283.903C1168.32,283.918 1168.29,283.925 1168.27,283.925C1168.26,283.925 1168.24,283.921 1168.23,283.912C1168.22,283.904 1168.21,283.893 1168.2,283.881L1168.16,283.803C1168.23,283.73 1168.32,283.676 1168.4,283.64C1168.49,283.603 1168.59,283.585 1168.69,283.585C1168.77,283.585 1168.84,283.598 1168.9,283.623C1168.96,283.649 1169.01,283.684 1169.05,283.729C1169.09,283.774 1169.12,283.829 1169.14,283.893C1169.16,283.957 1169.17,284.027 1169.17,284.104L1169.17,284.981ZM1168.55,284.834C1168.59,284.834 1168.63,284.829 1168.66,284.821C1168.7,284.812 1168.73,284.8 1168.76,284.784C1168.79,284.769 1168.82,284.749 1168.85,284.727C1168.88,284.704 1168.91,284.679 1168.93,284.65L1168.93,284.367C1168.82,284.367 1168.73,284.374 1168.65,284.388C1168.58,284.402 1168.51,284.42 1168.46,284.443C1168.41,284.466 1168.38,284.492 1168.36,284.523C1168.33,284.554 1168.32,284.589 1168.32,284.627C1168.32,284.663 1168.33,284.694 1168.34,284.721C1168.35,284.747 1168.37,284.769 1168.39,284.785C1168.41,284.802 1168.43,284.814 1168.46,284.822C1168.49,284.83 1168.52,284.834 1168.55,284.834Z" style="fill:rgb(0,16,221);fill-rule:nonzero;"/>
            <path d="M1169.81,283.61L1169.81,284.981L1169.57,284.981L1169.57,283.61L1169.81,283.61ZM1169.86,283.179C1169.86,283.203 1169.86,283.225 1169.85,283.245C1169.84,283.265 1169.82,283.283 1169.81,283.299C1169.79,283.315 1169.77,283.327 1169.75,283.336C1169.73,283.345 1169.71,283.35 1169.69,283.35C1169.66,283.35 1169.64,283.345 1169.62,283.336C1169.6,283.327 1169.58,283.315 1169.57,283.299C1169.55,283.283 1169.54,283.265 1169.53,283.245C1169.52,283.225 1169.52,283.203 1169.52,283.179C1169.52,283.156 1169.52,283.133 1169.53,283.112C1169.54,283.091 1169.55,283.073 1169.57,283.057C1169.58,283.041 1169.6,283.029 1169.62,283.019C1169.64,283.01 1169.66,283.006 1169.69,283.006C1169.71,283.006 1169.73,283.01 1169.75,283.019C1169.77,283.029 1169.79,283.041 1169.81,283.057C1169.82,283.073 1169.84,283.091 1169.85,283.112C1169.86,283.133 1169.86,283.156 1169.86,283.179Z" style="fill:rgb(0,16,221);fill-rule:nonzero;"/>
            <path d="M1170.23,284.981L1170.23,283.61L1170.38,283.61C1170.41,283.61 1170.43,283.626 1170.44,283.66L1170.46,283.809C1170.52,283.743 1170.59,283.69 1170.66,283.649C1170.73,283.608 1170.82,283.588 1170.91,283.588C1170.99,283.588 1171.05,283.601 1171.11,283.625C1171.17,283.65 1171.22,283.685 1171.26,283.731C1171.29,283.777 1171.32,283.831 1171.34,283.895C1171.36,283.96 1171.37,284.03 1171.37,284.108L1171.37,284.981L1171.13,284.981L1171.13,284.108C1171.13,284.004 1171.11,283.924 1171.06,283.866C1171.01,283.809 1170.94,283.78 1170.84,283.78C1170.77,283.78 1170.7,283.798 1170.64,283.832C1170.58,283.866 1170.52,283.913 1170.47,283.971L1170.47,284.981L1170.23,284.981Z" style="fill:rgb(0,16,221);fill-rule:nonzero;"/>
            <path d="M1172.59,284.256L1172.59,284.981L1172.32,284.981L1172.32,283.041L1172.9,283.041C1173.02,283.041 1173.13,283.055 1173.22,283.084C1173.31,283.112 1173.38,283.153 1173.44,283.205C1173.5,283.257 1173.55,283.321 1173.58,283.395C1173.61,283.469 1173.62,283.551 1173.62,283.642C1173.62,283.733 1173.6,283.815 1173.57,283.89C1173.54,283.965 1173.5,284.03 1173.43,284.084C1173.37,284.138 1173.3,284.18 1173.21,284.21C1173.12,284.241 1173.01,284.256 1172.9,284.256L1172.59,284.256ZM1172.59,284.047L1172.9,284.047C1172.97,284.047 1173.04,284.037 1173.1,284.017C1173.15,283.997 1173.2,283.97 1173.24,283.934C1173.28,283.898 1173.31,283.856 1173.33,283.806C1173.35,283.756 1173.36,283.702 1173.36,283.642C1173.36,283.519 1173.32,283.422 1173.24,283.353C1173.17,283.283 1173.05,283.248 1172.9,283.248L1172.59,283.248L1172.59,284.047Z" style="fill:rgb(0,16,221);fill-rule:nonzero;"/>
            <rect x="1173.94" y="282.987" width="0.241" height="1.994" style="fill:rgb(0,16,221);fill-rule:nonzero;"/>
            <path d="M1175.61,284.981L1175.51,284.981C1175.48,284.981 1175.46,284.978 1175.45,284.971C1175.44,284.963 1175.43,284.948 1175.42,284.924L1175.39,284.797C1175.36,284.83 1175.32,284.859 1175.29,284.885C1175.26,284.91 1175.22,284.932 1175.18,284.95C1175.14,284.967 1175.1,284.98 1175.06,284.989C1175.02,284.998 1174.97,285.003 1174.92,285.003C1174.86,285.003 1174.81,284.996 1174.77,284.981C1174.72,284.966 1174.68,284.943 1174.65,284.913C1174.61,284.883 1174.59,284.846 1174.56,284.8C1174.54,284.754 1174.53,284.7 1174.53,284.638C1174.53,284.583 1174.55,284.531 1174.58,284.481C1174.61,284.43 1174.66,284.386 1174.72,284.347C1174.79,284.308 1174.88,284.276 1174.98,284.251C1175.09,284.226 1175.22,284.214 1175.38,284.214L1175.38,284.106C1175.38,283.999 1175.36,283.918 1175.31,283.863C1175.26,283.808 1175.2,283.78 1175.11,283.78C1175.05,283.78 1175,283.788 1174.96,283.803C1174.92,283.818 1174.88,283.834 1174.85,283.853C1174.83,283.871 1174.8,283.888 1174.78,283.903C1174.76,283.918 1174.74,283.925 1174.71,283.925C1174.7,283.925 1174.68,283.921 1174.67,283.912C1174.66,283.904 1174.65,283.893 1174.64,283.881L1174.6,283.803C1174.68,283.73 1174.76,283.676 1174.85,283.64C1174.93,283.603 1175.03,283.585 1175.14,283.585C1175.21,283.585 1175.28,283.598 1175.34,283.623C1175.4,283.649 1175.45,283.684 1175.49,283.729C1175.53,283.774 1175.56,283.829 1175.58,283.893C1175.6,283.957 1175.61,284.027 1175.61,284.104L1175.61,284.981ZM1174.99,284.834C1175.03,284.834 1175.07,284.829 1175.11,284.821C1175.14,284.812 1175.17,284.8 1175.2,284.784C1175.24,284.769 1175.27,284.749 1175.29,284.727C1175.32,284.704 1175.35,284.679 1175.38,284.65L1175.38,284.367C1175.27,284.367 1175.17,284.374 1175.09,284.388C1175.02,284.402 1174.95,284.42 1174.9,284.443C1174.86,284.466 1174.82,284.492 1174.8,284.523C1174.78,284.554 1174.77,284.589 1174.77,284.627C1174.77,284.663 1174.77,284.694 1174.78,284.721C1174.8,284.747 1174.81,284.769 1174.83,284.785C1174.85,284.802 1174.87,284.814 1174.9,284.822C1174.93,284.83 1174.96,284.834 1174.99,284.834Z" style="fill:rgb(0,16,221);fill-rule:nonzero;"/>
            <path d="M1176.4,285.003C1176.29,285.003 1176.2,284.973 1176.15,284.912C1176.09,284.852 1176.06,284.765 1176.06,284.651L1176.06,283.812L1175.89,283.812C1175.88,283.812 1175.87,283.807 1175.86,283.799C1175.85,283.79 1175.84,283.777 1175.84,283.759L1175.84,283.663L1176.07,283.634L1176.12,283.21C1176.12,283.197 1176.13,283.186 1176.14,283.177C1176.15,283.169 1176.16,283.164 1176.18,283.164L1176.3,283.164L1176.3,283.637L1176.69,283.637L1176.69,283.812L1176.3,283.812L1176.3,284.635C1176.3,284.692 1176.31,284.735 1176.34,284.763C1176.37,284.791 1176.4,284.805 1176.45,284.805C1176.48,284.805 1176.5,284.802 1176.52,284.795C1176.53,284.788 1176.55,284.781 1176.56,284.773C1176.58,284.765 1176.59,284.757 1176.6,284.75C1176.61,284.744 1176.62,284.74 1176.62,284.74C1176.64,284.74 1176.65,284.748 1176.66,284.763L1176.73,284.878C1176.69,284.917 1176.64,284.948 1176.58,284.97C1176.52,284.992 1176.46,285.003 1176.4,285.003Z" style="fill:rgb(0,16,221);fill-rule:nonzero;"/>
            <path d="M1177.04,284.981L1177.04,283.816L1176.89,283.798C1176.87,283.793 1176.86,283.786 1176.85,283.777C1176.83,283.768 1176.83,283.754 1176.83,283.736L1176.83,283.637L1177.04,283.637L1177.04,283.504C1177.04,283.426 1177.06,283.356 1177.08,283.295C1177.1,283.234 1177.13,283.183 1177.17,283.141C1177.21,283.099 1177.26,283.067 1177.32,283.045C1177.38,283.024 1177.44,283.013 1177.52,283.013C1177.58,283.013 1177.63,283.022 1177.69,283.04L1177.68,283.16C1177.68,283.178 1177.67,283.189 1177.66,283.193C1177.64,283.196 1177.62,283.198 1177.6,283.198L1177.56,283.198C1177.51,283.198 1177.48,283.204 1177.44,283.214C1177.41,283.225 1177.38,283.243 1177.35,283.267C1177.33,283.292 1177.31,283.324 1177.3,283.363C1177.29,283.403 1177.28,283.452 1177.28,283.511L1177.28,283.637L1177.67,283.637L1177.67,283.812L1177.29,283.812L1177.29,284.981L1177.04,284.981Z" style="fill:rgb(0,16,221);fill-rule:nonzero;"/>
            <path d="M1178.46,283.588C1178.56,283.588 1178.65,283.605 1178.73,283.638C1178.81,283.672 1178.88,283.719 1178.93,283.78C1178.99,283.842 1179.04,283.916 1179.07,284.003C1179.1,284.09 1179.11,284.187 1179.11,284.295C1179.11,284.403 1179.1,284.501 1179.07,284.587C1179.04,284.674 1178.99,284.748 1178.93,284.809C1178.88,284.871 1178.81,284.918 1178.73,284.951C1178.65,284.984 1178.56,285 1178.46,285C1178.36,285 1178.27,284.984 1178.19,284.951C1178.11,284.918 1178.04,284.871 1177.98,284.809C1177.92,284.748 1177.88,284.674 1177.85,284.587C1177.82,284.501 1177.8,284.403 1177.8,284.295C1177.8,284.187 1177.82,284.09 1177.85,284.003C1177.88,283.916 1177.92,283.842 1177.98,283.78C1178.04,283.719 1178.11,283.672 1178.19,283.638C1178.27,283.605 1178.36,283.588 1178.46,283.588ZM1178.46,284.812C1178.59,284.812 1178.69,284.767 1178.76,284.676C1178.83,284.585 1178.86,284.459 1178.86,284.296C1178.86,284.133 1178.83,284.006 1178.76,283.914C1178.69,283.823 1178.59,283.778 1178.46,283.778C1178.39,283.778 1178.33,283.789 1178.28,283.813C1178.23,283.836 1178.19,283.87 1178.15,283.914C1178.12,283.959 1178.09,284.013 1178.08,284.078C1178.06,284.142 1178.05,284.215 1178.05,284.296C1178.05,284.377 1178.06,284.45 1178.08,284.514C1178.09,284.578 1178.12,284.632 1178.15,284.676C1178.19,284.72 1178.23,284.753 1178.28,284.777C1178.33,284.8 1178.39,284.812 1178.46,284.812Z" style="fill:rgb(0,16,221);fill-rule:nonzero;"/>
            <path d="M1179.41,284.981L1179.41,283.61L1179.55,283.61C1179.57,283.61 1179.59,283.615 1179.6,283.625C1179.61,283.635 1179.62,283.652 1179.62,283.676L1179.64,283.89C1179.68,283.794 1179.74,283.72 1179.81,283.666C1179.88,283.612 1179.96,283.585 1180.05,283.585C1180.09,283.585 1180.13,283.59 1180.16,283.598C1180.19,283.607 1180.22,283.619 1180.24,283.634L1180.21,283.814C1180.2,283.837 1180.19,283.848 1180.17,283.848C1180.16,283.848 1180.14,283.844 1180.11,283.835C1180.09,283.827 1180.05,283.822 1180,283.822C1179.92,283.822 1179.85,283.847 1179.79,283.895C1179.73,283.944 1179.69,284.015 1179.65,284.108L1179.65,284.981L1179.41,284.981Z" style="fill:rgb(0,16,221);fill-rule:nonzero;"/>
            <path d="M1180.5,284.981L1180.5,283.61L1180.64,283.61C1180.68,283.61 1180.7,283.626 1180.71,283.66L1180.73,283.801C1180.78,283.738 1180.83,283.687 1180.89,283.648C1180.96,283.608 1181.03,283.588 1181.11,283.588C1181.21,283.588 1181.28,283.614 1181.34,283.665C1181.4,283.717 1181.44,283.786 1181.46,283.874C1181.48,283.824 1181.51,283.781 1181.54,283.745C1181.57,283.709 1181.61,283.679 1181.64,283.656C1181.68,283.632 1181.72,283.615 1181.77,283.604C1181.81,283.594 1181.86,283.588 1181.9,283.588C1181.97,283.588 1182.04,283.6 1182.09,283.623C1182.15,283.646 1182.2,283.679 1182.24,283.724C1182.28,283.768 1182.31,283.822 1182.33,283.887C1182.35,283.951 1182.36,284.025 1182.36,284.108L1182.36,284.981L1182.12,284.981L1182.12,284.108C1182.12,284.001 1182.09,283.919 1182.05,283.864C1182,283.808 1181.93,283.78 1181.84,283.78C1181.8,283.78 1181.77,283.787 1181.73,283.801C1181.69,283.815 1181.66,283.836 1181.63,283.863C1181.61,283.89 1181.59,283.924 1181.57,283.965C1181.56,284.006 1181.55,284.054 1181.55,284.108L1181.55,284.981L1181.31,284.981L1181.31,284.108C1181.31,283.998 1181.28,283.916 1181.24,283.862C1181.2,283.807 1181.13,283.78 1181.05,283.78C1180.99,283.78 1180.93,283.796 1180.88,283.828C1180.83,283.861 1180.78,283.904 1180.74,283.959L1180.74,284.981L1180.5,284.981Z" style="fill:rgb(0,16,221);fill-rule:nonzero;"/>
            <path d="M1184.25,284.981L1184.14,284.981C1184.12,284.981 1184.1,284.978 1184.09,284.971C1184.07,284.963 1184.07,284.948 1184.06,284.924L1184.03,284.797C1184,284.83 1183.96,284.859 1183.93,284.885C1183.89,284.91 1183.86,284.932 1183.82,284.95C1183.78,284.967 1183.74,284.98 1183.7,284.989C1183.65,284.998 1183.61,285.003 1183.56,285.003C1183.5,285.003 1183.45,284.996 1183.41,284.981C1183.36,284.966 1183.32,284.943 1183.28,284.913C1183.25,284.883 1183.22,284.846 1183.2,284.8C1183.18,284.754 1183.17,284.7 1183.17,284.638C1183.17,284.583 1183.19,284.531 1183.22,284.481C1183.25,284.43 1183.3,284.386 1183.36,284.347C1183.43,284.308 1183.51,284.276 1183.62,284.251C1183.73,284.226 1183.86,284.214 1184.02,284.214L1184.02,284.106C1184.02,283.999 1183.99,283.918 1183.95,283.863C1183.9,283.808 1183.83,283.78 1183.75,283.78C1183.69,283.78 1183.64,283.788 1183.6,283.803C1183.56,283.818 1183.52,283.834 1183.49,283.853C1183.46,283.871 1183.44,283.888 1183.42,283.903C1183.39,283.918 1183.37,283.925 1183.35,283.925C1183.34,283.925 1183.32,283.921 1183.31,283.912C1183.3,283.904 1183.29,283.893 1183.28,283.881L1183.24,283.803C1183.31,283.73 1183.4,283.676 1183.48,283.64C1183.57,283.603 1183.67,283.585 1183.78,283.585C1183.85,283.585 1183.92,283.598 1183.98,283.623C1184.04,283.649 1184.09,283.684 1184.13,283.729C1184.17,283.774 1184.2,283.829 1184.22,283.893C1184.24,283.957 1184.25,284.027 1184.25,284.104L1184.25,284.981ZM1183.63,284.834C1183.67,284.834 1183.71,284.829 1183.74,284.821C1183.78,284.812 1183.81,284.8 1183.84,284.784C1183.87,284.769 1183.9,284.749 1183.93,284.727C1183.96,284.704 1183.99,284.679 1184.02,284.65L1184.02,284.367C1183.9,284.367 1183.81,284.374 1183.73,284.388C1183.65,284.402 1183.59,284.42 1183.54,284.443C1183.49,284.466 1183.46,284.492 1183.44,284.523C1183.41,284.554 1183.4,284.589 1183.4,284.627C1183.4,284.663 1183.41,284.694 1183.42,284.721C1183.43,284.747 1183.45,284.769 1183.47,284.785C1183.49,284.802 1183.51,284.814 1183.54,284.822C1183.57,284.83 1183.6,284.834 1183.63,284.834Z" style="fill:rgb(0,16,221);fill-rule:nonzero;"/>
            <path d="M1185.4,283.836C1185.39,283.856 1185.38,283.866 1185.35,283.866C1185.34,283.866 1185.32,283.861 1185.31,283.851C1185.29,283.841 1185.27,283.83 1185.24,283.818C1185.22,283.805 1185.19,283.794 1185.16,283.784C1185.12,283.773 1185.08,283.768 1185.03,283.768C1184.99,283.768 1184.96,283.773 1184.92,283.784C1184.89,283.794 1184.86,283.808 1184.84,283.826C1184.82,283.844 1184.8,283.865 1184.79,283.889C1184.78,283.913 1184.77,283.939 1184.77,283.967C1184.77,284.002 1184.78,284.032 1184.8,284.055C1184.82,284.079 1184.85,284.099 1184.88,284.116C1184.91,284.133 1184.95,284.148 1184.99,284.162C1185.04,284.175 1185.08,284.189 1185.13,284.204C1185.17,284.218 1185.21,284.235 1185.26,284.253C1185.3,284.271 1185.34,284.294 1185.37,284.321C1185.4,284.348 1185.43,284.381 1185.45,284.42C1185.47,284.459 1185.48,284.507 1185.48,284.562C1185.48,284.625 1185.47,284.683 1185.45,284.737C1185.42,284.791 1185.39,284.837 1185.35,284.876C1185.3,284.916 1185.25,284.947 1185.18,284.969C1185.12,284.992 1185.05,285.003 1184.96,285.003C1184.87,285.003 1184.78,284.987 1184.7,284.956C1184.62,284.925 1184.56,284.885 1184.5,284.836L1184.56,284.744C1184.57,284.733 1184.58,284.724 1184.59,284.717C1184.6,284.711 1184.61,284.708 1184.63,284.708C1184.64,284.708 1184.66,284.714 1184.68,284.727C1184.7,284.739 1184.72,284.753 1184.74,284.769C1184.77,284.784 1184.8,284.798 1184.84,284.811C1184.87,284.823 1184.92,284.83 1184.97,284.83C1185.02,284.83 1185.06,284.824 1185.1,284.811C1185.13,284.799 1185.16,284.783 1185.18,284.762C1185.21,284.741 1185.23,284.717 1185.24,284.69C1185.25,284.663 1185.25,284.634 1185.25,284.604C1185.25,284.566 1185.24,284.534 1185.22,284.509C1185.2,284.485 1185.18,284.463 1185.14,284.446C1185.11,284.428 1185.07,284.413 1185.03,284.4C1184.99,284.387 1184.94,284.373 1184.9,284.359C1184.85,284.344 1184.81,284.328 1184.77,284.309C1184.72,284.291 1184.68,284.267 1184.65,284.239C1184.62,284.211 1184.59,284.177 1184.57,284.136C1184.55,284.095 1184.54,284.045 1184.54,283.986C1184.54,283.934 1184.55,283.884 1184.57,283.835C1184.6,283.787 1184.63,283.745 1184.67,283.708C1184.71,283.671 1184.76,283.642 1184.82,283.621C1184.88,283.599 1184.95,283.588 1185.03,283.588C1185.12,283.588 1185.2,283.602 1185.27,283.631C1185.34,283.659 1185.4,283.698 1185.46,283.748L1185.4,283.836Z" style="fill:rgb(0,16,221);fill-rule:nonzero;"/>
            <path d="M1187.32,284.981L1187.22,284.981C1187.19,284.981 1187.17,284.978 1187.16,284.971C1187.14,284.963 1187.13,284.948 1187.13,284.924L1187.1,284.797C1187.07,284.83 1187.03,284.859 1187,284.885C1186.96,284.91 1186.93,284.932 1186.89,284.95C1186.85,284.967 1186.81,284.98 1186.77,284.989C1186.73,284.998 1186.68,285.003 1186.63,285.003C1186.57,285.003 1186.52,284.996 1186.48,284.981C1186.43,284.966 1186.39,284.943 1186.36,284.913C1186.32,284.883 1186.29,284.846 1186.27,284.8C1186.25,284.754 1186.24,284.7 1186.24,284.638C1186.24,284.583 1186.26,284.531 1186.29,284.481C1186.32,284.43 1186.37,284.386 1186.43,284.347C1186.5,284.308 1186.59,284.276 1186.69,284.251C1186.8,284.226 1186.93,284.214 1187.09,284.214L1187.09,284.106C1187.09,283.999 1187.06,283.918 1187.02,283.863C1186.97,283.808 1186.9,283.78 1186.82,283.78C1186.76,283.78 1186.71,283.788 1186.67,283.803C1186.63,283.818 1186.59,283.834 1186.56,283.853C1186.53,283.871 1186.51,283.888 1186.49,283.903C1186.47,283.918 1186.44,283.925 1186.42,283.925C1186.41,283.925 1186.39,283.921 1186.38,283.912C1186.37,283.904 1186.36,283.893 1186.35,283.881L1186.31,283.803C1186.38,283.73 1186.47,283.676 1186.55,283.64C1186.64,283.603 1186.74,283.585 1186.85,283.585C1186.92,283.585 1186.99,283.598 1187.05,283.623C1187.11,283.649 1187.16,283.684 1187.2,283.729C1187.24,283.774 1187.27,283.829 1187.29,283.893C1187.31,283.957 1187.32,284.027 1187.32,284.104L1187.32,284.981ZM1186.7,284.834C1186.74,284.834 1186.78,284.829 1186.81,284.821C1186.85,284.812 1186.88,284.8 1186.91,284.784C1186.94,284.769 1186.98,284.749 1187,284.727C1187.03,284.704 1187.06,284.679 1187.09,284.65L1187.09,284.367C1186.98,284.367 1186.88,284.374 1186.8,284.388C1186.73,284.402 1186.66,284.42 1186.61,284.443C1186.57,284.466 1186.53,284.492 1186.51,284.523C1186.49,284.554 1186.47,284.589 1186.47,284.627C1186.47,284.663 1186.48,284.694 1186.49,284.721C1186.5,284.747 1186.52,284.769 1186.54,284.785C1186.56,284.802 1186.58,284.814 1186.61,284.822C1186.64,284.83 1186.67,284.834 1186.7,284.834Z" style="fill:rgb(0,16,221);fill-rule:nonzero;"/>
            <path d="M1189.24,283.344C1189.24,283.358 1189.23,283.368 1189.22,283.375C1189.21,283.382 1189.2,283.385 1189.18,283.385C1189.17,283.385 1189.15,283.377 1189.13,283.362C1189.11,283.347 1189.08,283.33 1189.05,283.311C1189.02,283.293 1188.98,283.276 1188.94,283.26C1188.89,283.245 1188.84,283.237 1188.78,283.237C1188.72,283.237 1188.67,283.245 1188.62,283.261C1188.58,283.277 1188.54,283.298 1188.51,283.325C1188.48,283.353 1188.46,283.384 1188.44,283.421C1188.43,283.457 1188.42,283.497 1188.42,283.539C1188.42,283.594 1188.43,283.638 1188.46,283.674C1188.49,283.71 1188.52,283.74 1188.57,283.766C1188.61,283.791 1188.66,283.813 1188.71,283.831C1188.77,283.85 1188.83,283.869 1188.88,283.889C1188.94,283.909 1189,283.931 1189.06,283.956C1189.11,283.981 1189.16,284.012 1189.2,284.05C1189.25,284.088 1189.28,284.134 1189.31,284.189C1189.34,284.244 1189.35,284.312 1189.35,284.392C1189.35,284.477 1189.34,284.557 1189.31,284.631C1189.28,284.706 1189.24,284.771 1189.18,284.826C1189.13,284.881 1189.06,284.924 1188.98,284.956C1188.89,284.987 1188.8,285.003 1188.7,285.003C1188.58,285.003 1188.46,284.98 1188.36,284.935C1188.25,284.889 1188.16,284.827 1188.09,284.75L1188.17,284.625C1188.17,284.615 1188.18,284.607 1188.19,284.6C1188.2,284.593 1188.22,284.59 1188.23,284.59C1188.25,284.59 1188.27,284.6 1188.29,284.621C1188.32,284.641 1188.35,284.663 1188.38,284.688C1188.42,284.712 1188.47,284.734 1188.52,284.755C1188.57,284.775 1188.63,284.785 1188.71,284.785C1188.77,284.785 1188.83,284.776 1188.88,284.759C1188.92,284.742 1188.96,284.718 1189,284.687C1189.03,284.656 1189.06,284.618 1189.08,284.575C1189.1,284.532 1189.1,284.484 1189.1,284.43C1189.1,284.372 1189.09,284.324 1189.06,284.286C1189.04,284.249 1189,284.217 1188.96,284.192C1188.91,284.167 1188.87,284.145 1188.81,284.128C1188.76,284.11 1188.7,284.092 1188.64,284.074C1188.58,284.055 1188.53,284.034 1188.47,284.009C1188.41,283.985 1188.36,283.953 1188.32,283.914C1188.28,283.876 1188.24,283.827 1188.22,283.769C1188.19,283.711 1188.18,283.639 1188.18,283.553C1188.18,283.484 1188.19,283.418 1188.22,283.354C1188.24,283.29 1188.28,283.233 1188.33,283.183C1188.38,283.134 1188.44,283.094 1188.52,283.064C1188.59,283.034 1188.68,283.019 1188.78,283.019C1188.88,283.019 1188.98,283.037 1189.07,283.071C1189.16,283.105 1189.24,283.155 1189.31,283.22L1189.24,283.344Z" style="fill:rgb(0,16,221);fill-rule:nonzero;"/>
            <path d="M1190.19,283.588C1190.27,283.588 1190.35,283.602 1190.42,283.629C1190.49,283.657 1190.55,283.697 1190.6,283.749C1190.65,283.8 1190.69,283.865 1190.71,283.941C1190.74,284.017 1190.76,284.104 1190.76,284.201C1190.76,284.239 1190.75,284.265 1190.75,284.277C1190.74,284.29 1190.72,284.296 1190.7,284.296L1189.79,284.296C1189.79,284.383 1189.8,284.458 1189.82,284.522C1189.84,284.586 1189.87,284.64 1189.91,284.683C1189.95,284.726 1190,284.758 1190.05,284.779C1190.1,284.8 1190.16,284.811 1190.22,284.811C1190.28,284.811 1190.34,284.804 1190.38,284.79C1190.42,284.776 1190.46,284.761 1190.49,284.744C1190.52,284.728 1190.55,284.713 1190.57,284.699C1190.59,284.685 1190.61,284.678 1190.63,284.678C1190.65,284.678 1190.66,284.686 1190.67,284.701L1190.74,284.789C1190.71,284.825 1190.67,284.857 1190.63,284.883C1190.59,284.91 1190.55,284.932 1190.5,284.949C1190.45,284.966 1190.4,284.979 1190.35,284.987C1190.3,284.996 1190.25,285 1190.2,285C1190.11,285 1190.02,284.984 1189.94,284.952C1189.86,284.92 1189.79,284.873 1189.73,284.811C1189.68,284.75 1189.63,284.673 1189.6,284.582C1189.57,284.491 1189.55,284.386 1189.55,284.268C1189.55,284.172 1189.56,284.083 1189.59,284C1189.62,283.917 1189.66,283.845 1189.72,283.784C1189.78,283.723 1189.84,283.675 1189.92,283.64C1190,283.606 1190.09,283.588 1190.19,283.588ZM1190.19,283.766C1190.08,283.766 1189.99,283.799 1189.92,283.866C1189.85,283.934 1189.81,284.027 1189.8,284.146L1190.54,284.146C1190.54,284.09 1190.53,284.039 1190.52,283.992C1190.5,283.946 1190.48,283.906 1190.45,283.872C1190.42,283.838 1190.38,283.812 1190.34,283.793C1190.3,283.775 1190.25,283.766 1190.19,283.766Z" style="fill:rgb(0,16,221);fill-rule:nonzero;"/>
            <path d="M1191.07,284.981L1191.07,283.61L1191.2,283.61C1191.23,283.61 1191.25,283.615 1191.26,283.625C1191.27,283.635 1191.27,283.652 1191.28,283.676L1191.29,283.89C1191.34,283.794 1191.4,283.72 1191.47,283.666C1191.54,283.612 1191.62,283.585 1191.71,283.585C1191.75,283.585 1191.78,283.59 1191.81,283.598C1191.85,283.607 1191.87,283.619 1191.9,283.634L1191.87,283.814C1191.86,283.837 1191.85,283.848 1191.83,283.848C1191.81,283.848 1191.79,283.844 1191.77,283.835C1191.74,283.827 1191.7,283.822 1191.66,283.822C1191.58,283.822 1191.5,283.847 1191.45,283.895C1191.39,283.944 1191.34,284.015 1191.31,284.108L1191.31,284.981L1191.07,284.981Z" style="fill:rgb(0,16,221);fill-rule:nonzero;"/>
            <path d="M1191.98,283.61L1192.18,283.61C1192.2,283.61 1192.22,283.615 1192.23,283.625C1192.24,283.635 1192.25,283.646 1192.26,283.66L1192.6,284.543C1192.62,284.575 1192.63,284.608 1192.63,284.64C1192.64,284.673 1192.65,284.705 1192.65,284.736C1192.66,284.705 1192.67,284.673 1192.68,284.64C1192.68,284.608 1192.69,284.575 1192.71,284.543L1193.06,283.66C1193.07,283.645 1193.07,283.633 1193.09,283.624C1193.1,283.615 1193.11,283.61 1193.13,283.61L1193.32,283.61L1192.76,284.981L1192.54,284.981L1191.98,283.61Z" style="fill:rgb(0,16,221);fill-rule:nonzero;"/>
            <path d="M1193.81,283.61L1193.81,284.981L1193.57,284.981L1193.57,283.61L1193.81,283.61ZM1193.87,283.179C1193.87,283.203 1193.86,283.225 1193.85,283.245C1193.84,283.265 1193.83,283.283 1193.81,283.299C1193.8,283.315 1193.78,283.327 1193.76,283.336C1193.74,283.345 1193.72,283.35 1193.69,283.35C1193.67,283.35 1193.65,283.345 1193.63,283.336C1193.61,283.327 1193.59,283.315 1193.57,283.299C1193.56,283.283 1193.54,283.265 1193.54,283.245C1193.53,283.225 1193.52,283.203 1193.52,283.179C1193.52,283.156 1193.53,283.133 1193.54,283.112C1193.54,283.091 1193.56,283.073 1193.57,283.057C1193.59,283.041 1193.61,283.029 1193.63,283.019C1193.65,283.01 1193.67,283.006 1193.69,283.006C1193.72,283.006 1193.74,283.01 1193.76,283.019C1193.78,283.029 1193.8,283.041 1193.81,283.057C1193.83,283.073 1193.84,283.091 1193.85,283.112C1193.86,283.133 1193.87,283.156 1193.87,283.179Z" style="fill:rgb(0,16,221);fill-rule:nonzero;"/>
            <path d="M1195.17,283.854C1195.16,283.863 1195.16,283.871 1195.15,283.877C1195.14,283.882 1195.13,283.885 1195.12,283.885C1195.11,283.885 1195.09,283.879 1195.08,283.868C1195.06,283.856 1195.04,283.844 1195.02,283.83C1194.99,283.817 1194.96,283.805 1194.93,283.793C1194.89,283.782 1194.85,283.776 1194.8,283.776C1194.73,283.776 1194.67,283.788 1194.62,283.812C1194.57,283.836 1194.53,283.871 1194.49,283.916C1194.46,283.961 1194.43,284.016 1194.41,284.08C1194.39,284.144 1194.39,284.215 1194.39,284.295C1194.39,284.378 1194.4,284.452 1194.41,284.516C1194.43,284.581 1194.46,284.635 1194.5,284.679C1194.53,284.723 1194.57,284.756 1194.62,284.779C1194.67,284.802 1194.73,284.813 1194.79,284.813C1194.85,284.813 1194.89,284.806 1194.93,284.792C1194.97,284.778 1195,284.763 1195.03,284.746C1195.05,284.729 1195.07,284.713 1195.09,284.699C1195.1,284.685 1195.12,284.678 1195.14,284.678C1195.16,284.678 1195.17,284.686 1195.18,284.701L1195.25,284.789C1195.19,284.862 1195.12,284.916 1195.03,284.95C1194.94,284.983 1194.84,285 1194.74,285C1194.66,285 1194.58,284.984 1194.51,284.953C1194.43,284.921 1194.37,284.876 1194.31,284.815C1194.26,284.755 1194.22,284.682 1194.19,284.594C1194.15,284.507 1194.14,284.407 1194.14,284.295C1194.14,284.193 1194.15,284.099 1194.18,284.012C1194.21,283.925 1194.25,283.851 1194.31,283.788C1194.36,283.725 1194.43,283.676 1194.51,283.641C1194.59,283.606 1194.68,283.588 1194.79,283.588C1194.88,283.588 1194.96,283.604 1195.04,283.635C1195.11,283.666 1195.18,283.71 1195.24,283.767L1195.17,283.854Z" style="fill:rgb(0,16,221);fill-rule:nonzero;"/>
            <path d="M1196.04,283.588C1196.13,283.588 1196.2,283.602 1196.27,283.629C1196.34,283.657 1196.4,283.697 1196.45,283.749C1196.5,283.8 1196.54,283.865 1196.57,283.941C1196.6,284.017 1196.61,284.104 1196.61,284.201C1196.61,284.239 1196.61,284.265 1196.6,284.277C1196.59,284.29 1196.58,284.296 1196.55,284.296L1195.64,284.296C1195.64,284.383 1195.65,284.458 1195.68,284.522C1195.7,284.586 1195.73,284.64 1195.77,284.683C1195.8,284.726 1195.85,284.758 1195.9,284.779C1195.95,284.8 1196.01,284.811 1196.08,284.811C1196.14,284.811 1196.19,284.804 1196.23,284.79C1196.28,284.776 1196.32,284.761 1196.35,284.744C1196.38,284.728 1196.4,284.713 1196.43,284.699C1196.45,284.685 1196.47,284.678 1196.48,284.678C1196.5,284.678 1196.52,284.686 1196.53,284.701L1196.6,284.789C1196.57,284.825 1196.53,284.857 1196.49,284.883C1196.45,284.91 1196.4,284.932 1196.36,284.949C1196.31,284.966 1196.26,284.979 1196.21,284.987C1196.16,284.996 1196.11,285 1196.06,285C1195.96,285 1195.88,284.984 1195.8,284.952C1195.72,284.92 1195.65,284.873 1195.59,284.811C1195.53,284.75 1195.49,284.673 1195.45,284.582C1195.42,284.491 1195.4,284.386 1195.4,284.268C1195.4,284.172 1195.42,284.083 1195.45,284C1195.48,283.917 1195.52,283.845 1195.57,283.784C1195.63,283.723 1195.7,283.675 1195.78,283.64C1195.86,283.606 1195.94,283.588 1196.04,283.588ZM1196.05,283.766C1195.93,283.766 1195.84,283.799 1195.77,283.866C1195.71,283.934 1195.67,284.027 1195.65,284.146L1196.4,284.146C1196.4,284.09 1196.39,284.039 1196.37,283.992C1196.36,283.946 1196.34,283.906 1196.31,283.872C1196.28,283.838 1196.24,283.812 1196.2,283.793C1196.15,283.775 1196.1,283.766 1196.05,283.766Z" style="fill:rgb(0,16,221);fill-rule:nonzero;"/>
        </g>
    </g>
</svg>
