<svg xmlns="http://www.w3.org/2000/svg" viewBox="0 0 584.13 180.65"><defs><style>.cls-1{font-size:166.19px;font-family:MyriadPro-Bold, Myriad Pro;font-weight:700;}.cls-1,.cls-4{fill:#fff;}.cls-2{letter-spacing:-0.02em;}.cls-3{letter-spacing:0em;}</style></defs><title>Asset 15</title><g id="Layer_2" data-name="Layer 2"><g id="Layer_1-2" data-name="Layer 1"><text class="cls-1" transform="translate(39.9 139.1) scale(1.11 1)">B<tspan class="cls-2" x="100.38" y="0">P</tspan><tspan class="cls-3" x="193.94" y="0">aaS</tspan></text><rect class="cls-4" x="38.29" y="127.27" width="39.19" height="12.89"/><rect class="cls-4" x="41.01" y="26.74" width="32.34" height="13.46"/><rect class="cls-4" x="39.08" y="56.75" width="32.34" height="13.46"/><rect class="cls-4" x="38.95" y="72.5" width="17.75" height="12.87"/><rect class="cls-4" x="1.85" y="70.98" width="17.75" height="12.87"/><rect class="cls-4" x="1.99" y="56.03" width="17.75" height="12.87"/><rect class="cls-4" x="20.51" y="41.95" width="17.75" height="12.87"/><rect class="cls-4" x="21.19" y="27.41" width="17.75" height="12.87"/><rect class="cls-4" x="0.85" y="112.98" width="17.75" height="12.87"/><rect class="cls-4" x="1.35" y="98.98" width="17.75" height="12.87"/><rect class="cls-4" x="19.85" y="112.98" width="17.75" height="12.87"/><rect class="cls-4" x="39.35" y="98.98" width="17.75" height="12.87"/><rect class="cls-4" x="20.35" y="85.98" width="17.75" height="12.87"/><rect class="cls-4" x="19.35" y="126.98" width="17.75" height="12.87"/><rect class="cls-4" x="526.88" y="28.06" width="17.84" height="23.18"/><rect class="cls-4" x="566.38" y="43.66" width="17.75" height="12.87"/><rect class="cls-4" x="546.35" y="27.98" width="17.75" height="12.87"/><rect class="cls-4" x="566.35" y="94.98" width="17.75" height="12.87"/><rect class="cls-4" x="545.35" y="110.98" width="17.75" height="12.87"/><rect class="cls-4" x="545.35" y="55.98" width="17.75" height="12.87"/><rect class="cls-4" x="545.43" y="125.86" width="17.75" height="12.87"/><rect class="cls-4" x="566.35" y="72.98" width="17.75" height="12.87"/><rect class="cls-4" x="545.73" y="71.8" width="17.75" height="12.87"/><rect class="cls-4" x="526.78" y="125.36" width="16.56" height="12.87"/><rect class="cls-4" y="26.73" width="17.75" height="12.87"/><rect class="cls-4" x="525.27" y="55.49" width="17.75" height="12.87"/></g></g></svg>