<svg xmlns="http://www.w3.org/2000/svg" xmlns:xlink="http://www.w3.org/1999/xlink" viewBox="0 0 584.13 180.65"><defs><style>.cls-1{font-size:166.19px;font-family:MyriadPro-Bold, Myriad Pro;font-weight:700;}.cls-1,.cls-4{fill:#fff;}.cls-2{letter-spacing:-0.02em;}.cls-3{letter-spacing:0em;}.cls-5{fill:url(#linear-gradient);}.cls-6{fill:url(#linear-gradient-2);}.cls-7{fill:url(#linear-gradient-3);}.cls-8{fill:url(#linear-gradient-4);}.cls-9{fill:url(#linear-gradient-5);}.cls-10{fill:url(#linear-gradient-6);}.cls-11{fill:url(#linear-gradient-7);}.cls-12{fill:url(#linear-gradient-8);}.cls-13{fill:url(#linear-gradient-9);}.cls-14{fill:url(#linear-gradient-10);}.cls-15{fill:url(#linear-gradient-11);}.cls-16{fill:url(#linear-gradient-12);}.cls-17{fill:url(#linear-gradient-13);}.cls-18{fill:url(#linear-gradient-14);}.cls-19{fill:url(#linear-gradient-15);}.cls-20{fill:url(#linear-gradient-16);}.cls-21{fill:url(#linear-gradient-17);}</style><linearGradient id="linear-gradient" x1="120.7" y1="48.42" x2="135.74" y2="48.42" gradientUnits="userSpaceOnUse"><stop offset="0" stop-color="#3d93ed"/><stop offset="1" stop-color="#fff" stop-opacity="0"/></linearGradient><linearGradient id="linear-gradient-2" x1="1829.7" y1="48.42" x2="1844.74" y2="48.42" gradientTransform="translate(-1372 -4)" xlink:href="#linear-gradient"/><linearGradient id="linear-gradient-3" x1="235.49" y1="44.31" x2="250.53" y2="44.31" xlink:href="#linear-gradient"/><linearGradient id="linear-gradient-4" x1="169.28" y1="99.37" x2="184.32" y2="99.37" xlink:href="#linear-gradient"/><linearGradient id="linear-gradient-5" x1="325.26" y1="72.71" x2="340.3" y2="72.71" xlink:href="#linear-gradient"/><linearGradient id="linear-gradient-6" x1="1628.87" y1="126.2" x2="1643.91" y2="126.2" gradientTransform="translate(-1372 -4)" xlink:href="#linear-gradient"/><linearGradient id="linear-gradient-7" x1="423.73" y1="74.41" x2="438.78" y2="74.41" xlink:href="#linear-gradient"/><linearGradient id="linear-gradient-8" x1="1727.22" y1="126.38" x2="1742.27" y2="126.38" gradientTransform="translate(-1372 -4)" xlink:href="#linear-gradient"/><linearGradient id="linear-gradient-9" x1="1737.16" y1="297.07" x2="1752.21" y2="297.07" gradientTransform="translate(-1579.35 -205.51)" xlink:href="#linear-gradient"/><linearGradient id="linear-gradient-10" x1="417.62" y1="80.95" x2="432.66" y2="80.95" xlink:href="#linear-gradient"/><linearGradient id="linear-gradient-11" x1="362.07" y1="113.65" x2="377.11" y2="113.65" xlink:href="#linear-gradient"/><linearGradient id="linear-gradient-12" x1="266.46" y1="114.03" x2="281.51" y2="114.03" xlink:href="#linear-gradient"/><linearGradient id="linear-gradient-13" x1="315.67" y1="77.18" x2="330.71" y2="77.18" xlink:href="#linear-gradient"/><linearGradient id="linear-gradient-14" x1="488.7" y1="75.42" x2="503.74" y2="75.42" xlink:href="#linear-gradient"/><linearGradient id="linear-gradient-15" x1="496.22" y1="81.85" x2="511.27" y2="81.85" xlink:href="#linear-gradient"/><linearGradient id="linear-gradient-16" x1="110.45" y1="122.88" x2="125.49" y2="122.88" xlink:href="#linear-gradient"/><linearGradient id="linear-gradient-17" x1="97.71" y1="128.49" x2="112.75" y2="128.49" xlink:href="#linear-gradient"/></defs><title>Asset 14</title><g id="Layer_2" data-name="Layer 2"><g id="Layer_1-2" data-name="Layer 1"><text class="cls-1" transform="translate(39.9 139.1) scale(1.11 1)">B<tspan class="cls-2" x="100.38" y="0">P</tspan><tspan class="cls-3" x="193.94" y="0">aaS</tspan></text><rect class="cls-4" x="38.29" y="127.27" width="39.19" height="12.89"/><rect class="cls-4" x="41.01" y="26.74" width="32.34" height="13.46"/><rect class="cls-4" x="39.08" y="56.75" width="32.34" height="13.46"/><rect class="cls-4" x="38.95" y="72.5" width="17.75" height="12.87"/><rect class="cls-4" x="1.85" y="70.98" width="17.75" height="12.87"/><rect class="cls-4" x="1.99" y="56.03" width="17.75" height="12.87"/><rect class="cls-4" x="20.51" y="41.95" width="17.75" height="12.87"/><rect class="cls-4" x="21.19" y="27.41" width="17.75" height="12.87"/><rect class="cls-4" x="0.85" y="112.98" width="17.75" height="12.87"/><rect class="cls-4" x="1.35" y="98.98" width="17.75" height="12.87"/><rect class="cls-4" x="19.85" y="112.98" width="17.75" height="12.87"/><rect class="cls-4" x="39.35" y="98.98" width="17.75" height="12.87"/><rect class="cls-4" x="20.35" y="85.98" width="17.75" height="12.87"/><rect class="cls-4" x="19.35" y="126.98" width="17.75" height="12.87"/><rect class="cls-4" x="526.88" y="28.06" width="17.84" height="23.18"/><rect class="cls-4" x="566.38" y="43.66" width="17.75" height="12.87"/><rect class="cls-4" x="546.35" y="27.98" width="17.75" height="12.87"/><rect class="cls-4" x="566.35" y="94.98" width="17.75" height="12.87"/><rect class="cls-4" x="545.35" y="110.98" width="17.75" height="12.87"/><rect class="cls-4" x="545.35" y="55.98" width="17.75" height="12.87"/><rect class="cls-4" x="545.43" y="125.86" width="17.75" height="12.87"/><rect class="cls-4" x="566.35" y="72.98" width="17.75" height="12.87"/><rect class="cls-4" x="545.73" y="71.8" width="17.75" height="12.87"/><rect class="cls-4" x="526.78" y="125.36" width="16.56" height="12.87"/><rect class="cls-5" x="120.7" y="41.98" width="15.04" height="12.87"/><rect class="cls-6" x="457.7" y="37.98" width="15.04" height="12.87" transform="translate(930.45 88.84) rotate(180)"/><rect class="cls-7" x="235.49" y="37.88" width="15.04" height="12.87"/><rect class="cls-8" x="169.28" y="92.94" width="15.04" height="12.87"/><rect class="cls-9" x="325.26" y="66.28" width="15.04" height="12.87"/><rect class="cls-10" x="256.87" y="115.77" width="15.04" height="12.87" transform="translate(528.77 244.41) rotate(180)"/><rect class="cls-11" x="423.73" y="67.97" width="15.04" height="12.87"/><rect class="cls-12" x="355.22" y="115.94" width="15.04" height="12.87" transform="translate(725.49 244.75) rotate(180)"/><rect class="cls-13" x="157.81" y="85.12" width="15.04" height="12.87" transform="translate(330.67 183.12) rotate(180)"/><rect class="cls-14" x="417.62" y="74.51" width="15.04" height="12.87"/><rect class="cls-15" x="362.07" y="107.21" width="15.04" height="12.87"/><rect class="cls-16" x="266.46" y="107.59" width="15.04" height="12.87"/><rect class="cls-17" x="315.67" y="70.74" width="15.04" height="12.87"/><rect class="cls-18" x="488.7" y="68.98" width="15.04" height="12.87"/><rect class="cls-19" x="496.22" y="75.42" width="15.04" height="12.87"/><rect class="cls-4" y="26.73" width="17.75" height="12.87"/><rect class="cls-4" x="525.27" y="55.49" width="17.75" height="12.87"/><rect class="cls-20" x="110.45" y="116.44" width="15.04" height="12.87"/><rect class="cls-21" x="97.71" y="122.06" width="15.04" height="12.87"/></g></g></svg>