<?xml version="1.0" encoding="utf-8"?>
<!-- Generator: Adobe Illustrator 16.0.3, SVG Export Plug-In . SVG Version: 6.00 Build 0)  -->
<!DOCTYPE svg PUBLIC "-//W3C//DTD SVG 1.1//EN" "http://www.w3.org/Graphics/SVG/1.1/DTD/svg11.dtd">
<svg version="1.1" id="Layer_1" xmlns="http://www.w3.org/2000/svg" xmlns:xlink="http://www.w3.org/1999/xlink" x="0px" y="0px"
	 width="364px" height="174px" viewBox="0 0 364 174" enable-background="new 0 0 364 174" xml:space="preserve">
<polygon fill="#FFFFFF" points="357.1,131.677 211.85,131.677 211.85,43.427 357.1,43.427 357.1,131.677 "/>
<polygon fill="#005DAA" points="356.1,130.927 212.85,130.927 212.85,44.427 356.1,44.427 356.1,130.927 "/>
<polygon fill="#FFFFFF" points="271.6,130.927 356.1,45.177 356.1,44.427 355.6,44.427 270.35,130.927 271.6,130.927 "/>
<polygon fill="#FFFFFF" points="218.35,130.927 224.1,44.427 223.1,44.427 217.6,130.927 218.35,130.927 "/>
<polygon fill="#FFFFFF" points="222.85,130.927 235.35,44.427 234.35,44.427 222.1,130.927 222.85,130.927 "/>
<polygon fill="#FFFFFF" points="227.85,130.927 247.1,44.427 246.35,44.427 226.85,130.927 227.85,130.927 "/>
<polygon fill="#FFFFFF" points="233.1,130.927 260.85,44.427 259.85,44.427 232.35,130.927 233.1,130.927 "/>
<polygon fill="#FFFFFF" points="238.35,130.927 273.6,44.427 272.6,44.427 237.35,130.927 238.35,130.927 "/>
<polygon fill="#FFFFFF" points="244.1,130.927 288.35,44.427 287.35,44.427 243.1,130.927 244.1,130.927 "/>
<polygon fill="#FFFFFF" points="310.35,44.427 309.35,44.427 252.1,130.927 253.1,130.927 310.35,44.427 "/>
<polygon fill="#FFFFFF" points="330.85,44.427 329.85,44.427 260.1,130.927 261.35,130.927 330.85,44.427 "/>
<polygon fill="#FFFFFF" points="356.1,77.177 356.1,75.927 287.1,130.927 288.6,130.927 356.1,77.177 "/>
<polygon fill="#FFFFFF" points="356.1,100.927 356.1,99.927 306.6,130.927 308.1,130.927 356.1,100.927 "/>
<polygon fill="#FFFFFF" points="356.1,123.427 356.1,122.427 337.85,130.927 340.1,130.927 356.1,123.427 "/>
<polygon fill="#FFFFFF" stroke="#FFFFFF" stroke-width="0.5" stroke-linecap="square" stroke-miterlimit="10" points="
	244.85,104.427 244.85,104.427 242.1,104.427 239.6,104.177 237.1,103.677 234.6,102.927 232.6,101.927 230.35,100.927 
	228.6,99.677 226.85,98.177 225.1,96.427 223.85,94.677 222.6,92.677 221.6,90.427 220.85,88.177 220.35,85.677 219.85,83.177 
	219.85,80.427 219.85,80.427 220.1,77.677 220.35,75.177 220.85,72.927 221.85,70.427 222.85,68.427 224.1,66.177 225.35,64.427 
	227.1,62.677 228.85,61.177 230.85,59.677 232.85,58.677 235.1,57.677 237.35,56.927 239.85,56.177 242.35,55.927 245.1,55.677 
	245.1,55.677 247.85,55.927 250.85,56.427 253.6,56.927 256.35,57.927 256.35,65.177 256.35,65.177 254.85,63.427 253.6,62.427 
	252.6,61.427 251.1,60.677 249.35,59.927 247.35,59.427 245.1,59.427 245.1,59.427 243.6,59.427 241.85,59.677 240.6,60.177 
	239.1,60.677 237.85,61.677 236.85,62.427 235.6,63.677 234.85,64.927 233.85,66.427 233.1,67.927 232.1,71.177 231.35,75.177 
	231.1,79.427 231.1,79.427 231.35,83.927 232.1,88.177 233.1,91.677 233.85,93.427 234.85,94.927 235.85,96.177 236.85,97.427 
	238.1,98.427 239.35,99.177 240.85,99.927 242.6,100.427 244.35,100.677 246.1,100.927 246.1,100.927 247.6,100.677 248.85,100.427 
	251.85,99.677 254.35,98.427 256.35,97.177 257.85,100.927 257.85,100.927 256.1,102.177 253.35,103.177 251.85,103.677 
	249.85,104.177 247.6,104.427 244.85,104.427 244.85,104.427 "/>
<path fill="#FFFFFF" stroke="#FFFFFF" stroke-width="0.5" stroke-linecap="square" stroke-miterlimit="10" d="M293.6,80.177
	L293.6,80.177v3.25l-0.5,3l-0.5,2.5l-1,2l-0.75,2l-1.25,1.5l-1.25,1.5l-1.5,1l-1.5,1l-1.5,0.5l-1.75,0.5l-1.75,0.5l-3.5,0.5h-3.25
	v-39.75l0,0h3.25l3.5,0.5l1.75,0.25l1.75,0.5l1.5,0.75l1.5,1l1.5,1l1.25,1.5l1.25,1.5l1,2l0.75,2.25l0.5,2.5l0.5,3V80.177
	L293.6,80.177L293.6,80.177z M281.85,103.677L281.85,103.677l3.5-0.25l2-0.5l1.75-0.5l2-0.5l2-1l1.75-1l1.75-1.25l1.75-1.5l1.5-1.75
	l1.25-2l1.25-2l1-2.5l0.75-2.75l0.5-3v-3.25l0,0v-3.25l-0.5-3.25l-0.75-2.75l-1-2.5l-1.25-2l-1.25-2l-1.5-1.75l-1.75-1.25l-2-1.25
	l-1.75-1l-2-0.75l-2-0.5l-2.25-0.5l-2-0.25l-4-0.25h-17v47H281.85L281.85,103.677z"/>
<polygon fill="#FFFFFF" stroke="#FFFFFF" stroke-width="0.5" stroke-linecap="square" stroke-miterlimit="10" points="
	335.1,104.427 335.1,104.427 332.35,104.427 329.85,104.177 327.35,103.677 325.1,102.927 322.85,101.927 320.85,100.927 
	318.85,99.677 317.1,98.177 315.6,96.427 314.1,94.677 312.85,92.677 312.1,90.427 311.1,88.177 310.6,85.677 310.35,83.177 
	310.1,80.427 310.1,80.427 310.35,77.677 310.6,75.177 311.35,72.927 312.1,70.427 313.1,68.427 314.35,66.177 315.85,64.427 
	317.35,62.677 319.1,61.177 321.1,59.677 323.1,58.677 325.35,57.677 327.6,56.927 330.1,56.177 332.6,55.927 335.35,55.677 
	335.35,55.677 338.35,55.927 341.1,56.427 344.1,56.927 346.6,57.927 346.6,65.177 346.6,65.177 345.1,63.427 344.1,62.427 
	342.85,61.427 341.35,60.677 339.6,59.927 337.6,59.427 335.35,59.427 335.35,59.427 333.85,59.427 332.35,59.677 330.85,60.177 
	329.6,60.677 328.1,61.677 327.1,62.427 326.1,63.677 325.1,64.927 324.1,66.427 323.35,67.927 322.35,71.177 321.6,75.177 
	321.35,79.427 321.35,79.427 321.6,83.927 322.35,88.177 323.35,91.677 324.1,93.427 325.1,94.927 326.1,96.177 327.1,97.427 
	328.35,98.427 329.85,99.177 331.1,99.927 332.85,100.427 334.6,100.677 336.35,100.927 336.35,100.927 337.85,100.677 
	339.35,100.427 342.1,99.677 344.6,98.427 346.6,97.177 348.35,100.927 348.35,100.927 346.35,102.177 343.85,103.177 
	342.1,103.677 340.1,104.177 337.85,104.427 335.1,104.427 335.1,104.427 "/>
<polygon fill="#005DAA" points="359.1,135.427 360.85,135.427 360.85,135.677 360.1,135.677 360.1,137.677 359.6,137.677 
	359.6,135.677 359.1,135.677 359.1,135.427 "/>
<polygon fill="#005DAA" points="362.85,137.677 362.85,136.427 362.85,136.427 362.85,135.927 362.85,135.927 362.1,137.677 
	361.85,137.677 361.35,135.927 361.35,135.927 361.35,135.927 361.35,136.427 361.35,137.677 361.1,137.677 361.1,135.427 
	361.35,135.427 362.1,137.427 362.1,137.427 362.6,135.427 363.1,135.427 363.1,137.677 362.85,137.677 "/>
<polygon fill="#005DAA" points="218.35,137.927 218.1,137.677 218.1,137.677 218.1,137.677 218.1,137.677 217.6,137.427 
	216.6,137.177 216.6,137.177 215.85,137.177 215.35,137.427 214.85,137.927 214.6,138.427 214.6,138.427 214.85,139.177 
	215.35,139.677 215.85,139.927 216.6,139.927 216.6,139.927 217.6,139.677 218.1,139.677 218.1,139.427 218.1,139.427 
	218.1,139.177 218.35,139.177 219.35,140.677 219.1,140.677 219.1,140.677 219.1,140.677 219.1,140.677 218.1,140.927 
	217.35,141.177 216.35,141.177 216.35,141.177 215.1,141.177 214.1,140.677 213.35,139.677 213.1,139.177 213.1,138.427 
	213.1,138.427 213.1,137.927 213.35,137.427 214.1,136.427 215.1,135.927 216.35,135.927 216.35,135.927 218.1,135.927 
	218.1,135.927 218.85,136.177 218.85,136.177 219.1,136.177 219.1,136.177 218.35,137.927 "/>
<polygon fill="#005DAA" points="226.35,140.177 226.35,140.177 226.6,140.177 226.6,139.927 226.85,139.927 226.85,141.427 
	226.6,141.427 226.6,141.427 226.6,141.177 226.35,141.177 221.85,141.177 221.85,141.177 221.85,141.177 222.1,140.927 
	222.1,140.927 222.1,137.177 222.1,137.177 222.1,136.927 221.85,136.927 221.85,136.677 226.35,136.677 226.35,136.677 
	226.6,136.677 226.6,136.427 226.85,136.427 226.85,137.927 226.6,137.927 226.6,137.927 226.6,137.677 226.35,137.677 
	223.6,137.677 223.6,138.427 225.35,138.427 225.35,138.427 225.6,138.427 225.6,138.177 225.6,138.177 225.6,139.427 
	225.6,139.427 225.6,139.427 225.6,139.427 225.35,139.177 223.6,139.177 223.6,140.177 226.35,140.177 "/>
<polygon fill="#005DAA" points="234.6,140.927 234.6,140.927 234.85,140.927 235.1,141.177 235.1,141.177 233.1,141.177 
	233.1,141.177 233.1,141.177 233.35,140.927 233.35,140.927 233.35,140.927 232.6,139.927 231.1,138.177 230.85,138.177 
	230.85,140.927 230.85,140.927 231.1,140.927 231.35,141.177 231.35,141.177 229.6,141.177 229.6,141.177 229.6,141.177 
	229.6,140.927 229.85,140.927 229.85,137.177 229.85,137.177 229.6,136.927 229.6,136.927 229.6,136.677 231.85,136.677 
	231.85,136.927 231.85,136.927 231.85,136.927 231.6,137.177 231.6,137.177 233.6,138.927 233.6,137.177 233.6,137.177 
	233.35,136.927 233.1,136.927 233.1,136.677 235.1,136.677 235.1,136.927 235.1,136.927 234.85,136.927 234.6,137.177 
	234.6,140.927 "/>
<polygon fill="#005DAA" points="242.1,136.677 242.1,136.677 242.1,136.677 242.1,136.427 242.35,136.427 242.35,137.927 
	242.1,137.927 242.1,137.927 242.1,137.927 242.1,137.677 240.6,137.677 240.6,140.927 240.6,140.927 240.6,140.927 240.85,141.177 
	240.85,141.177 238.85,141.177 238.85,141.177 238.85,141.177 239.1,140.927 239.1,140.927 239.1,137.677 237.85,137.677 
	237.85,137.677 237.6,137.927 237.6,137.927 237.35,137.927 237.35,136.427 237.6,136.427 237.6,136.427 237.6,136.677 
	237.85,136.677 242.1,136.677 "/>
<polygon fill="#005DAA" points="249.35,140.177 249.35,140.177 249.35,140.177 249.6,139.927 249.6,139.927 249.6,141.427 
	249.6,141.427 249.6,141.427 249.35,141.177 249.35,141.177 244.85,141.177 244.85,141.177 244.85,141.177 244.85,140.927 
	245.1,140.927 245.1,137.177 245.1,137.177 244.85,136.927 244.85,136.927 244.85,136.677 249.35,136.677 249.35,136.677 
	249.35,136.677 249.6,136.427 249.6,136.427 249.6,137.927 249.6,137.927 249.6,137.927 249.35,137.677 249.35,137.677 
	246.35,137.677 246.35,138.427 248.35,138.427 248.35,138.427 248.35,138.427 248.35,138.177 248.6,138.177 248.6,139.427 
	248.35,139.427 248.35,139.427 248.35,139.427 248.35,139.177 246.35,139.177 246.35,140.177 249.35,140.177 "/>
<path fill="#005DAA" d="M254.1,137.677h1.25l0,0h0.5l0.25,0.5l0,0l-0.25,0.25l-0.5,0.25h-1.25V137.677L254.1,137.677z
	 M252.85,140.927L252.85,140.927h-0.25v0.25l0,0h1.75l0,0l0,0l-0.25-0.25l0,0v-1.5h0.75l0,0l1,1.5l0,0l-0.25,0.25l0,0h2l0,0l0,0
	l-0.5-0.25l-0.75-1.5l0,0l0.75-0.5l0.25-0.25v-0.5l0,0v-0.75l-0.5-0.25l-0.5-0.25l-0.5-0.25h-3.25v0.25l0,0l0,0l0.25,0.25V140.927
	L252.85,140.927z"/>
<polygon fill="#005DAA" points="260.35,139.677 260.35,139.677 260.35,139.677 260.35,139.927 260.35,139.927 260.6,139.927 
	261.1,140.177 262.35,140.427 262.35,140.427 262.85,140.177 263.1,140.177 263.35,139.927 263.35,139.927 263.1,139.677 
	262.6,139.427 261.6,139.427 260.35,139.177 260.1,138.677 259.85,138.177 259.85,138.177 260.1,137.677 260.35,137.177 
	261.1,136.927 262.1,136.677 262.1,136.677 263.35,136.927 264.1,136.927 264.1,136.927 264.35,136.927 264.6,136.927 
	263.85,138.177 263.85,138.177 263.85,138.177 263.85,137.927 263.85,137.927 263.35,137.677 262.35,137.677 262.35,137.677 
	261.85,137.677 261.35,137.677 261.35,137.927 261.35,137.927 261.35,138.177 261.85,138.427 262.85,138.427 264.1,138.927 
	264.35,139.177 264.6,139.677 264.6,139.677 264.35,140.427 264.1,140.677 263.35,141.177 262.35,141.177 262.35,141.177 
	260.85,141.177 260.1,140.927 260.1,140.927 259.85,140.927 259.85,140.927 260.35,139.677 "/>
<polygon fill="#005DAA" points="276.6,137.177 276.6,137.177 276.35,136.927 276.35,136.927 276.35,136.677 280.6,136.677 
	280.6,136.677 280.85,136.677 280.85,136.427 280.85,136.427 280.85,137.927 280.85,137.927 280.85,137.927 280.85,137.677 
	280.6,137.677 277.85,137.677 277.85,138.677 279.85,138.677 279.85,138.677 279.85,138.677 279.85,138.427 280.1,138.427 
	280.1,139.677 279.85,139.677 279.85,139.677 279.85,139.427 279.85,139.427 277.85,139.427 277.85,140.927 277.85,140.927 
	277.85,140.927 278.1,141.177 278.1,141.177 276.35,141.177 276.35,141.177 276.35,141.177 276.35,140.927 276.6,140.927 
	276.6,137.177 "/>
<path fill="#005DAA" d="M285.85,137.677L285.85,137.677l0.5,0.25l0.5,0.25l0.25,0.25v0.5l0,0v0.5l-0.25,0.5l-0.5,0.25h-0.5l0,0h-0.5
	l-0.5-0.25l-0.25-0.5l-0.25-0.5l0,0l0.25-0.5l0.25-0.25l0.5-0.25L285.85,137.677L285.85,137.677L285.85,137.677z M285.85,136.677
	L285.85,136.677l-1,0.25l-1,0.25l-0.5,0.75l-0.25,1l0,0l0.25,1l0.5,0.75l1,0.5h1l0,0h0.75l1-0.5l0.5-0.75l0.25-1l0,0l-0.25-1
	l-0.5-0.75l-1-0.25L285.85,136.677L285.85,136.677L285.85,136.677z"/>
<path fill="#005DAA" d="M292.6,137.677h1.25l0,0h0.75v0.5l0,0v0.25l-0.75,0.25h-1.25V137.677L292.6,137.677z M291.35,140.927
	L291.35,140.927h-0.25v0.25l0,0h1.75l0,0l0,0l-0.25-0.25l0,0v-1.5h1l0,0l0.75,1.5l0,0l-0.25,0.25l0,0h2l0,0l0,0l-0.5-0.25l-0.75-1.5
	l0,0l0.75-0.5l0.25-0.25v-0.5l0,0v-0.75l-0.25-0.25l-0.75-0.25l-0.5-0.25h-3.25v0.25l0,0l0,0l0.25,0.25V140.927L291.35,140.927z"/>
<path fill="#005DAA" d="M309.6,137.177h1.25l0,0h0.75l0.5,0.25l0.25,0.5v0.5l0,0v0.75l-0.25,0.5l-0.5,0.25h-0.75h-1.25V137.177
	L309.6,137.177z M308.1,140.927L308.1,140.927L308.1,140.927l-0.25,0.25l0,0h3.25l0,0l1.25-0.25l1-0.5l0.5-1v-1l0,0v-1l-0.5-0.75
	l-1-0.5l-1-0.25h-3.5l0,0l0,0l0.25,0.25l0,0V140.927L308.1,140.927z"/>
<polygon fill="#005DAA" points="318.6,136.677 318.6,136.927 318.6,136.927 318.35,136.927 318.1,137.177 318.1,140.927 
	318.1,140.927 318.35,140.927 318.6,141.177 318.6,141.177 316.6,141.177 316.6,141.177 316.6,141.177 316.85,140.927 
	316.85,140.927 316.85,137.177 316.85,137.177 316.85,136.927 316.6,136.927 316.6,136.677 318.6,136.677 "/>
<polygon fill="#005DAA" points="321.6,139.677 321.6,139.677 321.6,139.677 321.6,139.927 321.6,139.927 321.85,139.927 
	322.35,140.177 323.6,140.427 323.6,140.427 324.1,140.177 324.35,140.177 324.6,139.927 324.6,139.927 324.35,139.677 
	323.85,139.427 322.85,139.427 321.6,139.177 321.35,138.677 321.1,138.177 321.1,138.177 321.35,137.677 321.6,137.177 
	322.35,136.927 323.35,136.677 323.35,136.677 324.6,136.927 325.35,136.927 325.35,136.927 325.6,136.927 325.85,136.927 
	325.1,138.177 325.1,138.177 325.1,138.177 325.1,137.927 325.1,137.927 324.6,137.677 323.6,137.677 323.6,137.677 323.1,137.677 
	322.6,137.677 322.6,137.927 322.6,137.927 322.6,138.177 323.1,138.427 324.1,138.427 325.35,138.927 325.6,139.177 
	325.85,139.677 325.85,139.677 325.6,140.427 325.35,140.677 324.6,141.177 323.6,141.177 323.6,141.177 322.1,141.177 
	321.35,140.927 321.35,140.927 321.1,140.927 321.1,140.927 321.6,139.677 "/>
<polygon fill="#005DAA" points="332.85,140.177 332.85,140.177 333.1,140.177 333.1,139.927 333.35,139.927 333.35,141.427 
	333.1,141.427 333.1,141.427 333.1,141.177 332.85,141.177 328.35,141.177 328.35,141.177 328.35,141.177 328.6,140.927 
	328.6,140.927 328.6,137.177 328.6,137.177 328.6,136.927 328.35,136.927 328.35,136.677 332.85,136.677 332.85,136.677 
	333.1,136.677 333.1,136.427 333.35,136.427 333.35,137.927 333.1,137.927 333.1,137.927 333.1,137.677 332.85,137.677 
	330.1,137.677 330.1,138.427 331.85,138.427 331.85,138.427 332.1,138.427 332.1,138.177 332.1,138.177 332.1,139.427 
	332.1,139.427 332.1,139.427 332.1,139.427 331.85,139.177 330.1,139.177 330.1,140.177 332.85,140.177 "/>
<path fill="#005DAA" d="M337.85,139.677l0.75-1.75l0.75,1.75H337.85L337.85,139.677z M341.6,141.177L341.6,141.177L341.6,141.177
	l-0.25-0.25l0,0l-1.75-4l0,0l0,0v-0.25h-2v0.25l0,0h0.25l0,0l-1.75,4l0,0l-0.25,0.25l0,0h1.5l0,0l0,0l-0.25-0.25l0,0l0.25-0.75h2.5
	l0,0l0.25,0.75l0,0l-0.25,0.25l0,0H341.6L341.6,141.177z"/>
<polygon fill="#005DAA" points="344.35,139.677 344.6,139.677 344.6,139.677 344.6,139.927 344.6,139.927 344.6,139.927 
	345.1,140.177 346.6,140.427 346.6,140.427 347.1,140.177 347.35,140.177 347.35,139.927 347.35,139.927 347.35,139.677 
	346.85,139.427 345.85,139.427 344.6,139.177 344.35,138.677 344.1,138.177 344.1,138.177 344.35,137.677 344.6,137.177 
	345.35,136.927 346.35,136.677 346.35,136.677 347.6,136.927 348.35,136.927 348.35,136.927 348.6,136.927 348.6,136.927 
	348.1,138.177 347.85,138.177 347.85,138.177 347.85,137.927 347.85,137.927 347.6,137.677 346.6,137.677 346.6,137.677 
	345.85,137.677 345.6,137.677 345.35,137.927 345.35,137.927 345.6,138.177 345.85,138.427 347.1,138.427 348.1,138.927 
	348.6,139.177 348.6,139.677 348.6,139.677 348.6,140.427 348.1,140.677 347.6,141.177 346.6,141.177 346.6,141.177 345.1,141.177 
	344.35,140.927 344.35,140.927 344.1,140.927 344.1,140.927 344.35,139.677 "/>
<polygon fill="#005DAA" points="355.85,140.177 355.85,140.177 355.85,140.177 356.1,139.927 356.1,139.927 356.1,141.427 
	356.1,141.427 356.1,141.427 355.85,141.177 355.85,141.177 351.35,141.177 351.35,141.177 351.35,141.177 351.6,140.927 
	351.6,140.927 351.6,137.177 351.6,137.177 351.6,136.927 351.35,136.927 351.35,136.677 355.85,136.677 355.85,136.677 
	356.1,136.677 356.1,136.427 356.1,136.427 356.1,137.927 356.1,137.927 356.1,137.927 356.1,137.677 355.85,137.677 
	352.85,137.677 352.85,138.427 354.85,138.427 354.85,138.427 354.85,138.427 355.1,138.177 355.1,138.177 355.1,139.427 
	355.1,139.427 355.1,139.427 354.85,139.427 354.85,139.177 352.85,139.177 352.85,140.177 355.85,140.177 "/>
<polygon fill="#005DAA" points="218.1,147.927 218.1,147.927 218.1,147.927 218.1,147.677 218.1,147.677 217.6,147.427 
	216.35,147.177 216.35,147.177 215.85,147.177 215.1,147.427 214.6,147.927 214.6,148.677 214.6,148.677 214.6,149.177 
	215.1,149.677 215.85,149.927 216.35,149.927 216.35,149.927 217.35,149.677 217.85,149.677 218.1,149.427 218.1,149.427 
	218.1,149.177 218.1,149.177 219.1,150.677 219.1,150.927 219.1,150.927 218.85,150.677 218.85,150.677 218.1,150.927 
	217.35,151.177 216.35,151.427 216.35,151.427 215.1,151.177 214.1,150.677 213.35,149.677 213.1,149.177 212.85,148.677 
	212.85,148.677 213.1,147.927 213.35,147.427 214.1,146.677 215.1,146.177 216.35,145.927 216.35,145.927 218.1,146.177 
	218.1,146.177 218.85,146.177 218.85,146.177 218.85,146.177 219.1,146.177 218.1,147.927 "/>
<path fill="#005DAA" d="M223.35,147.927L223.35,147.927h0.75l0.25,0.25l0.25,0.25l0.25,0.5l0,0l-0.25,0.5l-0.25,0.5l-0.25,0.25
	h-0.75l0,0h-0.5l-0.25-0.25l-0.5-0.5v-0.5l0,0v-0.5l0.5-0.25l0.25-0.25H223.35L223.35,147.927L223.35,147.927z M223.35,146.677
	L223.35,146.677l-0.75,0.25l-1,0.25l-0.5,0.75l-0.25,1l0,0l0.25,1.25l0.5,0.5l1,0.5l0.75,0.25l0,0l1-0.25l1-0.5l0.5-0.5l0.25-1.25
	l0,0l-0.25-1l-0.5-0.75l-1-0.25L223.35,146.677L223.35,146.677L223.35,146.677z"/>
<polygon fill="#005DAA" points="233.1,150.927 233.1,150.927 233.1,151.177 233.35,151.177 233.35,151.177 231.6,151.177 
	231.6,151.177 231.6,151.177 231.6,151.177 231.85,150.927 231.85,150.927 231.1,149.927 229.35,148.177 229.35,148.427 
	229.35,150.927 229.35,150.927 229.35,151.177 229.6,151.177 229.6,151.177 227.85,151.177 227.85,151.177 227.85,151.177 
	228.1,151.177 228.1,150.927 228.1,147.177 228.1,147.177 228.1,146.927 227.85,146.927 227.85,146.927 230.35,146.927 
	230.35,146.927 230.35,146.927 230.1,146.927 230.1,147.177 230.1,147.177 231.85,149.177 231.85,147.177 231.85,147.177 
	231.85,146.927 231.6,146.927 231.6,146.927 233.35,146.927 233.35,146.927 233.35,146.927 233.1,146.927 233.1,147.177 
	233.1,150.927 "/>
<polygon fill="#005DAA" points="239.6,146.927 239.6,146.927 239.85,146.677 239.85,146.677 240.1,146.677 240.1,148.177 
	239.85,148.177 239.85,148.177 239.85,147.927 239.6,147.927 238.35,147.927 238.35,150.927 238.35,150.927 238.35,151.177 
	238.35,151.177 238.35,151.177 236.6,151.177 236.6,151.177 236.6,151.177 236.85,151.177 236.85,150.927 236.85,147.927 
	235.35,147.927 235.35,147.927 235.35,147.927 235.35,148.177 235.1,148.177 235.1,146.677 235.35,146.677 235.35,146.677 
	235.35,146.677 235.35,146.927 239.6,146.927 "/>
<path fill="#005DAA" d="M243.35,147.677h1.25l0,0l0.75,0.25v0.25l0,0v0.5h-0.5h-1.5V147.677L243.35,147.677z M242.1,150.927
	L242.1,150.927v0.25h-0.25l0,0h1.75l0,0l0,0h-0.25v-0.25v-1.25h1l0,0l0.75,1.25l0,0l-0.25,0.25l0,0h2l0,0l0,0l-0.25-0.25l-1-1.25
	l0,0l0.75-0.5l0.25-0.5v-0.5l0,0v-0.5l-0.25-0.5l-0.5-0.25h-0.75h-3.25l0,0l0,0h0.25v0.25V150.927L242.1,150.927z"/>
<path fill="#005DAA" d="M251.1,147.927L251.1,147.927h0.5l0.5,0.25l0.25,0.25l0.25,0.5l0,0l-0.25,0.5l-0.25,0.5l-0.5,0.25h-0.5l0,0
	h-0.5l-0.5-0.25l-0.25-0.5v-0.5l0,0v-0.5l0.25-0.25l0.5-0.25H251.1L251.1,147.927L251.1,147.927z M251.1,146.677L251.1,146.677
	l-1,0.25l-0.75,0.25l-0.75,0.75l-0.25,1l0,0l0.25,1.25l0.75,0.5l0.75,0.5l1,0.25l0,0l1-0.25l0.75-0.5l0.75-0.5l0.25-1.25l0,0
	l-0.25-1l-0.75-0.75l-0.75-0.25L251.1,146.677L251.1,146.677L251.1,146.677z"/>
<polygon fill="#005DAA" points="255.85,147.177 255.85,147.177 255.85,146.927 255.6,146.927 255.6,146.927 257.35,146.927 
	257.35,146.927 257.35,146.927 257.35,146.927 257.1,147.177 257.1,150.177 259.85,150.177 259.85,150.177 260.1,150.177 
	260.1,149.927 260.1,149.927 260.1,151.427 260.1,151.427 260.1,151.427 260.1,151.177 259.85,151.177 255.6,151.177 255.6,151.177 
	255.6,151.177 255.85,151.177 255.85,150.927 255.85,147.177 "/>
<path fill="#005DAA" d="M267.6,149.677l0.75-1.75l0.75,1.75H267.6L267.6,149.677z M271.35,151.177L271.35,151.177L271.35,151.177
	l-0.25-0.25l0,0l-1.75-4l0,0l0,0l0,0h-2l0,0l0,0h0.25l0,0l-1.75,4l0,0l-0.25,0.25l0,0h1.5l0,0l0,0l-0.25-0.25l0,0l0.25-0.5h2.5l0,0
	l0.25,0.5l0,0l-0.25,0.25l0,0H271.35L271.35,151.177z"/>
<polygon fill="#005DAA" points="278.35,150.927 278.35,150.927 278.6,151.177 278.6,151.177 278.6,151.177 276.85,151.177 
	276.85,151.177 276.85,151.177 277.1,151.177 277.1,150.927 277.1,150.927 276.35,149.927 274.6,148.177 274.6,148.427 
	274.6,150.927 274.6,150.927 274.85,151.177 274.85,151.177 274.85,151.177 273.35,151.177 273.35,151.177 273.35,151.177 
	273.35,151.177 273.6,150.927 273.6,147.177 273.6,147.177 273.35,146.927 273.35,146.927 273.35,146.927 275.6,146.927 
	275.6,146.927 275.6,146.927 275.6,146.927 275.35,147.177 275.35,147.177 277.35,149.177 277.35,147.177 277.35,147.177 
	277.1,146.927 276.85,146.927 276.85,146.927 278.6,146.927 278.6,146.927 278.6,146.927 278.6,146.927 278.35,147.177 
	278.35,150.927 "/>
<path fill="#005DAA" d="M282.35,147.677h0.75l0,0l0.5,0.25l0.5,0.25l0.25,0.25l0.25,0.5l0,0l-0.25,0.75l-0.25,0.25l-0.5,0.25h-0.5
	h-0.75V147.677L282.35,147.677z M280.85,150.927L280.85,150.927v0.25h-0.25l0,0h3l0,0h1l0.75-0.5l0.25-0.75l0.25-1l0,0l-0.25-0.75
	l-0.25-0.75l-0.75-0.5h-1h-3l0,0l0,0h0.25v0.25V150.927L280.85,150.927z"/>
<path fill="#005DAA" d="M293.35,147.177h1.5l0,0h0.75l0.25,0.5l0,0l-0.25,0.5h-0.75h-1.5V147.177L293.35,147.177z M293.35,149.177h2
	l0,0h0.75l0.5-0.5l0.5-0.5v-0.5l0,0v-0.75l-0.5-0.5l-0.5-0.25l-0.75-0.25h-3.75v0.25l0,0h0.25l0,0v4.75l0,0v0.25h-0.25l0,0h2l0,0
	l0,0l0,0l-0.25-0.25V149.177L293.35,149.177z"/>
<path fill="#005DAA" d="M300.6,147.677h1.25l0,0l0.5,0.25l0.25,0.25l0,0l-0.25,0.5h-0.5h-1.25V147.677L300.6,147.677z
	 M299.35,150.927L299.35,150.927l-0.25,0.25l0,0l0,0h1.75l0,0l0,0h-0.25v-0.25v-1.25h0.75l0,0l1,1.25l0,0l-0.25,0.25l0,0h2l0,0l0,0
	l-0.5-0.25l-0.75-1.25l0,0l0.75-0.5l0.25-0.5v-0.5l0,0v-0.5l-0.5-0.5l-0.5-0.25h-0.5h-3.25l0,0l0,0l0,0l0.25,0.25V150.927
	L299.35,150.927z"/>
<polygon fill="#005DAA" points="310.35,150.427 310.35,150.427 310.35,150.177 310.6,150.177 310.6,150.177 310.6,151.427 
	310.6,151.427 310.6,151.427 310.6,151.177 310.35,151.177 305.85,151.177 305.85,151.177 305.85,151.177 306.1,151.177 
	306.1,150.927 306.1,147.177 306.1,147.177 306.1,146.927 305.85,146.927 305.85,146.927 310.35,146.927 310.35,146.927 
	310.6,146.677 310.6,146.677 310.6,146.677 310.6,147.927 310.6,147.927 310.6,147.927 310.6,147.677 310.35,147.677 
	307.35,147.677 307.35,148.427 309.35,148.427 309.35,148.427 309.35,148.427 309.6,148.177 309.6,148.177 309.6,149.677 
	309.6,149.677 309.6,149.677 309.35,149.427 309.35,149.427 307.35,149.427 307.35,150.427 310.35,150.427 "/>
<polygon fill="#005DAA" points="312.35,146.927 314.35,146.927 314.35,146.927 314.35,146.927 314.1,146.927 314.1,146.927 
	314.85,149.677 314.85,149.677 314.85,149.677 316.1,146.927 316.1,146.927 315.85,146.927 315.85,146.927 317.35,146.927 
	317.35,146.927 317.35,146.927 317.1,147.177 317.1,147.177 315.6,150.927 315.6,150.927 315.85,151.177 315.85,151.177 
	313.85,151.177 313.85,151.177 313.85,151.177 313.85,150.927 313.85,150.927 313.35,148.927 312.6,146.927 312.6,146.927 
	312.35,146.927 312.35,146.927 "/>
<polygon fill="#005DAA" points="323.6,150.427 323.6,150.427 323.85,150.177 323.85,150.177 323.85,150.177 323.85,151.427 
	323.85,151.427 323.85,151.427 323.85,151.177 323.6,151.177 319.1,151.177 319.1,151.177 319.1,151.177 319.35,151.177 
	319.35,150.927 319.35,147.177 319.35,147.177 319.35,146.927 319.1,146.927 319.1,146.927 323.6,146.927 323.6,146.927 
	323.85,146.677 323.85,146.677 323.85,146.677 323.85,147.927 323.85,147.927 323.85,147.927 323.85,147.677 323.6,147.677 
	320.6,147.677 320.6,148.427 322.6,148.427 322.6,148.427 322.85,148.427 322.85,148.177 322.85,148.177 322.85,149.677 
	322.85,149.677 322.85,149.677 322.85,149.427 322.6,149.427 320.6,149.427 320.6,150.427 323.6,150.427 "/>
<polygon fill="#005DAA" points="331.1,150.927 331.1,150.927 331.35,151.177 331.6,151.177 331.6,151.177 329.6,151.177 
	329.6,151.177 329.6,151.177 329.85,151.177 329.85,150.927 329.85,150.927 329.1,149.927 327.6,148.177 327.6,148.427 
	327.6,150.927 327.6,150.927 327.6,151.177 327.85,151.177 327.85,151.177 326.1,151.177 326.1,151.177 326.1,151.177 
	326.1,151.177 326.35,150.927 326.35,147.177 326.35,147.177 326.1,146.927 326.1,146.927 326.1,146.927 328.35,146.927 
	328.35,146.927 328.35,146.927 328.35,146.927 328.1,147.177 328.1,147.177 330.1,149.177 330.1,147.177 330.1,147.177 
	329.85,146.927 329.85,146.927 329.85,146.927 331.6,146.927 331.6,146.927 331.6,146.927 331.35,146.927 331.1,147.177 
	331.1,150.927 "/>
<polygon fill="#005DAA" points="337.85,146.927 337.85,146.927 337.85,146.677 337.85,146.677 338.1,146.677 338.1,148.177 
	337.85,148.177 337.85,148.177 337.85,147.927 337.85,147.927 336.35,147.927 336.35,150.927 336.35,150.927 336.35,151.177 
	336.6,151.177 336.6,151.177 334.85,151.177 334.85,151.177 334.85,151.177 334.85,151.177 335.1,150.927 335.1,147.927 
	333.6,147.927 333.6,147.927 333.35,147.927 333.35,148.177 333.35,148.177 333.35,146.677 333.35,146.677 333.35,146.677 
	333.35,146.677 333.6,146.927 337.85,146.927 "/>
<polygon fill="#005DAA" points="341.85,146.927 341.85,146.927 341.85,146.927 341.6,146.927 341.6,147.177 341.6,150.927 
	341.6,150.927 341.6,151.177 341.85,151.177 341.85,151.177 339.85,151.177 339.85,151.177 339.85,151.177 340.1,151.177 
	340.35,150.927 340.35,147.177 340.35,147.177 340.1,146.927 339.85,146.927 339.85,146.927 341.85,146.927 "/>
<path fill="#005DAA" d="M346.35,147.927L346.35,147.927h0.5l0.5,0.25l0.25,0.25l0.25,0.5l0,0l-0.25,0.5l-0.25,0.5l-0.5,0.25h-0.5
	l0,0h-0.5l-0.5-0.25l-0.25-0.5v-0.5l0,0v-0.5l0.25-0.25l0.5-0.25H346.35L346.35,147.927L346.35,147.927z M346.35,146.677
	L346.35,146.677l-1,0.25l-0.75,0.25l-0.75,0.75l-0.25,1l0,0l0.25,1.25l0.75,0.5l0.75,0.5l1,0.25l0,0l1-0.25l0.75-0.5l0.75-0.5
	l0.25-1.25l0,0l-0.25-1l-0.75-0.75l-0.75-0.25L346.35,146.677L346.35,146.677L346.35,146.677z"/>
<polygon fill="#005DAA" points="356.1,150.927 356.1,150.927 356.1,151.177 356.35,151.177 356.35,151.177 354.6,151.177 
	354.6,151.177 354.6,151.177 354.6,151.177 354.85,150.927 354.85,150.927 354.1,149.927 352.35,148.177 352.35,148.427 
	352.35,150.927 352.35,150.927 352.35,151.177 352.6,151.177 352.6,151.177 350.85,151.177 350.85,151.177 350.85,151.177 
	351.1,151.177 351.1,150.927 351.1,147.177 351.1,147.177 351.1,146.927 350.85,146.927 350.85,146.927 353.35,146.927 
	353.35,146.927 353.35,146.927 353.1,146.927 353.1,147.177 353.1,147.177 354.85,149.177 354.85,147.177 354.85,147.177 
	354.85,146.927 354.6,146.927 354.6,146.927 356.35,146.927 356.35,146.927 356.35,146.927 356.1,146.927 356.1,147.177 
	356.1,150.927 "/>
<g>
	<g>
		<g>
			<path fill="#005DAA" d="M154.243,29.607c0.276,5.912-4.412,9.566-7.958,13.042l-36.36,30.602
				c-3.27,3.042-7.992,5.558-9.832,10.118c-2.411,6.025-3.308,12.72-4.344,19.375c-0.59,4.8-5.073,8.969-9.243,10.73
				c-3.243,1.136-7.132,0.601-10.667,0.877l-12.679,0.083c-1.067,0.231-1.996,0.817-2.55,1.689l-0.474,1.255
				c-1.354,0.202-0.906-0.982-1.101-1.817c0.037-2.788,0.656-5.7,2.716-7.342c1.094-1.116,2.64-1.384,4.173-1.636l18.484-0.265
				c1.029-0.044,1.862-0.664,2.56-1.205l0.747-1.43c1.479-9.212,2.329-18.748,6.897-26.571c4.254-4.964,9.611-8.383,14.348-12.75
				c10.966-9.316,22.335-18.781,33.167-28.232c3.068-2.896,6.314-6.726,7.069-11.316l0.403-1.228
				C152.034,24.416,154.083,26.845,154.243,29.607z"/>
			<path fill="#005DAA" d="M164.902,39.995c0.545,5.744-3.963,8.469-7.554,12.018l-14.833,12.743l-26.374,22.398
				c-3.739,4.215-3.933,10.189-4.889,15.591c0.157,1.758,1.933,2.476,1.583,4.322l-3.666,6.61c0.201,2.631,3.419,1.104,4.46,2.754
				c0.03,0.948-0.601,2.127,0.149,2.916c0.512,0.906,2.631-0.307,1.522,1.142c-0.306,0.238-0.189,0.825-0.101,1.143
				c0.437,0.578,1.258,0.626,1.336,1.493c-0.396,1.101-0.396,2.638,0.262,3.59c4.576,4.994,12.451-1.188,17.221,3.501
				c1.202,1.06,1.173,3.042,0.852,4.526c-2.546,7.467-17.625,8.019-12.467,18.615c0.897,1.728,2.904,2.902,4.912,3.033
				c1.699,0.277,3.001-0.443,4.412-0.872c0.441,0,0.478,0.429,0.658,0.671v0.284c-4.36,3.105-9.982,7.67-15.774,4.359
				c-2.878-1.843-4.375-5.621-3.658-9.286c1.769-5.864,8.51-7.36,11.885-12.276c0.776-1.429,0.634-3.296-0.198-4.731
				c-1.072-1.923-3.565-2.438-5.745-2.83c-3.625-0.082-9.17,2.205-10.779-2.046c-0.474-1.619,1.175-4.486-1.418-4.856
				c-0.354-0.458-1.18-0.862-0.75-1.601c0.123-0.425,0.865-0.478,0.481-1.029c-0.515-0.149-1.201-0.03-1.616-0.474
				c-1.466-1.606,2.586-3.349-0.161-4.446c-1.388-0.191-3.277,0.84-4.172-0.747c-0.44-1.484,0.676-2.553,1.225-3.766
				c0.929-2.086,3.65-3.464,2.947-6.159l-1.347-2.279c0.399-5.338,1.303-10.549,2.643-15.579c1.81-5.588,7.203-8.704,11.334-12.545
				l22.119-18.699l15.661-13.784c2.718-2.515,5.084-5.355,4.99-9.17c0.833-0.28,1.385,0.717,2.109,1.03
				C163.462,37.05,164.582,38.109,164.902,39.995z"/>
			<path fill="#005DAA" d="M158.961,67.864c-2.911,4.643-7.786,8.144-12.116,11.817L129.84,93.936
				c-3.124,2.818-3.949,7.708-2.523,11.514c0.158,1.932-1.335,3.154-1.806,4.85c0.049,0.503,0.149,1.142,0.664,1.291
				c0.709,0.281,1.777-0.078,2.173,0.861c0.104,0.998-0.351,2.065,0.747,2.45c0.437,0.242,1.086-0.517,1.135,0.274
				c-0.272,0.438-0.463,0.859-0.389,1.415c0.552,0.99,1.769,0.445,2.269,1.266c0.217,1.146,0.217,2.632,1.508,3.108
				c4.412,0.737,7.756-2.246,11.731-3.108c6.299-1.971,12.392,0.497,18.016,2.169c2.799,0.5,5.913,0.335,8.705,0l0.194,0.183
				c-3.58,4.367-7.988,8.621-14.25,8.192c-6.57-0.246-10.81-6.374-17.86-5.195c-4.767,0.948-9.528,3.818-14.642,1.889
				c-1.307-1.061-1.852-2.948-1.345-4.814c-0.245-1.134-2.985-1.411-1.283-2.9c-0.523-0.343-1.418,0-1.703-0.788
				c-0.399-0.906,0.709-2.239-0.478-2.836c-1.061-0.157-2.43,0.434-3.221-0.463c-0.433-0.549-0.351-1.31-0.198-1.971
				c0.758-1.811,2.8-3.236,2.359-5.39c-1.37-1.295-0.915-3.479-0.746-5.281c0.781-4.173,1.102-8.577,4.986-11.343l20.909-17.673
				c4.405-4.203,9.85-6.927,13.033-12.466C159.473,61.445,160.259,65.121,158.961,67.864z"/>
			<path fill="#005DAA" d="M95.013,129.733c5.938,2.516,12.16,5.008,17.464,8.506c1.302,1.063,2.493,2.673,2.247,4.632
				c-1.814,7.518-12.28,8.319-10.742,17.181c0.474,3.3,2.631,6.186,5.86,7.088c1.463,0.422,3.423,0.422,4.882,0
				c0.247,0.579,1.262,1.127,0.112,1.522c-4.285,2.741-9.794,5.826-15.027,3.191c-2.557-1.18-4.06-3.945-4.725-6.609
				c-1.06-8.039,6.42-10.563,10.208-15.941c0.568-1.064,0.844-2.333,0.568-3.59c-0.731-1.498-1.792-2.423-3.225-3.309
				c-14.089-7.897-29.4-13.227-45.132-17.311c-2.609-0.246-6.655-1.769-8.391,1.262v0.145c-1.407,0.297-0.87-1.406-0.87-2.152
				c0.444-2.561,1.937-4.64,4.337-5.678c4.091-1.212,8.42,0.239,12.392,0.949C75.153,122.485,85.29,125.691,95.013,129.733z"/>
		</g>
		<g>
			<path fill="#005DAA" d="M91.632,162.619c-1.266,0.102-1.311,0.139-1.355,0.467c-0.052,0.396-0.03,1.333,0.012,3.133
				c0.049,1.786,0.056,2.725,0.108,3.13c0.059,0.315,0.116,0.352,1.378,0.407l0.007,0.497l-3.983,0.074
				c-1.634,0.04-2.407-0.302-3.168-1.007c-0.698-0.616-1.184-1.625-1.206-2.934c-0.03-2.046,1.203-4.113,4.379-4.182l3.803-0.07
				L91.632,162.619z M88.874,163.251c-0.008-0.464-0.09-0.497-0.852-0.493c-2.236,0.045-3.139,1.094-3.083,3.605
				c0.061,2.563,1.001,3.513,3.232,3.464c0.755-0.019,0.836-0.067,0.836-0.299L88.874,163.251z"/>
			<path fill="#005DAA" d="M82.7,162.735c-1.097-0.011-1.149,0.022-1.217,0.351c-0.075,0.385-0.171,1.307-0.314,3.133
				c-0.141,1.779-0.231,2.693-0.215,3.102c0.014,0.324,0.059,0.357,1.134,0.533l-0.037,0.496l-4.367-0.373
				c-0.665-0.06-1.33-0.049-1.817-0.004c0.026-0.571,0.026-1.903-0.026-2.231l0.514-0.042c0.188,1.531,0.418,1.721,2.043,1.844
				l1.041,0.09c0.134,0.012,0.208-0.045,0.231-0.213l0.227-2.649c0.012-0.154-0.019-0.201-0.361-0.239l-0.336-0.015
				c-1.246-0.123-1.351,0.078-1.538,0.884l-0.5-0.04c0.045-0.382,0.104-0.755,0.146-1.311c0.037-0.47,0.049-0.979,0.068-1.317
				l0.533,0.045c0,0.854,0.13,1.06,1.031,1.134l0.806,0.08c0.134,0.007,0.208-0.043,0.224-0.199l0.253-2.955
				c0.026-0.161-0.052-0.235-0.194-0.235l-1.97-0.176c-0.934-0.086-1.209,0.156-1.496,0.899l-0.333,0.777l-0.522-0.192
				c0.213-0.625,0.44-1.705,0.508-2.213l6.52,0.557L82.7,162.735z"/>
			<path fill="#005DAA" d="M75.205,162.101c-1.187-0.133-1.253-0.119-1.354,0.18c-0.116,0.384-0.295,1.313-0.624,3.079
				c-0.325,1.78-0.497,2.69-0.522,3.094c0,0.311,0.045,0.358,1.199,0.673l-0.086,0.478l-4.206-0.776
				c-0.87-0.165-1.498-0.505-1.904-1.008c-0.358-0.419-0.511-0.959-0.415-1.556c0.321-1.609,1.829-2.036,3.874-1.659
				c0.307,0.061,0.635,0.149,0.807,0.173l0.496-2.74c0.064-0.313-0.045-0.368-1.347-0.701l0.075-0.482l4.09,0.759L75.205,162.101z
				 M71.869,165.337c-0.201-0.052-0.359-0.093-0.545-0.123c-1.15-0.198-2.244-0.198-2.531,1.329
				c-0.269,1.434,0.627,1.813,1.873,2.052c0.531,0.094,0.58,0.031,0.635-0.179L71.869,165.337z"/>
			<path fill="#005DAA" d="M68.987,161.021c-0.915-0.189-1.142,0.049-1.777,0.886l-3.299,4.33c-0.552,0.728-0.694,0.917-0.925,1.302
				l-0.597-0.176c0.045-0.358,0-1.046-0.038-1.441l-0.701-6.053c-0.078-0.813-0.13-0.963-1.075-1.21l0.142-0.487l3.833,1.092
				l-0.142,0.463c-1.13-0.272-1.254-0.184-1.332,0.098c-0.064,0.231,0.066,1.619,0.085,1.762c0.026,0.063,0.071,0.104,0.123,0.135
				c0.283,0.104,0.844,0.291,1.956,0.604c0.717,0.201,0.761,0.156,0.929-0.045c0.467-0.611,0.81-1.161,0.847-1.266
				c0.097-0.355-0.007-0.46-1.056-0.847l0.146-0.476l3.004,0.86L68.987,161.021z M63.388,162.398c-0.089-0.028-0.138,0-0.142,0.031
				c-0.014,0.052-0.011,0.189-0.011,0.268l0.292,3.11l1.921-2.557c0.042-0.071,0.094-0.115,0.104-0.165
				c0.008-0.052-0.022-0.078-0.104-0.111L63.388,162.398z"/>
			<path fill="#005DAA" d="M60.313,158.548c-1.094-0.358-1.165-0.351-1.314-0.07c-0.216,0.346-0.548,1.201-1.231,2.869
				c-0.694,1.68-1.037,2.535-1.142,2.923c-0.097,0.307-0.038,0.369,0.971,0.885l-0.187,0.455l-3.994-1.635
				c-0.829-0.348-1.217-0.638-1.508-1.109c-0.31-0.467-0.358-1.052-0.082-1.694c0.635-1.59,2.478-1.161,2.516-1.253
				c0.019-0.049,0.019-0.146-0.03-0.321l-0.769-3.023c-0.187-0.772-0.261-0.911-0.761-1.127l0.172-0.455l1.78,0.738l0.922,4.33
				c0.045,0.142,0.104,0.197,0.552,0.365c0.418,0.176,0.455,0.183,0.5,0.078c0.795-1.94,0.911-2.246,0.993-2.561
				c0.097-0.298,0.048-0.368-0.97-0.873l0.19-0.455l3.58,1.471L60.313,158.548z M56.342,161.398c0.07-0.196,0.07-0.264-0.594-0.545
				c-1.59-0.652-2.284,0.136-2.527,0.747c-0.366,0.874,0.052,1.763,1.187,2.24c0.75,0.302,0.802,0.298,0.918,0.018L56.342,161.398z"
				/>
			<path fill="#005DAA" d="M52.09,155.039c-1.15-0.512-1.228-0.512-1.418-0.247c-0.123,0.199-0.332,0.558-0.653,1.154l-2.471,4.758
				l1.183,0.623c0.354,0.185,0.661-0.036,1.698-1.019l0.433,0.351c-0.313,0.362-0.683,0.9-1.213,1.849
				c-0.19-0.149-0.369-0.261-0.571-0.399c-0.187-0.12-0.374-0.25-0.582-0.34l-3.561-1.851c-0.433-0.226-0.852-0.389-1.266-0.534
				c0.452-0.971,0.69-1.582,0.81-2.045l0.53,0.141c-0.202,1.427-0.209,1.811,0.145,1.997l1.184,0.609l2.485-4.756
				c0.31-0.608,0.485-0.985,0.583-1.206c0.089-0.309,0.052-0.364-1.012-1.012l0.22-0.439l3.703,1.918L52.09,155.039z"/>
			<path fill="#005DAA" d="M46.756,152.371c-1.082-0.647-1.157-0.647-1.373-0.422c-0.254,0.309-0.784,1.085-1.799,2.563
				c-1.015,1.486-1.534,2.259-1.739,2.605c-0.131,0.302-0.104,0.361,0.888,1.139l-0.276,0.402l-2.583-1.762
				c0.019-0.074,0.097-0.209,0.135-0.324l1.665-6.207l-0.022-0.015l-5.517,3.993l-2.561-1.739l0.298-0.422
				c1.083,0.649,1.15,0.665,1.359,0.422c0.253-0.311,0.798-1.085,1.803-2.578c1.019-1.475,1.556-2.251,1.732-2.61
				c0.161-0.275,0.124-0.342-0.87-1.123l0.261-0.411l3.359,2.296l-0.268,0.41c-1.057-0.618-1.158-0.618-1.314-0.38l-3.655,5.349
				l0.004,0.003l5.703-4.112c0.161-0.123,0.321-0.231,0.493-0.381l0.72,0.495c-0.045,0.098-0.123,0.281-0.168,0.476l-1.843,6.875
				l0.007,0.02l3.068-4.472c0.201-0.292,0.44-0.759,0.522-0.93c0.134-0.281,0.112-0.341-0.769-1.049l0.276-0.403l2.762,1.87
				L46.756,152.371z"/>
			<path fill="#005DAA" d="M37.776,146.07c-0.862-0.661-0.933-0.661-1.172-0.453c-0.313,0.266-0.91,0.976-2.09,2.33
				c-1.194,1.367-1.806,2.068-2.038,2.39c-0.172,0.269-0.157,0.32,0.616,1.105l-0.343,0.368l-3.296-2.893
				c-0.507-0.418-1.052-0.813-1.463-1.068c0.374-0.436,1.15-1.521,1.299-1.806l0.433,0.25c-0.746,1.362-0.657,1.643,0.568,2.717
				l0.784,0.684c0.119,0.094,0.193,0.082,0.321-0.034l1.739-1.996c0.104-0.12,0.119-0.191-0.157-0.406l-0.228-0.217
				c-0.952-0.836-1.153-0.738-1.773-0.198l-0.396-0.332c0.269-0.279,0.516-0.53,0.896-0.974c0.321-0.344,0.642-0.762,0.843-1.017
				l0.403,0.344c-0.515,0.684-0.53,0.93,0.164,1.53l0.59,0.542c0.112,0.081,0.202,0.104,0.306-0.026l1.956-2.225
				c0.112-0.115,0.089-0.22-0.008-0.325l-1.508-1.295c-0.698-0.623-1.06-0.583-1.732-0.163l-0.694,0.455l-0.328-0.486
				c0.53-0.389,1.358-1.119,1.725-1.485l4.916,4.308L37.776,146.07z"/>
			<path fill="#005DAA" d="M32.193,141.198c-0.821-0.761-0.896-0.779-1.15-0.6c-0.321,0.249-1.015,0.877-2.336,2.104
				c-1.314,1.221-2.008,1.867-2.262,2.168c-0.216,0.239-0.187,0.322,0.515,1.199l-0.358,0.324l-1.643-1.753
				c0.06-0.139,0.09-0.353,0.149-0.609l1.44-6.313l-0.015-0.014l-1.329,1.231c-1.31,1.231-2,1.855-2.262,2.169
				c-0.202,0.239-0.194,0.336,0.612,1.295l-0.365,0.335l-2.247-2.407l0.365-0.339c0.739,0.791,0.858,0.82,1.344,0.429
				c0.478-0.415,1.023-0.896,1.493-1.311c1.65-1.552,3.039-2.855,3.665-3.55l0.575,0.624c-0.343,0.975-0.56,1.747-0.769,2.803
				l-1.06,4.86l0.015,0.012l1.718-1.595c1.329-1.223,2.004-1.844,2.284-2.164c0.193-0.258,0.179-0.324-0.732-1.423l0.374-0.328
				l2.336,2.523L32.193,141.198z"/>
			<path fill="#005DAA" d="M25.332,133.507c-0.828-0.967-0.888-0.98-1.164-0.836c-0.209,0.128-0.553,0.357-1.098,0.765l-4.299,3.232
				l0.798,1.061c0.239,0.316,0.605,0.246,1.986-0.176l0.231,0.492c-0.44,0.194-1.012,0.527-1.896,1.128
				c-0.123-0.198-0.224-0.41-0.336-0.601c-0.123-0.187-0.254-0.386-0.388-0.564l-2.389-3.197c-0.313-0.404-0.616-0.737-0.93-1.031
				c0.84-0.675,1.333-1.13,1.635-1.485l0.399,0.355c-0.802,1.205-0.959,1.525-0.731,1.857l0.799,1.067l4.311-3.217
				c0.537-0.414,0.862-0.687,1.042-0.833c0.22-0.23,0.22-0.295-0.478-1.358l0.403-0.294l2.493,3.329L25.332,133.507z"/>
			<path fill="#005DAA" d="M10.769,125.377c-1.016-1.907-0.284-4.18,1.963-5.352c2.244-1.195,4.528-0.529,5.547,1.37
				c1,1.914,0.265,4.191-1.971,5.393C14.061,127.96,11.761,127.284,10.769,125.377z M17.771,121.668
				c-0.567-1.101-2.131-1.486-4.337-0.314c-2.198,1.165-2.762,2.659-2.176,3.771c0.586,1.093,2.139,1.474,4.341,0.31
				C17.808,124.276,18.36,122.769,17.771,121.668z"/>
			<path fill="#005DAA" d="M15.561,117.603c-0.478-0.971-0.519-1.007-0.836-0.922c-0.389,0.083-1.247,0.453-2.912,1.131
				c-1.683,0.665-2.538,1.019-2.904,1.229c-0.284,0.149-0.291,0.201,0.03,1.239l-0.433,0.175l-1.653-4.058
				c-0.25-0.618-0.571-1.221-0.803-1.63c0.5-0.214,1.706-0.825,1.967-1.022l0.269,0.418c-1.28,0.889-1.329,1.168-0.713,2.672
				l0.384,0.978c0.052,0.128,0.146,0.164,0.302,0.102l2.459-0.985c0.131-0.06,0.176-0.116,0.049-0.426l-0.123-0.321
				c-0.474-1.156-0.687-1.156-1.489-0.959l-0.198-0.475c0.355-0.137,0.706-0.25,1.221-0.467c0.462-0.179,0.925-0.372,1.22-0.503
				l0.198,0.474c-0.762,0.373-0.877,0.599-0.553,1.434l0.314,0.746c0.041,0.132,0.112,0.184,0.283,0.123l2.605-1.067
				c0.298-0.104,0.292-0.208-0.119-1.452l0.448-0.183l1.456,3.554L15.561,117.603z"/>
			<path fill="#005DAA" d="M11.851,107.843c-0.351-1.154-0.41-1.198-0.731-1.165c-0.38,0.049-1.295,0.257-3.053,0.665
				c-1.762,0.414-2.649,0.637-3.038,0.761c-0.299,0.116-0.329,0.187-0.108,1.367l-0.511,0.104l-0.915-3.919l0.485-0.127
				c0.347,1.149,0.396,1.212,0.721,1.16c0.231-0.011,0.921-0.163,1.471-0.283l0.747-0.175c0.351-0.082,0.373-0.124,0.306-0.426
				l-0.698-2.986c-0.071-0.287-0.13-0.306-0.459-0.228l-0.761,0.161c-0.53,0.146-1.209,0.31-1.437,0.384
				c-0.317,0.123-0.325,0.187-0.138,1.366l-0.47,0.112l-0.94-3.915l0.504-0.131c0.347,1.142,0.392,1.217,0.698,1.168
				c0.414-0.045,1.325-0.265,3.079-0.668c1.75-0.418,2.654-0.623,3.042-0.762c0.299-0.115,0.317-0.183,0.127-1.358l0.481-0.111
				l0.915,3.933l-0.485,0.116c-0.347-1.149-0.388-1.205-0.702-1.168c-0.336,0.029-1.269,0.242-2.601,0.563
				c-0.333,0.071-0.37,0.112-0.299,0.41l0.698,2.986c0.067,0.299,0.112,0.325,0.459,0.247c1.317-0.303,2.243-0.538,2.557-0.653
				c0.306-0.109,0.328-0.188,0.127-1.367l0.5-0.111l0.911,3.945L11.851,107.843z"/>
			<path fill="#005DAA" d="M9.761,98.564c-0.22-1.068-0.257-1.109-0.582-1.109c-0.404,0.012-1.325,0.108-3.113,0.314
				c-1.791,0.227-2.721,0.328-3.105,0.432c-0.307,0.067-0.347,0.12-0.284,1.214l-0.508,0.06l-0.526-4.353
				c-0.071-0.664-0.224-1.328-0.344-1.776c0.548-0.09,1.87-0.362,2.176-0.471l0.146,0.471c-1.466,0.512-1.598,0.758-1.392,2.378
				l0.116,1.049c0.019,0.142,0.105,0.201,0.269,0.187l2.635-0.325c0.168-0.022,0.198-0.048,0.168-0.392l-0.045-0.32
				c-0.149-1.255-0.365-1.325-1.202-1.341l-0.052-0.489c0.384-0.052,0.739-0.066,1.314-0.138c0.462-0.052,0.993-0.138,1.306-0.198
				l0.052,0.52c-0.833,0.183-1.008,0.369-0.903,1.254l0.101,0.803c0.019,0.146,0.071,0.201,0.235,0.193l2.934-0.357
				c0.157-0.016,0.227-0.09,0.217-0.235l-0.232-1.979c-0.12-0.925-0.396-1.127-1.194-1.283l-0.825-0.146l0.086-0.56
				c0.646,0.071,1.75,0.086,2.27,0.045l0.772,6.479L9.761,98.564z"/>
			<path fill="#005DAA" d="M8.865,91.42c-0.083-0.903-0.358-1.057-1.366-1.43l-5.076-1.911c-0.859-0.328-1.079-0.425-1.515-0.53
				L0.9,86.934c0.355-0.048,0.997-0.284,1.366-0.452l5.606-2.411c0.746-0.302,0.881-0.388,0.858-1.37l0.488-0.004l0.063,3.982h-0.5
				c-0.052-1.172-0.172-1.254-0.467-1.254c-0.242,0-1.526,0.522-1.653,0.601c-0.063,0.042-0.097,0.079-0.112,0.15
				c-0.015,0.287-0.026,0.876-0.015,2.056c0.015,0.731,0.074,0.765,0.324,0.862c0.713,0.279,1.348,0.443,1.456,0.443
				c0.347-0.015,0.438-0.133,0.5-1.242l0.485-0.008l0.063,3.12L8.865,91.42z M5.931,86.482c0-0.101-0.03-0.142-0.056-0.142
				c-0.071,0-0.191,0.048-0.266,0.075l-2.888,1.153l2.997,1.116c0.079,0.033,0.157,0.052,0.198,0.052c0.041,0,0.06-0.063,0.06-0.138
				L5.931,86.482z"/>
			<path fill="#005DAA" d="M8.783,82.421c0-1.112-0.018-1.187-0.343-1.231c-0.38-0.075-1.313-0.149-3.105-0.321
				c-1.792-0.157-2.721-0.231-3.135-0.224c-0.314,0-0.352,0.067-0.53,1.157l-0.508-0.037l0.336-3.729l0.481,0.03
				c-0.003,1.124,0.019,1.183,0.34,1.243c0.254,0.052,0.94,0.12,1.489,0.179l4.625,0.396c0.411,0.03,0.5-0.075,0.545-0.422
				l0.097-1.333c0.104-1.123-0.225-1.332-1.784-2.12l0.201-0.511c0.396,0.175,1.762,0.459,2.336,0.53l-0.552,6.423L8.783,82.421z"/>
			<path fill="#005DAA" d="M9.541,74.747c0.131-1.258,0.116-1.317-0.202-1.415c-0.227-0.071-0.631-0.16-1.302-0.28l-5.3-0.91
				l-0.201,1.321c-0.086,0.403,0.216,0.616,1.47,1.307l-0.198,0.522c-0.437-0.18-1.079-0.366-2.116-0.59
				c0.06-0.224,0.13-0.44,0.183-0.672c0.064-0.216,0.104-0.44,0.149-0.657l0.676-3.957c0.089-0.485,0.13-0.94,0.13-1.358
				c1.041,0.138,1.721,0.168,2.183,0.153l0.038,0.545c-1.422,0.25-1.784,0.336-1.855,0.728l-0.228,1.329l5.3,0.918
				c0.664,0.112,1.083,0.156,1.313,0.164c0.317,0.022,0.373-0.037,0.668-1.262l0.489,0.083l-0.728,4.105L9.541,74.747z"/>
			<path fill="#005DAA" d="M10.44,69.178c0.239-1.165,0.231-1.246-0.068-1.366c-0.373-0.157-1.269-0.41-2.997-0.91
				c-1.744-0.478-2.636-0.732-3.027-0.806c-0.329-0.045-0.37,0.007-0.784,1.134l-0.47-0.142l1.097-3.871l0.478,0.13
				c-0.247,1.165-0.224,1.247,0.07,1.359c0.228,0.101,0.892,0.306,1.43,0.462l0.747,0.213c0.313,0.094,0.373,0.071,0.466-0.22
				l0.833-2.949c0.071-0.299,0.053-0.344-0.284-0.437L7.17,61.564c-0.515-0.157-1.194-0.314-1.433-0.373
				c-0.321-0.053-0.384,0.018-0.784,1.138l-0.475-0.142l1.102-3.878l0.478,0.135c-0.239,1.179-0.228,1.247,0.067,1.366
				c0.384,0.149,1.276,0.404,3.004,0.9c1.739,0.482,2.624,0.735,3.034,0.81c0.306,0.045,0.355,0,0.769-1.127l0.475,0.127
				l-1.094,3.896l-0.489-0.142c0.25-1.157,0.228-1.247-0.063-1.358c-0.302-0.134-1.22-0.403-2.527-0.776
				c-0.332-0.09-0.385-0.057-0.474,0.209l-0.836,2.964c-0.082,0.287-0.052,0.335,0.291,0.44c1.307,0.358,2.225,0.605,2.553,0.672
				c0.306,0.052,0.362-0.015,0.776-1.127l0.463,0.127l-1.098,3.885L10.44,69.178z"/>
			<path fill="#005DAA" d="M18.062,48.922c0.112,0.731,0.075,1.407-0.18,1.918c-0.246,0.523-0.679,0.799-1.549,1.101
				c0.22,0.784,0.25,1.605-0.161,2.482c-0.69,1.456-2.127,1.75-3.217,1.221c-1.015-0.485-1.519-1.381-1.564-3.068
				c-1.243,0.104-1.668,0.071-2.053-0.112c-0.694-0.336-1.124-1.083-0.574-2.258c0.477-1,1.235-1.467,2.119-1.042
				c0.855,0.418,1.012,1.277,0.986,2.139c1.25-0.075,2.43-0.183,3.613-0.358c-0.258-0.675-0.758-1.377-1.127-1.545
				c-0.31-0.153-0.534-0.049-0.803,0.392l-0.433-0.216l1.139-2.43l0.467,0.206c-0.272,0.56-0.243,1.063,0.287,1.739
				c0.265,0.329,0.664,0.959,1.004,1.725c0.97-0.212,1.231-0.336,1.444-0.78c0.168-0.332,0.176-0.769,0.112-1.359L18.062,48.922z
				 M11.399,51.382c0.06-0.612-0.411-1.112-0.84-1.306c-0.403-0.194-1.008-0.216-1.247,0.28c-0.157,0.354-0.06,0.791,0.497,1.048
				C10.111,51.565,10.664,51.621,11.399,51.382z M15.71,53.528c0.194-0.362,0.217-0.862,0.108-1.437
				c-0.989,0.265-3.016,0.425-3.949,0.429c0.019,0.855,0.269,1.392,1.008,1.743C13.702,54.659,15.225,54.577,15.71,53.528z"/>
			<path fill="#005DAA" d="M20.032,45.444c0.624-1.022,0.631-1.094,0.389-1.321c-0.299-0.262-1.061-0.788-2.545-1.822
				c-1.456-1.038-2.236-1.568-2.576-1.758c-0.288-0.161-0.366-0.126-1.105,0.806l-0.411-0.291l2.314-3.3l0.4,0.276
				c-0.616,1.034-0.624,1.112-0.389,1.321c0.198,0.164,0.75,0.578,1.221,0.903l0.62,0.433c0.261,0.191,0.335,0.191,0.518-0.044
				l1.762-2.512c0.165-0.258,0.161-0.302-0.138-0.503L19.45,37.18c-0.437-0.325-1.022-0.69-1.246-0.825
				c-0.276-0.134-0.347-0.105-1.097,0.813l-0.396-0.276l2.302-3.299l0.418,0.269c-0.62,1.022-0.62,1.104-0.392,1.31
				c0.298,0.28,1.052,0.803,2.549,1.841c1.467,1.037,2.228,1.567,2.58,1.762c0.287,0.164,0.354,0.123,1.101-0.814l0.415,0.287
				l-2.311,3.307l-0.421-0.288c0.619-1.011,0.642-1.105,0.403-1.306c-0.265-0.202-1.038-0.769-2.165-1.556
				c-0.269-0.202-0.329-0.198-0.501,0.052l-1.762,2.512c-0.171,0.247-0.156,0.299,0.138,0.497c1.109,0.795,1.9,1.322,2.184,1.486
				c0.28,0.146,0.358,0.115,1.116-0.818l0.384,0.292l-2.314,3.307L20.032,45.444z"/>
			<path fill="#005DAA" d="M19.898,32.488l2.709-2.985l0.362,0.321c-0.735,0.94-0.757,1.008-0.556,1.269
				c0.276,0.284,0.959,0.918,3.15,2.885c0.694,0.624,1.948,1.385,3.165,0.063c1.366-1.53,0.792-2.403-0.985-4.023
				c-1.418-1.284-2.113-1.892-2.441-2.135c-0.253-0.172-0.325-0.164-1.231,0.724l-0.366-0.343l2.247-2.471l0.374,0.306
				c-0.739,0.948-0.761,1.026-0.552,1.276c0.276,0.284,0.963,0.911,2.836,2.613c1.359,1.217,2.456,2.546,0.463,4.74
				c-1.217,1.358-2.822,1.68-4.442,0.224c-2.157-1.941-2.844-2.568-3.173-2.792c-0.268-0.194-0.325-0.172-1.194,0.657L19.898,32.488
				z"/>
			<path fill="#005DAA" d="M31.469,30.966c0.918-0.881,0.925-0.956,0.753-1.217c-0.224-0.347-0.821-1.052-2-2.404
				c-1.187-1.374-1.784-2.079-2.09-2.348c-0.239-0.22-0.306-0.206-1.314,0.552l-0.321-0.373l2.385-2.057
				c0.056,0.06,0.161,0.149,0.272,0.217l5.562,3.213l0.03-0.019l-2.433-6.367l2.336-2l0.329,0.373
				c-0.903,0.884-0.948,0.963-0.754,1.225c0.224,0.328,0.828,1.03,2,2.404c1.187,1.362,1.792,2.075,2.098,2.343
				c0.224,0.224,0.291,0.209,1.314-0.563l0.321,0.376l-3.076,2.647l-0.336-0.37c0.873-0.858,0.896-0.956,0.716-1.172l-4.217-4.919
				l-0.03,0.026l2.523,6.543c0.067,0.194,0.134,0.396,0.239,0.582l-0.665,0.579c-0.089-0.086-0.261-0.183-0.425-0.284l-6.159-3.557
				l-0.034,0.019l3.535,4.09c0.247,0.288,0.627,0.639,0.761,0.758c0.254,0.209,0.303,0.194,1.217-0.47l0.321,0.357l-2.523,2.18
				L31.469,30.966z"/>
			<path fill="#005DAA" d="M40.158,23.635c0.724-0.548,0.702-0.873,0.492-1.911l-1.089-5.33c-0.171-0.892-0.224-1.124-0.354-1.568
				l0.5-0.306c0.265,0.268,0.791,0.679,1.12,0.899l5.02,3.467c0.665,0.471,0.807,0.534,1.62-0.007l0.272,0.414l-3.333,2.168
				l-0.284-0.425c0.97-0.672,0.993-0.806,0.814-1.056c-0.112-0.198-1.25-1.008-1.385-1.094c-0.063-0.022-0.108-0.022-0.175,0.008
				c-0.254,0.142-0.772,0.433-1.758,1.071c-0.615,0.393-0.604,0.475-0.571,0.743c0.172,0.754,0.329,1.359,0.411,1.463
				c0.194,0.299,0.343,0.299,1.313-0.253l0.269,0.44l-2.62,1.687L40.158,23.635z M42.793,18.537
				c0.082-0.063,0.097-0.112,0.074-0.142c-0.029-0.045-0.146-0.12-0.19-0.172l-2.52-1.836l0.635,3.139
				c0.029,0.086,0.037,0.138,0.067,0.183c0.022,0.044,0.097,0.022,0.142-0.022L42.793,18.537z"/>
			<path fill="#005DAA" d="M47.817,18.694c0.978-0.575,1.022-0.643,0.896-0.941c-0.127-0.373-0.545-1.206-1.351-2.829
				c-0.792-1.608-1.209-2.441-1.441-2.781c-0.164-0.272-0.246-0.272-1.276,0.153l-0.216-0.44l2.157-1.068
				c0.119,0.078,0.313,0.187,0.53,0.321l5.644,3.157l0.022-0.003l-0.806-1.624c-0.799-1.608-1.217-2.441-1.44-2.784
				c-0.157-0.276-0.239-0.276-1.415,0.216l-0.221-0.44l2.956-1.471l0.217,0.44c-0.975,0.485-1.026,0.597-0.776,1.187
				c0.246,0.553,0.541,1.225,0.821,1.781c1.012,2.026,1.862,3.729,2.363,4.531l-0.769,0.37c-0.825-0.62-1.516-1.034-2.467-1.526
				l-4.359-2.408l-0.026,0.022l1.056,2.105c0.798,1.604,1.22,2.448,1.429,2.788c0.175,0.265,0.25,0.265,1.556-0.287l0.217,0.44
				l-3.087,1.53L47.817,18.694z"/>
			<path fill="#005DAA" d="M60.033,10.855c0.766,1.217,1.646,1.93,2.833,1.564c1.232-0.373,1.624-1.276,1.411-1.974
				c-0.221-0.739-0.866-0.813-1.743-0.839l-0.959-0.026c-2.187-0.03-2.628-0.661-2.896-1.534c-0.44-1.444,0.452-2.77,2.166-3.296
				c0.851-0.276,1.623-0.366,2.262-0.403c0.037,0.126,0.082,0.328,0.141,0.496c0.172,0.526,0.355,1.06,0.586,1.594l-0.526,0.165
				c-0.612-1.318-1.43-1.586-2.501-1.258c-0.955,0.299-1.496,1.135-1.295,1.84c0.157,0.493,0.512,0.75,1.422,0.795l2.053,0.078
				c1.321,0.052,1.974,0.515,2.3,1.575c0.462,1.497-0.479,2.788-2.289,3.352c-0.817,0.253-1.766,0.175-2.561,0.411
				c-0.189-0.564-0.585-1.561-0.899-2.266L60.033,10.855z"/>
			<path fill="#005DAA" d="M66.479,11.191c1.037-0.298,1.075-0.351,1.06-0.656c-0.033-0.411-0.247-1.314-0.597-3.083
				c-0.361-1.765-0.556-2.672-0.686-3.057C66.15,4.088,66.091,4.07,65.023,4.2l-0.097-0.47l4.286-0.896
				c0.649-0.138,1.302-0.347,1.739-0.511c0.12,0.552,0.522,1.821,0.668,2.124l-0.467,0.168c-0.639-1.404-0.904-1.5-2.501-1.165
				l-1.03,0.209c-0.131,0.033-0.198,0.112-0.157,0.276l0.545,2.583c0.026,0.164,0.064,0.201,0.389,0.149l0.343-0.067
				c1.243-0.254,1.269-0.463,1.213-1.307l0.497-0.097c0.07,0.366,0.126,0.742,0.238,1.284c0.113,0.47,0.232,0.97,0.302,1.284
				l-0.497,0.112c-0.246-0.806-0.432-0.977-1.343-0.779l-0.783,0.145c-0.135,0.042-0.194,0.105-0.161,0.258l0.601,2.904
				c0.031,0.153,0.116,0.206,0.262,0.168l1.94-0.389c0.934-0.205,1.105-0.493,1.18-1.292l0.075-0.836l0.567,0.03
				c0,0.653,0.063,1.762,0.149,2.254l-6.401,1.344L66.479,11.191z"/>
			<path fill="#005DAA" d="M73.858,9.646c1.168-0.194,1.236-0.246,1.236-0.567c0.007-0.388-0.075-1.329-0.262-3.12
				c-0.172-1.795-0.261-2.709-0.347-3.113c-0.071-0.313-0.134-0.344-1.333-0.306L73.1,2.054l4.487-0.444
				c0.925-0.093,1.418-0.019,1.93,0.265c0.489,0.261,0.824,0.743,0.899,1.444c0.165,1.695-1.724,2.184-1.724,2.284
				c0.007,0.071,0.052,0.124,0.193,0.288l2.161,2.295c0.534,0.579,0.676,0.676,1.258,0.627l0.038,0.485L80.36,9.497L77.408,6.1
				c-0.101-0.104-0.188-0.112-0.694-0.075c-0.455,0.052-0.5,0.071-0.493,0.191c0.208,2.082,0.262,2.415,0.314,2.728
				c0.075,0.314,0.141,0.343,1.34,0.298l0.043,0.5l-4.015,0.388L73.858,9.646z M76.123,5.25c0.022,0.216,0.064,0.261,0.818,0.194
				c1.803-0.168,2.049-1.187,1.985-1.84c-0.108-0.959-0.906-1.534-2.184-1.415c-0.851,0.078-0.903,0.127-0.876,0.411L76.123,5.25z"
				/>
			<path fill="#005DAA" d="M80.789,1.29l3.987-0.063l0.011,0.492l-0.548,0.004c-0.545,0.018-0.649,0.187-0.649,0.369
				c0.014,0.247,0.613,1.755,1.224,3.308l0.888,2.198l0.889-2.359c0.493-1.34,1.082-2.9,1.082-3.229
				c0-0.317-0.186-0.329-1.224-0.317l-0.016-0.5l3.144-0.049l0.015,0.5h-0.34c-0.534,0.019-0.747,0.239-1.281,1.635
				c-1.792,4.699-1.986,5.24-2.165,6.255h-0.769c-0.111-0.806-2.157-5.487-2.762-6.737c-0.478-0.996-0.552-1.004-1.479-1.015
				L80.789,1.29z"/>
			<path fill="#005DAA" d="M89.837,8.934c1.261,0.011,1.335-0.016,1.396-0.329c0.071-0.396,0.149-1.321,0.287-3.113
				c0.154-1.799,0.229-2.721,0.217-3.131c-0.01-0.306-0.085-0.351-1.34-0.545l0.052-0.493l4.166,0.335l-0.052,0.497
				c-1.254-0.018-1.333,0.008-1.381,0.317c-0.093,0.403-0.172,1.321-0.306,3.128c-0.142,1.795-0.224,2.725-0.201,3.109
				c0,0.329,0.075,0.37,1.321,0.549l-0.03,0.5L89.792,9.43L89.837,8.934z"/>
			<path fill="#005DAA" d="M102.295,9.157c-1.194,1.153-2.269,1.683-3.881,1.433c-1.844-0.302-3.628-1.9-3.15-4.8
				c0.34-2.124,2.008-4.009,4.86-3.545c0.747,0.123,1.713,0.459,2.374,0.761c-0.074,0.634-0.09,1.705-0.067,2.243l-0.575,0.033
				c-0.184-1.422-0.769-2.299-2.076-2.512c-1.448-0.239-2.657,1-3.008,3.206c-0.377,2.333,0.671,3.721,2.015,3.93
				c1.232,0.194,2.239-0.276,3.049-1.15L102.295,9.157z"/>
			<path fill="#005DAA" d="M102.385,10.572c1.071,0.208,1.126,0.187,1.246-0.108c0.135-0.377,0.403-1.266,0.859-3.013
				c0.477-1.75,0.708-2.635,0.776-3.038c0.045-0.317,0-0.366-1.034-0.728l0.135-0.489l4.225,1.15
				c0.646,0.175,1.325,0.287,1.795,0.339c-0.134,0.549-0.361,1.867-0.38,2.191l-0.489-0.045c0.064-1.549-0.123-1.762-1.687-2.179
				l-1.016-0.269c-0.145-0.037-0.234,0.011-0.276,0.168l-0.686,2.564c-0.038,0.135-0.034,0.213,0.295,0.299l0.335,0.086
				c1.209,0.332,1.347,0.157,1.668-0.616l0.5,0.139c-0.115,0.373-0.238,0.705-0.376,1.261c-0.124,0.456-0.243,0.959-0.313,1.288
				l-0.508-0.126c0.158-0.844,0.067-1.083-0.821-1.311l-0.78-0.228c-0.123-0.03-0.22,0-0.266,0.164l-0.769,2.867
				c-0.03,0.149,0,0.224,0.149,0.265l1.927,0.516c0.903,0.253,1.201,0.048,1.63-0.616l0.437-0.717l0.478,0.299
				c-0.295,0.567-0.717,1.597-0.874,2.075l-6.323-1.706L102.385,10.572z"/>
			<path fill="#005DAA" d="M111.223,10.792c-0.149,1.429,0.112,2.53,1.284,2.975c1.198,0.456,2.061-0.022,2.314-0.706
				c0.283-0.72-0.188-1.176-0.859-1.728l-0.753-0.604c-1.703-1.366-1.668-2.124-1.347-2.986c0.542-1.415,2.063-1.918,3.739-1.284
				c0.833,0.295,1.508,0.702,2.02,1.042c-0.038,0.146-0.12,0.347-0.187,0.497c-0.198,0.53-0.339,1.056-0.515,1.616l-0.522-0.187
				c0.326-1.422-0.157-2.127-1.194-2.512c-0.955-0.362-1.896-0.045-2.149,0.664c-0.179,0.485-0.052,0.9,0.646,1.475l1.574,1.317
				c1.005,0.858,1.239,1.616,0.847,2.665c-0.552,1.486-2.083,1.919-3.859,1.254c-0.798-0.291-1.508-0.956-2.28-1.235
				c0.198-0.571,0.5-1.594,0.682-2.348L111.223,10.792z"/>
			<path fill="#005DAA" d="M120.636,12.419c0.415,0.194,0.574,0.68,0.376,1.09c-0.205,0.407-0.675,0.574-1.078,0.37
				c-0.411-0.19-0.582-0.665-0.373-1.068C119.733,12.393,120.229,12.221,120.636,12.419z"/>
			<path fill="#005DAA" d="M124.399,10.438l3.485,2.023l-0.26,0.422c-1.076-0.519-1.128-0.519-1.336-0.261
				c-0.24,0.325-0.702,1.123-2.199,3.662c-0.451,0.795-0.958,2.19,0.609,3.105c1.753,1.016,2.505,0.299,3.718-1.784
				c0.962-1.642,1.425-2.456,1.604-2.814c0.112-0.291,0.083-0.362-0.974-1.067l0.25-0.433l2.919,1.71l-0.262,0.415
				c-1.068-0.523-1.142-0.534-1.336-0.272c-0.25,0.328-0.717,1.115-1.997,3.303c-0.915,1.567-1.998,2.911-4.532,1.429
				c-1.586-0.918-2.227-2.422-1.139-4.3c1.472-2.508,1.934-3.318,2.091-3.688c0.146-0.298,0.089-0.354-0.881-1.03L124.399,10.438z"
				/>
			<path fill="#005DAA" d="M130.707,20.612c-0.538,1.333-0.575,2.471,0.41,3.21c1.053,0.754,2.008,0.549,2.441-0.037
				c0.462-0.624,0.127-1.188-0.373-1.908l-0.545-0.772c-1.265-1.803-1.031-2.5-0.47-3.248c0.888-1.209,2.493-1.291,3.941-0.224
				c0.705,0.53,1.253,1.09,1.656,1.568c-0.082,0.119-0.224,0.284-0.313,0.411c-0.336,0.456-0.639,0.925-0.948,1.418l-0.441-0.321
				c0.702-1.28,0.433-2.098-0.463-2.744c-0.828-0.601-1.813-0.548-2.254,0.038c-0.299,0.422-0.299,0.877,0.209,1.609l1.153,1.702
				c0.743,1.094,0.758,1.896,0.097,2.789c-0.921,1.25-2.527,1.272-4.049,0.16c-0.698-0.522-1.187-1.321-1.859-1.814
				c0.336-0.503,0.918-1.396,1.281-2.09L130.707,20.612z"/>
			<path fill="#005DAA" d="M134.233,25.912c0.705,0.568,1.012,0.456,1.967,0l4.875-2.388c0.832-0.425,1.037-0.519,1.425-0.761
				l0.44,0.411c-0.201,0.306-0.463,0.929-0.597,1.313l-2.091,5.74c-0.283,0.766-0.306,0.889,0.422,1.553l-0.325,0.358l-2.944-2.665
				l0.325-0.373c0.903,0.754,1.049,0.754,1.247,0.522c0.149-0.172,0.649-1.471,0.701-1.616c0.008-0.078-0.007-0.123-0.052-0.183
				c-0.201-0.22-0.626-0.638-1.481-1.418c-0.549-0.493-0.609-0.478-0.848-0.358c-0.701,0.34-1.239,0.665-1.321,0.754
				c-0.238,0.261-0.194,0.407,0.567,1.225l-0.344,0.362l-2.307-2.109L134.233,25.912z M139.828,27.166
				c0.075,0.075,0.12,0.067,0.153,0.053c0.048-0.053,0.094-0.183,0.116-0.239l1.135-2.904l-2.859,1.419
				c-0.078,0.037-0.142,0.067-0.172,0.097c-0.022,0.044-0.008,0.108,0.052,0.149L139.828,27.166z"/>
		</g>
	</g>
</g>
</svg>
