<svg xmlns="http://www.w3.org/2000/svg" viewBox="0 0 230.22 205.01"><defs><style>.cls-1{fill:#07294d;}.cls-2{fill:#087ef9;}.cls-3{fill:#0d5ca3;}</style></defs><title>Leidos-Logo</title><g id="Layer_2" data-name="Layer 2"><g id="Layer_2-2" data-name="Layer 2"><polygon class="cls-1" points="0 37.98 229.76 45.27 105.76 116.76 0 37.98"/></g><g id="Layer_3" data-name="Layer 3"><polygon class="cls-2" points="55.5 0 16.78 106.2 230.22 45.07 55.5 0"/></g><g id="Layer_4" data-name="Layer 4"><polygon class="cls-3" points="32.74 62.26 70.86 90.76 230.11 45.26 41.11 39.39 32.74 62.26"/></g><g id="Layer_5" data-name="Layer 5"><path class="cls-2" d="M151.71,50.38s16,29.18-12.4,67.1-3.65,84.61,8.75,87.53c0,0-10.21-29.91,12.4-64.19S178.7,62.78,151.71,50.38Z"/><path class="cls-2" d="M122.78,55.24s7.29,20.91-11.18,47.17-.49,53,7.78,56.89c0,0-9.24-16,8.27-45.22S134,62.54,122.78,55.24Z"/><path class="cls-2" d="M183.08,100s7.29,20.91-11.18,47.17-.49,53,7.78,56.89c0,0-9.24-16,8.27-45.22S194.26,107.27,183.08,100Z"/></g></g></svg>