<svg xmlns="http://www.w3.org/2000/svg" viewBox="0 0 376.6 376.6"><defs><style>.cls-1{isolation:isolate;}.cls-2{fill:#07294d;stroke:#087ef9;stroke-width:5px;mix-blend-mode:hue;}.cls-2,.cls-4,.cls-5{stroke-miterlimit:10;}.cls-3,.cls-5{fill:#fff;}.cls-4{fill:#e50707;stroke:#e50707;}.cls-5{stroke:#fff;}</style></defs><title>Contact-tracing</title><g class="cls-1"><g id="Layer_2" data-name="Layer 2"><g id="Layer_39" data-name="Layer 39"><circle class="cls-2" cx="188.3" cy="188.3" r="185.8"/><path class="cls-3" d="M46.09,166.24s4.49-1.22,4.72,2.88l11,51.29s.63,1.95-2.18,2.59l-25.92,3.24s-1.84-.2-2.19-3.84l-6.68-51.53a3.63,3.63,0,0,1,2.83-2.28Z"/><path class="cls-3" d="M58.42,168.86a3.39,3.39,0,0,0-2.15,4.1c.79,3.07,8.49,39.35,8.49,39.35s.06,3.49,4.26,2.7c0,0,26.16,2.07,50.72-19.45,0,0,25.62-19.39,36-22.45,0,0,16.28-7.67,28.57-19,0,0,5.5-7.77-5-13.62,0,0-7-2.43-16.48,1.7l-9.5,4.13S121,159,120.09,152.62c0,0,.11-1.5,9.27-2.56s25.22-8.28,41-13.44c0,0,11.41-1.05,15.52,4.77l23.23-7a14,14,0,0,1,7.23-2.2s25.94-5.33,28.71-8.35,5-10.86-6.4-13.48l-31,3.74-2.81,1-63,5.47s-15.35,4.26-25.78,10.68-24,15.44-34.49,24.61C81.57,155.83,67.39,166.63,58.42,168.86Z"/><path class="cls-3" d="M330.57,225.18s-4.72-.17-3.7-4.21L331.67,168s0-2.07,2.88-1.85l26.06,4.65s1.72.75,1,4.38l-9,51.87a3.67,3.67,0,0,1-3.42,1.36Z"/><path class="cls-3" d="M319.27,219.32a3.44,3.44,0,0,0,3.31-3.33c.16-3.21,3.61-40.64,3.61-40.64s1-3.39-3.31-3.89c0,0-24.69-9.86-54.93,3.58,0,0-30.62,11.08-41.63,10.9,0,0-18.06,2.54-33.35,9.8,0,0-7.66,5.87.78,14.7,0,0,6,4.45,16.46,3.3l10.43-1.14s35.1-2.54,34.06,3.9c0,0-.55,1.42-9.74-.31s-26.9.44-43.73.68c0,0-11.36-2.41-13.59-9.28L163,207.4a14.15,14.15,0,0,1-7.66,0s-26.71-2.63-30.29-.54-8.12,9,2.14,15l31.14,5.7,3-.09L224,241s16.13.49,28.16-2.59,27.89-7.73,40.77-13.46C292.94,225,309.91,218.79,319.27,219.32Z"/><ellipse class="cls-4" cx="203.17" cy="155.37" rx="24.62" ry="25.21"/><ellipse class="cls-5" cx="201.24" cy="139.87" rx="5.09" ry="5.04"/><ellipse class="cls-3" cx="216.55" cy="151.77" rx="6.34" ry="6.47"/><ellipse class="cls-3" cx="207.94" cy="169.44" rx="5.79" ry="6.06"/><ellipse class="cls-3" cx="188.28" cy="148.05" rx="3.79" ry="3.9"/><ellipse class="cls-3" cx="191.34" cy="165.19" rx="5.74" ry="5.81"/><polygon class="cls-4" points="195.59 131.21 195.68 124.83 199.11 124.26 201.14 129.97 195.59 131.21"/><path class="cls-4" d="M201.5,120.16c-.37-1.84-2.77-2.88-5.35-2.33s-4.37,2.49-4,4.33,2.77,2.88,5.35,2.33S201.87,122,201.5,120.16Z"/><path class="cls-4" d="M176.16,134.28c-1.53-1-3.94,0-5.38,2.25s-1.38,4.94.15,6,3.94,0,5.38-2.25S177.69,135.31,176.16,134.28Z"/><path class="cls-4" d="M175.24,141.49l5.18,4.09a28.35,28.35,0,0,1,2.5-4.76l-5.64-2.57A6.41,6.41,0,0,1,175.24,141.49Z"/><path class="cls-4" d="M221.06,125.52c-1.18,1.43-.51,4,1.5,5.77s4.6,2,5.78.58.51-4-1.5-5.77S222.24,124.09,221.06,125.52Z"/><polygon class="cls-4" points="221.13 129.88 216.78 134.25 220.66 137.49 223.9 132.44 221.13 129.88"/><polygon class="cls-4" points="184.4 132.25 186.52 136.44 189.76 134.16 186.34 130.45 184.4 132.25"/><polygon class="cls-4" points="173.94 152.43 178.57 152.34 178.57 156.24 173.66 155.29 173.94 152.43"/><polygon class="cls-4" points="173.66 164.9 179.22 161.66 181.25 166.8 174.77 168.52 173.66 164.9"/><polygon class="cls-4" points="181.99 176.42 185.04 172.42 187.73 174.99 184.03 178.22 181.99 176.42"/><polygon class="cls-4" points="192.26 178.13 190.87 184.6 194.2 186.12 197.26 180.03 192.26 178.13"/><polygon class="cls-4" points="203.92 180.6 204.94 185.55 207.8 185.27 207.71 180.22 203.92 180.6"/><polygon class="cls-4" points="212.99 178.7 216.87 183.94 220.11 182.03 217.61 175.84 212.99 178.7"/><polygon class="cls-4" points="223.63 169.47 227.7 171.66 229.46 169.28 225.57 165.95 223.63 169.47"/><polygon class="cls-4" points="227.79 152.72 233.62 153.19 233.71 157.29 227.7 158.14 227.79 152.72"/><polygon class="cls-4" points="224.18 142.34 228.25 140.91 229.55 143.39 226.12 145.86 224.18 142.34"/><path class="cls-4" d="M187.21,127.21c-.76-1.15-2.73-1.13-4.41,0s-2.42,3.05-1.66,4.2,2.73,1.13,4.41,0S188,128.36,187.21,127.21Z"/><path class="cls-4" d="M206.92,123.13c-.33,1.4.89,2.9,2.72,3.36s3.59-.3,3.92-1.7-.89-2.9-2.72-3.36S207.25,121.73,206.92,123.13Z"/><polygon class="cls-4" points="208.27 125.97 206.69 130.35 210.12 131.21 210.86 126.64 208.27 125.97"/><ellipse class="cls-4" cx="171.42" cy="153.47" rx="2.59" ry="3.63"/><path class="cls-4" d="M170,163.11c-1.77.47-2.67,3-2,5.6s2.62,4.38,4.39,3.91,2.67-3,2-5.6S171.75,162.64,170,163.11Z"/><path class="cls-4" d="M178.49,177c-.86,1.17-.3,3.11,1.26,4.32s3.52,1.25,4.39.08.3-3.11-1.26-4.32S179.35,175.84,178.49,177Z"/><path class="cls-4" d="M196.08,189.68c.47-1.81-1.22-3.85-3.76-4.55s-5,.21-5.46,2,1.22,3.85,3.76,4.55S195.61,191.5,196.08,189.68Z"/><path class="cls-4" d="M210.19,187.62c-.12-1.44-1.87-2.45-3.9-2.27s-3.59,1.49-3.46,2.93,1.87,2.45,3.9,2.27S210.31,189.05,210.19,187.62Z"/><path class="cls-4" d="M224.17,183.47c-.91-1.63-3.5-1.84-5.79-.49s-3.39,3.77-2.48,5.4,3.5,1.84,5.79.49S225.08,185.09,224.17,183.47Z"/><path class="cls-4" d="M232.86,168.84c-1.23-.83-3.14-.06-4.27,1.71s-1,3.88.18,4.71,3.14.06,4.27-1.71S234.09,169.67,232.86,168.84Z"/><path class="cls-4" d="M236.73,150.44c-1.82.07-3.23,2.32-3.13,5s1.65,4.85,3.47,4.79,3.23-2.32,3.13-5S238.55,150.37,236.73,150.44Z"/><path class="cls-4" d="M229.66,137.71c-1.37.73-1.73,2.79-.82,4.59s2.76,2.67,4.13,1.93,1.73-2.79.82-4.59S231,137,229.66,137.71Z"/><ellipse class="cls-4" cx="260.51" cy="145.6" rx="11.93" ry="12.22"/><ellipse class="cls-5" cx="259.57" cy="138.08" rx="2.47" ry="2.45"/><ellipse class="cls-3" cx="267" cy="143.85" rx="3.07" ry="3.14"/><ellipse class="cls-3" cx="262.82" cy="152.42" rx="2.81" ry="2.94"/><ellipse class="cls-3" cx="253.29" cy="142.05" rx="1.84" ry="1.89"/><ellipse class="cls-3" cx="254.77" cy="150.36" rx="2.78" ry="2.81"/><polygon class="cls-4" points="256.84 133.88 256.88 130.79 258.54 130.52 259.53 133.28 256.84 133.88"/><path class="cls-4" d="M259.7,128.53c-.18-.89-1.34-1.4-2.59-1.13s-2.12,1.21-1.94,2.1,1.34,1.4,2.59,1.13S259.88,129.42,259.7,128.53Z"/><path class="cls-4" d="M247.42,135.38c-.74-.5-1.91,0-2.61,1.09s-.67,2.4.07,2.89,1.91,0,2.61-1.09S248.16,135.87,247.42,135.38Z"/><path class="cls-4" d="M247,138.87l2.51,2a13.74,13.74,0,0,1,1.21-2.31L248,137.3A3.11,3.11,0,0,1,247,138.87Z"/><path class="cls-4" d="M269.19,131.13c-.57.69-.25,1.95.73,2.8s2.23,1,2.8.28.25-1.95-.73-2.8S269.76,130.43,269.19,131.13Z"/><polygon class="cls-4" points="269.22 133.24 267.11 135.36 268.99 136.93 270.56 134.48 269.22 133.24"/><polygon class="cls-4" points="251.41 134.39 252.44 136.42 254.01 135.31 252.35 133.51 251.41 134.39"/><polygon class="cls-4" points="246.34 144.18 248.58 144.13 248.58 146.02 246.21 145.56 246.34 144.18"/><polygon class="cls-4" points="246.21 150.22 248.9 148.65 249.88 151.14 246.74 151.97 246.21 150.22"/><polygon class="cls-4" points="250.24 155.8 251.72 153.87 253.02 155.11 251.23 156.68 250.24 155.8"/><polygon class="cls-4" points="255.22 156.63 254.55 159.77 256.16 160.51 257.64 157.56 255.22 156.63"/><polygon class="cls-4" points="260.87 157.83 261.37 160.23 262.76 160.09 262.71 157.65 260.87 157.83"/><polygon class="cls-4" points="265.27 156.91 267.15 159.45 268.72 158.53 267.51 155.53 265.27 156.91"/><polygon class="cls-4" points="270.43 152.43 272.4 153.5 273.25 152.34 271.37 150.73 270.43 152.43"/><polygon class="cls-4" points="272.45 144.31 275.27 144.54 275.32 146.53 272.4 146.94 272.45 144.31"/><polygon class="cls-4" points="270.7 139.28 272.67 138.59 273.3 139.79 271.64 140.99 270.7 139.28"/><path class="cls-4" d="M252.77,131.95c-.37-.56-1.32-.55-2.14,0s-1.17,1.48-.81,2,1.32.55,2.14,0S253.14,132.5,252.77,131.95Z"/><path class="cls-4" d="M262.33,130a1.53,1.53,0,0,0,1.32,1.63,1.48,1.48,0,0,0,1.9-.82,1.53,1.53,0,0,0-1.32-1.63A1.48,1.48,0,0,0,262.33,130Z"/><polygon class="cls-4" points="262.98 131.35 262.22 133.47 263.88 133.88 264.24 131.67 262.98 131.35"/><ellipse class="cls-4" cx="245.12" cy="144.68" rx="1.26" ry="1.76"/><path class="cls-4" d="M244.42,149.35c-.86.23-1.29,1.44-1,2.72s1.27,2.12,2.13,1.89,1.29-1.44,1-2.72S245.28,149.12,244.42,149.35Z"/><path class="cls-4" d="M248.55,156.09a1.61,1.61,0,0,0,.61,2.1,1.51,1.51,0,0,0,2.13,0,1.61,1.61,0,0,0-.61-2.1A1.51,1.51,0,0,0,248.55,156.09Z"/><path class="cls-4" d="M257.07,162.23c.23-.88-.59-1.87-1.82-2.2s-2.42.1-2.65,1,.59,1.87,1.82,2.2S256.84,163.11,257.07,162.23Z"/><path class="cls-4" d="M263.91,161.23c-.06-.7-.91-1.19-1.89-1.1s-1.74.72-1.68,1.42.91,1.19,1.89,1.1S264,161.93,263.91,161.23Z"/><path class="cls-4" d="M270.69,159.22c-.44-.79-1.7-.89-2.81-.24s-1.65,1.83-1.2,2.62,1.7.89,2.81.24S271.14,160,270.69,159.22Z"/><path class="cls-4" d="M274.9,152.13c-.6-.4-1.52,0-2.07.83a1.7,1.7,0,0,0,.09,2.28c.6.4,1.52,0,2.07-.83A1.7,1.7,0,0,0,274.9,152.13Z"/><ellipse class="cls-4" cx="276.86" cy="145.59" rx="1.6" ry="2.38" transform="translate(-4.88 9.69) rotate(-1.99)"/><path class="cls-4" d="M273.36,137a1.65,1.65,0,0,0-.4,2.23,1.57,1.57,0,0,0,2,.94,1.65,1.65,0,0,0,.4-2.23A1.57,1.57,0,0,0,273.36,137Z"/><ellipse class="cls-4" cx="255.71" cy="178.77" rx="6.31" ry="6.46"/><ellipse class="cls-5" cx="255.21" cy="174.79" rx="1.3" ry="1.29"/><ellipse class="cls-3" cx="259.14" cy="177.84" rx="1.62" ry="1.66"/><ellipse class="cls-3" cx="256.93" cy="182.37" rx="1.48" ry="1.55"/><ellipse class="cls-3" cx="251.89" cy="176.89" rx="0.97" ry="1"/><ellipse class="cls-3" cx="252.68" cy="181.28" rx="1.47" ry="1.49"/><polygon class="cls-4" points="253.77 172.57 253.79 170.94 254.67 170.79 255.19 172.26 253.77 172.57"/><path class="cls-4" d="M255.28,169.74c-.1-.47-.71-.74-1.37-.6s-1.12.64-1,1.11.71.74,1.37.6S255.38,170.21,255.28,169.74Z"/><path class="cls-4" d="M248.79,173.36c-.39-.26-1,0-1.38.58s-.35,1.27,0,1.53,1,0,1.38-.58S249.18,173.62,248.79,173.36Z"/><path class="cls-4" d="M248.55,175.21l1.33,1a7.27,7.27,0,0,1,.64-1.22l-1.45-.66A1.64,1.64,0,0,1,248.55,175.21Z"/><path class="cls-4" d="M260.3,171.12a1.14,1.14,0,0,0,.39,1.48c.52.45,1.18.52,1.48.15a1.14,1.14,0,0,0-.39-1.48C261.26,170.82,260.6,170.75,260.3,171.12Z"/><polygon class="cls-4" points="260.31 172.23 259.2 173.35 260.19 174.18 261.02 172.89 260.31 172.23"/><polygon class="cls-4" points="250.9 172.84 251.44 173.91 252.27 173.33 251.4 172.38 250.9 172.84"/><polygon class="cls-4" points="248.22 178.01 249.4 177.99 249.4 178.99 248.15 178.75 248.22 178.01"/><polygon class="cls-4" points="248.15 181.21 249.57 180.38 250.09 181.7 248.43 182.14 248.15 181.21"/><polygon class="cls-4" points="250.28 184.16 251.06 183.14 251.75 183.79 250.8 184.63 250.28 184.16"/><polygon class="cls-4" points="252.91 184.6 252.56 186.26 253.41 186.65 254.19 185.09 252.91 184.6"/><polygon class="cls-4" points="255.9 185.24 256.16 186.5 256.9 186.43 256.87 185.14 255.9 185.24"/><polygon class="cls-4" points="258.23 184.75 259.22 186.09 260.05 185.6 259.41 184.01 258.23 184.75"/><polygon class="cls-4" points="260.95 182.38 262 182.94 262.45 182.33 261.45 181.48 260.95 182.38"/><polygon class="cls-4" points="262.02 178.09 263.51 178.21 263.54 179.26 262 179.48 262.02 178.09"/><polygon class="cls-4" points="261.1 175.43 262.14 175.06 262.47 175.7 261.59 176.33 261.1 175.43"/><path class="cls-4" d="M251.62,171.55c-.19-.29-.7-.29-1.13,0s-.62.78-.43,1.08.7.29,1.13,0S251.81,171.84,251.62,171.55Z"/><path class="cls-4" d="M256.67,170.5a.81.81,0,0,0,.7.86.78.78,0,0,0,1-.43.81.81,0,0,0-.7-.86A.78.78,0,0,0,256.67,170.5Z"/><polygon class="cls-4" points="257.02 171.23 256.61 172.35 257.49 172.57 257.68 171.4 257.02 171.23"/><ellipse class="cls-4" cx="247.57" cy="178.28" rx="0.66" ry="0.93"/><path class="cls-4" d="M247.2,180.75c-.45.12-.68.76-.51,1.44s.67,1.12,1.13,1,.68-.76.51-1.44S247.65,180.63,247.2,180.75Z"/><path class="cls-4" d="M249.38,184.31a.85.85,0,0,0,.32,1.11.8.8,0,0,0,1.12,0,.85.85,0,0,0-.32-1.11A.8.8,0,0,0,249.38,184.31Z"/><path class="cls-4" d="M253.89,187.56c.12-.47-.31-1-1-1.17s-1.28.05-1.4.52.31,1,1,1.17S253.77,188,253.89,187.56Z"/><ellipse class="cls-4" cx="256.56" cy="187.12" rx="0.95" ry="0.67" transform="translate(-15.62 23.54) rotate(-5.1)"/><path class="cls-4" d="M261.09,186c-.23-.42-.9-.47-1.48-.13s-.87,1-.64,1.38.9.47,1.48.13S261.33,186.39,261.09,186Z"/><path class="cls-4" d="M263.32,182.22c-.32-.21-.81,0-1.09.44a.9.9,0,0,0,0,1.21c.32.21.81,0,1.09-.44A.9.9,0,0,0,263.32,182.22Z"/><ellipse class="cls-4" cx="264.36" cy="178.76" rx="0.85" ry="1.26" transform="matrix(1, -0.03, 0.03, 1, -6.04, 9.27)"/><path class="cls-4" d="M262.5,174.24a.87.87,0,0,0-.21,1.18.83.83,0,0,0,1.06.5.87.87,0,0,0,.21-1.18A.83.83,0,0,0,262.5,174.24Z"/><ellipse class="cls-4" cx="156.71" cy="177.27" rx="6.31" ry="6.46"/><ellipse class="cls-5" cx="156.21" cy="173.29" rx="1.3" ry="1.29"/><ellipse class="cls-3" cx="160.14" cy="176.34" rx="1.62" ry="1.66"/><ellipse class="cls-3" cx="157.93" cy="180.87" rx="1.48" ry="1.55"/><ellipse class="cls-3" cx="152.89" cy="175.39" rx="0.97" ry="1"/><ellipse class="cls-3" cx="153.68" cy="179.78" rx="1.47" ry="1.49"/><polygon class="cls-4" points="154.77 171.07 154.79 169.44 155.67 169.29 156.19 170.76 154.77 171.07"/><path class="cls-4" d="M156.28,168.24c-.1-.47-.71-.74-1.37-.6s-1.12.64-1,1.11.71.74,1.37.6S156.38,168.71,156.28,168.24Z"/><path class="cls-4" d="M149.79,171.86c-.39-.26-1,0-1.38.58s-.35,1.27,0,1.53,1,0,1.38-.58S150.18,172.12,149.79,171.86Z"/><path class="cls-4" d="M149.55,173.71l1.33,1a7.27,7.27,0,0,1,.64-1.22l-1.45-.66A1.64,1.64,0,0,1,149.55,173.71Z"/><path class="cls-4" d="M161.3,169.62a1.14,1.14,0,0,0,.39,1.48c.52.45,1.18.52,1.48.15a1.14,1.14,0,0,0-.39-1.48C162.26,169.32,161.6,169.25,161.3,169.62Z"/><polygon class="cls-4" points="161.31 170.73 160.2 171.85 161.19 172.68 162.02 171.39 161.31 170.73"/><polygon class="cls-4" points="151.9 171.34 152.44 172.41 153.27 171.83 152.4 170.88 151.9 171.34"/><polygon class="cls-4" points="149.22 176.51 150.4 176.49 150.4 177.49 149.15 177.25 149.22 176.51"/><polygon class="cls-4" points="149.15 179.71 150.57 178.88 151.09 180.2 149.43 180.64 149.15 179.71"/><polygon class="cls-4" points="151.28 182.66 152.06 181.64 152.75 182.29 151.8 183.13 151.28 182.66"/><polygon class="cls-4" points="153.91 183.1 153.56 184.76 154.41 185.15 155.19 183.59 153.91 183.1"/><polygon class="cls-4" points="156.9 183.74 157.16 185 157.9 184.93 157.87 183.64 156.9 183.74"/><polygon class="cls-4" points="159.23 183.25 160.22 184.59 161.05 184.1 160.41 182.51 159.23 183.25"/><polygon class="cls-4" points="161.95 180.88 163 181.44 163.45 180.83 162.45 179.98 161.95 180.88"/><polygon class="cls-4" points="163.02 176.59 164.51 176.71 164.54 177.76 163 177.98 163.02 176.59"/><polygon class="cls-4" points="162.09 173.93 163.14 173.56 163.47 174.2 162.59 174.83 162.09 173.93"/><path class="cls-4" d="M152.62,170c-.19-.29-.7-.29-1.13,0s-.62.78-.43,1.08.7.29,1.13,0S152.81,170.34,152.62,170Z"/><path class="cls-4" d="M157.67,169a.81.81,0,0,0,.7.86.78.78,0,0,0,1-.43.81.81,0,0,0-.7-.86A.78.78,0,0,0,157.67,169Z"/><polygon class="cls-4" points="158.02 169.73 157.61 170.85 158.49 171.07 158.68 169.9 158.02 169.73"/><ellipse class="cls-4" cx="148.57" cy="176.78" rx="0.66" ry="0.93"/><path class="cls-4" d="M148.2,179.25c-.45.12-.68.76-.51,1.44s.67,1.12,1.13,1,.68-.76.51-1.44S148.65,179.13,148.2,179.25Z"/><path class="cls-4" d="M150.38,182.81a.85.85,0,0,0,.32,1.11.8.8,0,0,0,1.12,0,.85.85,0,0,0-.32-1.11A.8.8,0,0,0,150.38,182.81Z"/><path class="cls-4" d="M154.89,186.06c.12-.47-.31-1-1-1.17s-1.28.05-1.4.52.31,1,1,1.17S154.77,186.53,154.89,186.06Z"/><ellipse class="cls-4" cx="157.56" cy="185.62" rx="0.95" ry="0.67" transform="translate(-15.87 14.74) rotate(-5.1)"/><path class="cls-4" d="M162.09,184.47c-.23-.42-.9-.47-1.48-.13s-.87,1-.64,1.38.9.47,1.48.13S162.33,184.89,162.09,184.47Z"/><path class="cls-4" d="M164.32,180.72c-.32-.21-.81,0-1.09.44a.9.9,0,0,0,0,1.21c.32.21.81,0,1.09-.44A.9.9,0,0,0,164.32,180.72Z"/><ellipse class="cls-4" cx="165.36" cy="177.26" rx="0.85" ry="1.26" transform="matrix(1, -0.03, 0.03, 1, -6.05, 5.84)"/><path class="cls-4" d="M163.5,172.74a.87.87,0,0,0-.21,1.18.83.83,0,0,0,1.06.5.87.87,0,0,0,.21-1.18A.83.83,0,0,0,163.5,172.74Z"/><ellipse class="cls-4" cx="173.11" cy="194.36" rx="4.91" ry="5.03"/><ellipse class="cls-5" cx="172.73" cy="191.27" rx="1.02" ry="1.01"/><ellipse class="cls-3" cx="175.78" cy="193.64" rx="1.27" ry="1.29"/><ellipse class="cls-3" cx="174.06" cy="197.17" rx="1.16" ry="1.21"/><ellipse class="cls-3" cx="170.14" cy="192.9" rx="0.76" ry="0.78"/><ellipse class="cls-3" cx="170.75" cy="196.32" rx="1.14" ry="1.16"/><polygon class="cls-4" points="171.6 189.54 171.62 188.26 172.3 188.15 172.71 189.29 171.6 189.54"/><path class="cls-4" d="M172.78,187.33c-.07-.37-.55-.57-1.07-.46s-.87.5-.8.86.55.57,1.07.46S172.85,187.7,172.78,187.33Z"/><path class="cls-4" d="M167.72,190.15c-.3-.21-.79,0-1.07.45s-.28,1,0,1.19.79,0,1.07-.45S168,190.36,167.72,190.15Z"/><path class="cls-4" d="M167.54,191.59l1,.82a5.66,5.66,0,0,1,.5-.95l-1.13-.51A1.28,1.28,0,0,1,167.54,191.59Z"/><path class="cls-4" d="M176.68,188.4a.89.89,0,0,0,.3,1.15c.4.35.92.4,1.15.12a.89.89,0,0,0-.3-1.15C177.44,188.17,176.92,188.12,176.68,188.4Z"/><polygon class="cls-4" points="176.7 189.27 175.83 190.15 176.6 190.79 177.25 189.78 176.7 189.27"/><polygon class="cls-4" points="169.36 189.75 169.79 190.58 170.44 190.13 169.75 189.38 169.36 189.75"/><polygon class="cls-4" points="167.28 193.77 168.2 193.75 168.2 194.53 167.22 194.34 167.28 193.77"/><polygon class="cls-4" points="167.22 196.26 168.33 195.62 168.74 196.64 167.44 196.98 167.22 196.26"/><polygon class="cls-4" points="168.88 198.56 169.49 197.76 170.03 198.28 169.29 198.92 168.88 198.56"/><polygon class="cls-4" points="170.93 198.9 170.66 200.19 171.32 200.5 171.93 199.28 170.93 198.9"/><polygon class="cls-4" points="173.26 199.4 173.46 200.38 174.04 200.33 174.02 199.32 173.26 199.4"/><polygon class="cls-4" points="175.07 199.02 175.85 200.06 176.49 199.68 175.99 198.45 175.07 199.02"/><polygon class="cls-4" points="177.19 197.17 178.01 197.61 178.36 197.14 177.58 196.47 177.19 197.17"/><polygon class="cls-4" points="178.03 193.83 179.19 193.93 179.21 194.74 178.01 194.91 178.03 193.83"/><polygon class="cls-4" points="177.31 191.76 178.12 191.47 178.38 191.97 177.69 192.46 177.31 191.76"/><path class="cls-4" d="M169.93,188.74c-.15-.23-.55-.23-.88,0s-.48.61-.33.84.55.23.88,0S170.08,189,169.93,188.74Z"/><path class="cls-4" d="M173.86,187.92a.63.63,0,0,0,.54.67.61.61,0,0,0,.78-.34.63.63,0,0,0-.54-.67A.61.61,0,0,0,173.86,187.92Z"/><polygon class="cls-4" points="174.13 188.49 173.81 189.37 174.5 189.54 174.65 188.63 174.13 188.49"/><ellipse class="cls-4" cx="166.77" cy="193.98" rx="0.52" ry="0.72"/><path class="cls-4" d="M166.49,195.9c-.35.09-.53.59-.4,1.12s.52.87.88.78.53-.59.4-1.12S166.84,195.81,166.49,195.9Z"/><path class="cls-4" d="M168.19,198.68a.66.66,0,0,0,.25.86.62.62,0,0,0,.88,0,.66.66,0,0,0-.25-.86A.62.62,0,0,0,168.19,198.68Z"/><path class="cls-4" d="M171.7,201.21c.09-.36-.24-.77-.75-.91s-1,0-1.09.4.24.77.75.91S171.6,201.57,171.7,201.21Z"/><ellipse class="cls-4" cx="173.78" cy="200.86" rx="0.74" ry="0.52" transform="translate(-17.17 16.24) rotate(-5.1)"/><path class="cls-4" d="M177.3,200c-.18-.32-.7-.37-1.15-.1s-.68.75-.5,1.08.7.37,1.15.1S177.49,200.29,177.3,200Z"/><path class="cls-4" d="M179,197c-.25-.17-.63,0-.85.34a.7.7,0,0,0,0,.94c.25.17.63,0,.85-.34A.7.7,0,0,0,179,197Z"/><ellipse class="cls-4" cx="179.84" cy="194.35" rx="0.66" ry="0.98" transform="matrix(1, -0.03, 0.03, 1, -6.63, 6.35)"/><path class="cls-4" d="M178.4,190.83a.68.68,0,0,0-.16.92.64.64,0,0,0,.82.39.68.68,0,0,0,.16-.92A.64.64,0,0,0,178.4,190.83Z"/></g><g id="Layer_40" data-name="Layer 40"><ellipse class="cls-4" cx="165.41" cy="157.78" rx="3.36" ry="3.44"/><ellipse class="cls-5" cx="165.15" cy="155.67" rx="0.69" ry="0.69"/><ellipse class="cls-3" cx="167.23" cy="157.29" rx="0.86" ry="0.88"/><ellipse class="cls-3" cx="166.06" cy="159.7" rx="0.79" ry="0.83"/><ellipse class="cls-3" cx="163.38" cy="156.79" rx="0.52" ry="0.53"/><ellipse class="cls-3" cx="163.8" cy="159.12" rx="0.78" ry="0.79"/><polygon class="cls-4" points="164.38 154.49 164.39 153.62 164.86 153.54 165.13 154.32 164.38 154.49"/><path class="cls-4" d="M165.18,153c-.05-.25-.38-.39-.73-.32s-.6.34-.55.59.38.39.73.32S165.23,153.23,165.18,153Z"/><path class="cls-4" d="M161.73,154.91c-.21-.14-.54,0-.73.31s-.19.67,0,.81.54,0,.73-.31S161.93,155,161.73,154.91Z"/><path class="cls-4" d="M161.6,155.89l.71.56a3.87,3.87,0,0,1,.34-.65l-.77-.35A.87.87,0,0,1,161.6,155.89Z"/><path class="cls-4" d="M167.85,153.71a.61.61,0,0,0,.2.79c.27.24.63.27.79.08a.61.61,0,0,0-.2-.79C168.36,153.55,168,153.52,167.85,153.71Z"/><polygon class="cls-4" points="167.86 154.31 167.26 154.91 167.79 155.35 168.24 154.66 167.86 154.31"/><polygon class="cls-4" points="162.85 154.63 163.14 155.2 163.58 154.89 163.12 154.39 162.85 154.63"/><polygon class="cls-4" points="161.42 157.38 162.06 157.37 162.06 157.9 161.39 157.77 161.42 157.38"/><polygon class="cls-4" points="161.39 159.08 162.14 158.64 162.42 159.34 161.54 159.58 161.39 159.08"/><polygon class="cls-4" points="162.52 160.65 162.94 160.11 163.3 160.46 162.8 160.9 162.52 160.65"/><polygon class="cls-4" points="163.92 160.89 163.73 161.77 164.19 161.98 164.6 161.15 163.92 160.89"/><polygon class="cls-4" points="165.51 161.22 165.65 161.9 166.04 161.86 166.03 161.17 165.51 161.22"/><polygon class="cls-4" points="166.75 160.97 167.28 161.68 167.72 161.42 167.38 160.58 166.75 160.97"/><polygon class="cls-4" points="168.2 159.71 168.75 160 168.99 159.68 168.46 159.23 168.2 159.71"/><polygon class="cls-4" points="168.77 157.42 169.56 157.49 169.57 158.05 168.75 158.16 168.77 157.42"/><polygon class="cls-4" points="168.28 156.01 168.83 155.81 169.01 156.15 168.54 156.49 168.28 156.01"/><path class="cls-4" d="M163.23,153.94c-.1-.16-.37-.15-.6,0s-.33.42-.23.57.37.15.6,0S163.34,154.1,163.23,153.94Z"/><ellipse class="cls-4" cx="166.37" cy="153.5" rx="0.35" ry="0.47" transform="translate(-23.01 277.51) rotate(-75.91)"/><polygon class="cls-4" points="166.1 153.78 165.89 154.37 166.36 154.49 166.46 153.87 166.1 153.78"/><ellipse class="cls-4" cx="161.08" cy="157.53" rx="0.35" ry="0.49"/><path class="cls-4" d="M160.88,158.84c-.24.06-.36.41-.27.76s.36.6.6.53.36-.41.27-.76S161.13,158.78,160.88,158.84Z"/><path class="cls-4" d="M162,160.73a.45.45,0,0,0,.17.59.42.42,0,0,0,.6,0,.45.45,0,0,0-.17-.59A.42.42,0,0,0,162,160.73Z"/><path class="cls-4" d="M164.44,162.46c.06-.25-.17-.52-.51-.62s-.68,0-.74.28.17.52.51.62S164.38,162.71,164.44,162.46Z"/><ellipse class="cls-4" cx="165.86" cy="162.23" rx="0.5" ry="0.36" transform="translate(-13.76 15.38) rotate(-5.1)"/><path class="cls-4" d="M168.27,161.62c-.12-.22-.48-.25-.79-.07s-.46.51-.34.74.48.25.79.07S168.4,161.84,168.27,161.62Z"/><path class="cls-4" d="M169.46,159.62c-.17-.11-.43,0-.58.23a.48.48,0,0,0,0,.64c.17.11.43,0,.58-.23A.48.48,0,0,0,169.46,159.62Z"/><ellipse class="cls-4" cx="170.01" cy="157.78" rx="0.45" ry="0.67" transform="translate(-5.37 5.99) rotate(-1.99)"/><path class="cls-4" d="M169,155.38a.47.47,0,0,0-.11.63.44.44,0,0,0,.56.26.47.47,0,0,0,.11-.63A.44.44,0,0,0,169,155.38Z"/></g></g></g></svg>