<svg xmlns="http://www.w3.org/2000/svg" viewBox="0 0 389.13 379.87"><defs><style>.cls-1{fill:#07294d;stroke-width:7px;}.cls-1,.cls-2{stroke:#087ef9;stroke-miterlimit:10;}.cls-2{fill:none;stroke-width:10px;}</style></defs><title>AI</title><g id="Layer_2" data-name="Layer 2"><g id="Layer_2-2" data-name="Layer 2"><path class="cls-1" d="M37.26,84.28l52-50.83,25.47,22.93s29.54-15.95,41.76-15.95l3.06-36.88,74.36,1,2,32.89s41.76,12,42.78,18.94l25.47-23.92,54,49.84L333.68,110.2S352,143.09,350,152.06l35.65,1v73.76l-35.65,2s-5.09,27.91-17.32,40.87l24.45,24.92-52,50.83-27.5-22.93s-15.28,11-41.76,17.94v34.89l-79.45,1,3.06-37.88s-25.47-1-42.78-15.95L90.23,346.42l-56-51.83,34.63-26.91a70.51,70.51,0,0,1-23.43-39.87l-41.76-2L6.7,153.06l39.73,1s7.13-34.89,15.28-44.85Z"/></g><g id="Layer_3" data-name="Layer 3"><line class="cls-2" x1="198.63" y1="331.81" x2="198.28" y2="100.27"/><line class="cls-2" x1="213.35" y1="313.72" x2="213.41" y2="137.78"/><ellipse class="cls-2" cx="197.93" cy="77.67" rx="19.32" ry="19.13"/><ellipse class="cls-2" cx="282.13" cy="107.42" rx="19.32" ry="19.13"/><line class="cls-2" x1="211.76" y1="141.01" x2="261.62" y2="116.68"/><line class="cls-2" x1="183.49" y1="313.48" x2="183.43" y2="137.54"/><ellipse class="cls-2" cx="114.71" cy="107.18" rx="19.32" ry="19.13"/><line class="cls-2" x1="185.08" y1="140.77" x2="135.23" y2="116.44"/></g><g id="Layer_4" data-name="Layer 4"><line class="cls-2" x1="227.66" y1="297.59" x2="227.72" y2="184.21"/><ellipse class="cls-2" cx="290.32" cy="201.31" rx="19.32" ry="19.13"/><line class="cls-2" x1="226.07" y1="233.54" x2="275.92" y2="209.21"/><line class="cls-2" x1="168.09" y1="297.43" x2="168.03" y2="184.05"/><ellipse class="cls-2" cx="99.31" cy="196.48" rx="19.32" ry="19.13"/><line class="cls-2" x1="169.68" y1="230.88" x2="119.83" y2="206.55"/></g></g></svg>