<svg xmlns="http://www.w3.org/2000/svg" viewBox="0 0 376.6 376.6"><defs><style>.cls-1{fill:#07294d;}.cls-1,.cls-2,.cls-3,.cls-6{stroke:#087ef9;}.cls-1,.cls-2,.cls-3,.cls-4,.cls-6{stroke-miterlimit:10;}.cls-1,.cls-2,.cls-3,.cls-4{stroke-width:5px;}.cls-2,.cls-3,.cls-6{fill:none;}.cls-2{stroke-linecap:round;}.cls-4,.cls-5{fill:#087ef9;}.cls-4{stroke:#07294d;}.cls-6{stroke-width:6px;}</style></defs><title>Business Rule</title><g id="Layer_2" data-name="Layer 2"><g id="Layer_29" data-name="Layer 29"><circle class="cls-1" cx="188.3" cy="188.3" r="185.8"/></g><g id="Layer_34" data-name="Layer 34"><line class="cls-2" x1="147.23" y1="153.24" x2="169.6" y2="130.88"/><line class="cls-2" x1="136.13" y1="141.9" x2="147.23" y2="153.24"/><line class="cls-2" x1="183.51" y1="131.85" x2="238.92" y2="131.85"/><line class="cls-2" x1="183.22" y1="142.18" x2="238.64" y2="142.18"/><line class="cls-2" x1="182.93" y1="153.09" x2="212.22" y2="153.09"/><line class="cls-2" x1="182.93" y1="173.77" x2="239.21" y2="173.77"/><line class="cls-2" x1="182.64" y1="184.11" x2="239.21" y2="184.39"/><line class="cls-2" x1="182.36" y1="194.44" x2="223.7" y2="194.44"/><line class="cls-2" x1="142.44" y1="173.19" x2="164.84" y2="194.73"/><line class="cls-2" x1="142.16" y1="195.59" x2="164.84" y2="173.48"/><path class="cls-3" d="M266.21,106.32v90.12a19.83,19.83,0,0,1-19.83,19.83H133.54a19.83,19.83,0,0,1-19.83-19.83V107.68a12.91,12.91,0,0,1,12.91-12.91h19.83v5.79a11.19,11.19,0,0,0,11.18,11.21h61.25a10.35,10.35,0,0,0,10.33-10.37V94.77h25.45A11.55,11.55,0,0,1,266.21,106.32Z"/><path class="cls-3" d="M229.21,84.52V101.4a10.35,10.35,0,0,1-10.33,10.37H157.63a11.19,11.19,0,0,1-11.18-11.21V85.22a3.41,3.41,0,0,1,3.4-3.42h76.66A2.71,2.71,0,0,1,229.21,84.52Z"/></g><g id="Layer_30" data-name="Layer 30"><polygon class="cls-4" points="189.15 97.05 211.6 68.27 165.96 68.5 189.15 97.05"/></g><g id="Layer_31" data-name="Layer 31"><polygon class="cls-5" points="179.26 72.17 178.71 31.47 198.16 31.36 198.71 72.06 179.26 72.17"/></g><g id="Layer_35" data-name="Layer 35"><circle class="cls-5" cx="193.35" cy="217.18" r="5.8" transform="translate(-0.3 0.27) rotate(-0.08)"/><line class="cls-6" x1="193.2" y1="240.98" x2="193.35" y2="221.98"/><polygon class="cls-3" points="192.85 242.03 168.6 258.6 193.25 274.75 217.84 259.24 192.85 242.03"/><line class="cls-3" x1="144.3" y1="259.05" x2="168.6" y2="258.6"/><line class="cls-3" x1="144.81" y1="313.5" x2="144.65" y2="257.05"/><line class="cls-3" x1="217.85" y1="259.24" x2="242.4" y2="259.01"/><line class="cls-3" x1="239.4" y1="284.23" x2="239.71" y2="257.85"/><line class="cls-3" x1="239.07" y1="302.17" x2="239.1" y2="322.92"/><circle class="cls-5" cx="239.07" cy="327.39" r="5.8" transform="translate(-0.46 0.33) rotate(-0.08)"/><rect class="cls-3" x="117.69" y="313.15" width="58.74" height="19.35" transform="translate(-0.45 0.21) rotate(-0.08)"/><rect class="cls-3" x="210.21" y="283.53" width="58.04" height="20.05" transform="translate(-0.41 0.33) rotate(-0.08)"/></g></g></svg>