<svg xmlns="http://www.w3.org/2000/svg" viewBox="0 0 245.23 263.01"><defs><style>.cls-1{fill:#07294d;}.cls-2{fill:#087ef9;}.cls-3{fill:#0d5ca3;}.cls-4{font-size:36px;fill:#333;font-family:MyriadPro-Regular, Myriad Pro;}.cls-5{letter-spacing:-0.01em;}.cls-6{letter-spacing:0em;}.cls-7{letter-spacing:0em;}.cls-8{letter-spacing:0.01em;}.cls-9{letter-spacing:0em;}.cls-10{letter-spacing:-0.04em;}.cls-11{letter-spacing:-0.04em;}.cls-12{letter-spacing:0em;}</style></defs><title>Contact-Tracing</title><g id="Layer_2" data-name="Layer 2"><g id="Layer_2-2" data-name="Layer 2"><polygon class="cls-1" points="15.01 37.98 244.77 45.27 120.77 116.76 15.01 37.98"/></g><g id="Layer_3" data-name="Layer 3"><polygon class="cls-2" points="70.51 0 31.79 106.2 245.24 45.07 70.51 0"/></g><g id="Layer_4" data-name="Layer 4"><polygon class="cls-3" points="47.75 62.26 85.88 90.76 245.13 45.26 56.13 39.39 47.75 62.26"/></g><g id="Layer_5" data-name="Layer 5"><path class="cls-2" d="M166.73,50.38s16,29.18-12.4,67.1-3.65,84.61,8.75,87.53c0,0-10.21-29.91,12.4-64.19S193.71,62.78,166.73,50.38Z"/><path class="cls-2" d="M137.79,55.24s7.29,20.91-11.18,47.17-.49,53,7.78,56.89c0,0-9.24-16,8.27-45.22S149,62.54,137.79,55.24Z"/><path class="cls-2" d="M198.09,100s7.29,20.91-11.18,47.17-.49,53,7.78,56.89c0,0-9.24-16,8.27-45.22S209.27,107.27,198.09,100Z"/><text class="cls-4" transform="translate(0 254.01)"><tspan class="cls-5">C</tspan><tspan class="cls-6" x="20.48" y="0">o</tspan><tspan class="cls-7" x="40.25" y="0">n</tspan><tspan x="60.08" y="0">ta</tspan><tspan class="cls-8" x="89.35" y="0">c</tspan><tspan class="cls-9" x="105.95" y="0">t</tspan><tspan class="cls-10" x="117.86" y="0"> </tspan><tspan class="cls-11" x="124.02" y="0">T</tspan><tspan class="cls-12" x="140.29" y="0">r</tspan><tspan class="cls-9" x="151.88" y="0">acing</tspan></text></g></g></svg>