<svg xmlns="http://www.w3.org/2000/svg" viewBox="0 0 265.63 323.27"><defs><style>.cls-1{fill:#087ef9;}.cls-2,.cls-3{fill:#07294d;}.cls-2{stroke:#087ef9;stroke-miterlimit:10;stroke-width:5px;}</style></defs><title>Data</title><g id="Layer_2" data-name="Layer 2"><g id="Layer_8" data-name="Layer 8"><ellipse class="cls-1" cx="132.06" cy="49.12" rx="132.05" ry="49.12"/></g><g id="Layer_9" data-name="Layer 9"><path class="cls-2" d="M2.62,49.91V143s118.66,45.76,259.77,0V51.49S146.93,128.8,2.62,49.91Z"/><path class="cls-2" d="M2.5,126.63v93.1s118.66,45.76,259.77,0V128.21S146.82,205.53,2.5,126.63Z"/><path class="cls-2" d="M3.36,207.34v76.26a23,23,0,0,0,16.8,22.19c35.74,10.06,124.55,28.32,227.55-.68a21.17,21.17,0,0,0,15.43-20.38V208.91S147.68,286.23,3.36,207.34Z"/></g><g id="Layer_11" data-name="Layer 11"><rect class="cls-1" x="227.48" y="95.46" width="17.22" height="19.86"/><rect class="cls-1" x="229.94" y="169.29" width="17.22" height="19.86"/><rect class="cls-1" x="230.95" y="250.76" width="17.22" height="19.86"/></g><g id="Layer_12" data-name="Layer 12"><path class="cls-3" d="M168.12,14.79s44.8,8.59,37.64,34l-12.54.67s6.12-19-32.44-30.28Z"/><polygon class="cls-3" points="137.82 9.86 153.92 26.34 177.22 8.79 137.82 9.86"/><path class="cls-3" d="M66.43,45s-2.55-25.83,49.84-34.06l6.68,5.81S83.53,22.5,78.09,46.55Z"/><polygon class="cls-3" points="67.99 60.85 93.94 47.41 49.74 45.01 67.99 60.85"/><path class="cls-3" d="M175.3,67.72s-47.63,14.21-90-2l7.6-5.58s31.07,12.42,79.41,2.24Z"/><polygon class="cls-3" points="196.97 54.99 156.87 59.08 187.96 73.18 196.97 54.99"/></g></g></svg>