<svg xmlns="http://www.w3.org/2000/svg" viewBox="0 0 376.6 376.6"><defs><style>.cls-1{fill:#07294d;stroke:#087ef9;stroke-miterlimit:10;stroke-width:5px;}.cls-2{fill:#087ef9;}</style></defs><title>Education</title><g id="Layer_2" data-name="Layer 2"><g id="Layer_28" data-name="Layer 28"><circle class="cls-1" cx="188.3" cy="188.3" r="185.8"/></g><g id="Layer_27" data-name="Layer 27"><path class="cls-2" d="M53.47,145.52l130.69-40a14.06,14.06,0,0,1,8.17,0l130.6,39.29a3.92,3.92,0,0,1,.14,7.45L194.69,196a22.42,22.42,0,0,1-14.45,0L53.36,153A3.92,3.92,0,0,1,53.47,145.52Z"/><path class="cls-2" d="M103.82,182.28v55.29s16,26.92,80.75,29.1,87.3-29.1,87.3-29.1V180.82S194.75,209.2,189.66,207,184.57,211.38,103.82,182.28Z"/><path class="cls-2" d="M298.79,172.82l11.64-4.37.36,39.29s10.91,18.92,8,26.55S312.25,247,305,250.3c0,0-6.47-1.29-13.3-14.24a7.75,7.75,0,0,1-.76-5.15c1-5,3.68-16,8.6-22.8Z"/></g></g></svg>