<svg xmlns="http://www.w3.org/2000/svg" viewBox="0 0 340.33 323"><defs><style>.cls-1{fill:#07294d;stroke-width:5px;}.cls-1,.cls-3{stroke:#087ef9;stroke-miterlimit:10;}.cls-2{fill:#087ef9;}.cls-3{fill:none;stroke-linecap:round;stroke-width:10px;}</style></defs><title>Finance</title><g id="Layer_2" data-name="Layer 2"><g id="Layer_19" data-name="Layer 19"><rect class="cls-1" x="2.5" y="2.5" width="335.33" height="263.33" rx="12.78" ry="12.78"/><rect class="cls-1" x="124.83" y="266.5" width="97.33" height="27.33"/><rect class="cls-1" x="86.83" y="293.83" width="172.67" height="26.67"/></g><g id="Layer_20" data-name="Layer 20"><rect class="cls-2" x="60.83" y="194.17" width="30.67" height="42.67" rx="9.36" ry="9.36"/><rect class="cls-2" x="106.67" y="167.37" width="30.67" height="68.79" rx="10.74" ry="10.74"/><rect class="cls-2" x="153.88" y="141.38" width="30.67" height="94.46" rx="9.49" ry="9.49"/><rect class="cls-2" x="201.83" y="116.19" width="30.67" height="119.17" rx="9.2" ry="9.2"/><rect class="cls-2" x="249.11" y="84.77" width="30.67" height="149.82" rx="9.5" ry="9.5"/></g><g id="Layer_21" data-name="Layer 21"><line class="cls-3" x1="60.82" y1="166.54" x2="160.07" y2="98.67"/><line class="cls-3" x1="170.69" y1="113.03" x2="246.95" y2="65.25"/><line class="cls-3" x1="162.19" y1="99.03" x2="170.89" y2="112.85"/><path class="cls-2" d="M266.93,49.2l-31,3a3.08,3.08,0,0,0-2.36,4.6l12.88,22.32a3.08,3.08,0,0,0,5.17.25l18.13-25.34A3.08,3.08,0,0,0,266.93,49.2Z"/></g></g></svg>