<svg xmlns="http://www.w3.org/2000/svg" viewBox="0 0 368.82 312.69"><defs><style>.cls-1,.cls-3,.cls-5{fill:none;}.cls-1,.cls-2,.cls-3,.cls-4,.cls-5,.cls-6{stroke:#087ef9;}.cls-1,.cls-2,.cls-3,.cls-4,.cls-5,.cls-6,.cls-7{stroke-miterlimit:10;}.cls-2,.cls-4,.cls-6{fill:#07294d;}.cls-2{stroke-width:5px;}.cls-3,.cls-6{stroke-linecap:round;}.cls-3,.cls-4,.cls-5,.cls-6{stroke-width:7px;}.cls-7{fill:#087ef9;stroke:#07294d;stroke-width:4px;}</style></defs><title>IoT</title><g id="Layer_2" data-name="Layer 2"><g id="Layer_23" data-name="Layer 23"><path class="cls-1" d="M119.5,307.49"/><path class="cls-2" d="M118.5,308.49s-104,20-116-77c0,0,2-78,76-78,0,0,9-91,123-93s115,130,115,130,61,9,48,75c0,0-8,46-73,43Z"/></g><g id="Layer_24" data-name="Layer 24"><line class="cls-3" x1="193.44" y1="34.36" x2="191.52" y2="137.16"/><ellipse class="cls-4" cx="192.91" cy="19.28" rx="18.51" ry="15.78"/><line class="cls-3" x1="212.83" y1="89.84" x2="211.82" y2="179.77"/><line class="cls-5" x1="248.36" y1="48.3" x2="212.11" y2="90.72"/><ellipse class="cls-4" cx="259.65" cy="37.48" rx="18.51" ry="15.78"/><line class="cls-3" x1="172.59" y1="88.59" x2="173.61" y2="178.52"/><line class="cls-5" x1="140" y1="52.57" x2="173.51" y2="90.61"/><ellipse class="cls-4" cx="126.58" cy="38.43" rx="18.51" ry="15.78"/><line class="cls-3" x1="235.25" y1="122.88" x2="234.8" y2="198.49"/><line class="cls-3" x1="282.84" y1="96.1" x2="235.74" y2="122.67"/><path class="cls-6" d="M311.25,89.71c-1.69,8.59-11.23,14.39-21.31,13S273,93.09,274.74,84.49s11.23-14.39,21.31-13S312.94,81.12,311.25,89.71Z"/><line class="cls-3" x1="149.75" y1="124.04" x2="148.75" y2="200.53"/><line class="cls-3" x1="106.04" y1="89.44" x2="149.53" y2="124.28"/><path class="cls-4" d="M76.8,84.69c1.69,8.59,11.23,14.39,21.31,13S115,88.07,113.3,79.48,102.07,65.08,92,66.52,75.11,76.1,76.8,84.69Z"/></g><g id="Layer_25" data-name="Layer 25"><path class="cls-4" d="M150.5,225.49s40-39,85,1C235.5,226.49,197.5,184.49,150.5,225.49Z"/><path class="cls-4" d="M227.5,237.37s-30.85-34.09-69-.81c0,0,32.47-31.66,69,.81"/><path class="cls-4" d="M219.45,247.27s-22.78-25.17-50.95-.6c0,0,24-23.38,50.95.6"/><path class="cls-4" d="M212.5,258.34s-16.54-18.28-37-.44c0,0,17.41-17,37,.44"/><path class="cls-4" d="M205.5,267.16s-9.84-8.61-22-.2a18.8,18.8,0,0,1,22,.2"/><circle class="cls-7" cx="195" cy="277.99" r="7.5"/></g></g></svg>