<?xml version="1.0" encoding="utf-8"?>
<svg id="master-artboard" viewBox="0 0 1400 980" version="1.1" xmlns="http://www.w3.org/2000/svg" x="0px" y="0px" style="enable-background:new 0 0 1400 980;" width="1400px" height="980px"><g transform="matrix(0.7837727665901184, 0, 0, 0.7837727665901184, 108.54882701013878, 43.4423972195394)"><rect id="ee-background" x="0" y="0" width="1406.598388671875" height="1250.3624267578125" style="fill: white; fill-opacity: 0; pointer-events: none;"/><g transform="matrix(4.78025484085083, 0, 0, 4.78025484085083, 247.40121459960938, -52.78717041015625)"><title>Leidos-Logo</title><g id="Layer_2" data-name="Layer 2"><g id="Layer_2-2" data-name="Layer 2"><path d="M 0 37.97999954223633 L 229.75999450683594 45.27000045776367 L 105.76000213623047 116.76000213623047 L 0 37.97999954223633 Z" class="cls-1" style="fill: rgb(7, 41, 77);"/></g><g id="Layer_3" data-name="Layer 3"><path d="M 55.5 0 L 16.780000686645508 106.19999694824219 L 230.22000122070312 45.06999969482422 L 55.5 0 Z" class="cls-2" style="fill: rgb(8, 126, 249);"/></g><g id="Layer_4" data-name="Layer 4"><path d="M 32.7400016784668 62.2599983215332 L 70.86000061035156 90.76000213623047 L 230.11000061035156 45.2599983215332 L 41.11000061035156 39.38999938964844 L 32.7400016784668 62.2599983215332 Z" class="cls-3" style="fill: rgb(13, 92, 163);"/></g><g id="Layer_5" data-name="Layer 5"><path class="cls-2" d="M151.71,50.38s16,29.18-12.4,67.1-3.65,84.61,8.75,87.53c0,0-10.21-29.91,12.4-64.19S178.7,62.78,151.71,50.38Z" style="fill: rgb(8, 126, 249);"/><path class="cls-2" d="M122.78,55.24s7.29,20.91-11.18,47.17-.49,53,7.78,56.89c0,0-9.24-16,8.27-45.22S134,62.54,122.78,55.24Z" style="fill: rgb(8, 126, 249);"/><path class="cls-2" d="M183.08,100s7.29,20.91-11.18,47.17-.49,53,7.78,56.89c0,0-9.24-16,8.27-45.22S194.26,107.27,183.08,100Z" style="fill: rgb(8, 126, 249);"/></g></g></g><path d="M 595.8218994140625 931.7799682617188 C 595.8218994140625 941.8999633789062 592.3685913085938 949.6799926757812 585.4619140625 955.1199951171875 C 578.5618896484375 960.566650390625 568.6852416992188 963.2899780273438 555.8319091796875 963.2899780273438 L 544.0718994140625 963.2899780273438 L 544.0718994140625 1002.5999755859375 L 532.451904296875 1002.5999755859375 L 532.451904296875 902.6599731445312 L 558.3619384765625 902.6599731445312 C 583.3352661132812 902.6599731445312 595.8218994140625 912.3666381835938 595.8218994140625 931.7799682617188 M 544.0718994140625 953.3099975585938 L 554.5319213867188 953.3099975585938 C 564.8319091796875 953.3099975585938 572.2819213867188 951.6466674804688 576.8818969726562 948.3199462890625 C 581.4885864257812 944.9932861328125 583.7919311523438 939.663330078125 583.7919311523438 932.3299560546875 C 583.7919311523438 925.7166748046875 581.625244140625 920.7933349609375 577.2919311523438 917.5599975585938 C 572.9652709960938 914.32666015625 566.221923828125 912.7099609375 557.0618896484375 912.7099609375 L 544.0718994140625 912.7099609375 L 544.0718994140625 953.3099975585938 ZM 649.2051391601562 926.3099975585938 C 652.5317993164062 926.3099975585938 655.5184326171875 926.5833129882812 658.1651000976562 927.1300048828125 L 656.5851440429688 937.6599731445312 C 653.4917602539062 936.9733276367188 650.7584228515625 936.6300048828125 648.3851318359375 936.6300048828125 C 642.3251342773438 936.6300048828125 637.1417846679688 939.0933227539062 632.8351440429688 944.0199584960938 C 628.5284423828125 948.9400024414062 626.3751220703125 955.066650390625 626.3751220703125 962.3999633789062 L 626.3751220703125 1002.5999755859375 L 615.025146484375 1002.5999755859375 L 615.025146484375 927.6799926757812 L 624.3951416015625 927.6799926757812 L 625.6951293945312 941.5599975585938 L 626.235107421875 941.5599975585938 C 629.01513671875 936.6799926757812 632.3651123046875 932.9199829101562 636.2850952148438 930.2799682617188 C 640.2051391601562 927.63330078125 644.5117797851562 926.3099975585938 649.2051391601562 926.3099975585938 ZM 736.8408813476562 965.0699462890625 C 736.8408813476562 977.2833251953125 733.7642211914062 986.8199462890625 727.61083984375 993.6799926757812 C 721.45751953125 1000.5399780273438 712.95751953125 1003.969970703125 702.11083984375 1003.969970703125 C 695.410888671875 1003.969970703125 689.4642333984375 1002.3966674804688 684.2708740234375 999.25 C 679.0775146484375 996.1033325195312 675.0675048828125 991.5933227539062 672.2408447265625 985.719970703125 C 669.4141845703125 979.8399658203125 668.0008544921875 972.9566650390625 668.0008544921875 965.0699462890625 C 668.0008544921875 952.8566284179688 671.05419921875 943.3433227539062 677.160888671875 936.5299682617188 C 683.2675170898438 929.7166748046875 691.7442016601562 926.3099975585938 702.5908813476562 926.3099975585938 C 713.0708618164062 926.3099975585938 721.40087890625 929.796630859375 727.5808715820312 936.7699584960938 C 733.7542114257812 943.7432861328125 736.8408813476562 953.1766357421875 736.8408813476562 965.0699462890625 M 679.7608642578125 965.0699462890625 C 679.7608642578125 974.643310546875 681.6741943359375 981.9366455078125 685.5008544921875 986.949951171875 C 689.3275146484375 991.9633178710938 694.95751953125 994.469970703125 702.390869140625 994.469970703125 C 709.8175048828125 994.469970703125 715.45751953125 991.9733276367188 719.3108520507812 986.97998046875 C 723.1575317382812 981.9866333007812 725.0808715820312 974.6832885742188 725.0808715820312 965.0699462890625 C 725.0808715820312 955.5433349609375 723.1575317382812 948.3099975585938 719.3108520507812 943.3699951171875 C 715.45751953125 938.42333984375 709.7708740234375 935.949951171875 702.2508544921875 935.949951171875 C 694.82421875 935.949951171875 689.217529296875 938.3866577148438 685.4308471679688 943.2599487304688 C 681.65087890625 948.1399536132812 679.7608642578125 955.4099731445312 679.7608642578125 965.0699462890625 ZM 773.1375122070312 1002.5999755859375 L 744.697509765625 927.6799926757812 L 756.8674926757812 927.6799926757812 L 772.9974975585938 972.1099853515625 C 776.6441650390625 982.5032958984375 778.7875366210938 989.25 779.427490234375 992.3499755859375 L 779.967529296875 992.3499755859375 C 780.4741821289062 989.9299926757812 782.0574951171875 984.9266357421875 784.717529296875 977.3399658203125 C 787.3841552734375 969.7532958984375 793.3674926757812 953.199951171875 802.66748046875 927.6799926757812 L 814.8375244140625 927.6799926757812 L 786.3975219726562 1002.5999755859375 L 773.1375122070312 1002.5999755859375 ZM 838.2109375 1002.5999755859375 L 826.8609619140625 1002.5999755859375 L 826.8609619140625 927.6799926757812 L 838.2109375 927.6799926757812 L 838.2109375 1002.5999755859375 M 825.9009399414062 907.3800048828125 C 825.9009399414062 904.7799682617188 826.5409545898438 902.8766479492188 827.8209228515625 901.6699829101562 C 829.09423828125 900.4633178710938 830.6876220703125 899.8599853515625 832.6009521484375 899.8599853515625 C 834.4276123046875 899.8599853515625 836.0009155273438 900.4733276367188 837.3209228515625 901.699951171875 C 838.6409301757812 902.9332885742188 839.3009033203125 904.82666015625 839.3009033203125 907.3800048828125 C 839.3009033203125 909.9266357421875 838.6409301757812 911.82666015625 837.3209228515625 913.0799560546875 C 836.0009155273438 914.3333129882812 834.4276123046875 914.9599609375 832.6009521484375 914.9599609375 C 830.6876220703125 914.9599609375 829.09423828125 914.3333129882812 827.8209228515625 913.0799560546875 C 826.5409545898438 911.82666015625 825.9009399414062 909.9266357421875 825.9009399414062 907.3800048828125 ZM 913.2694091796875 992.5499877929688 L 912.6494140625 992.5499877929688 C 907.409423828125 1000.163330078125 899.57275390625 1003.969970703125 889.1394653320312 1003.969970703125 C 879.3394165039062 1003.969970703125 871.7161254882812 1000.6199951171875 866.2694702148438 993.9199829101562 C 860.82275390625 987.219970703125 858.0994262695312 977.6932983398438 858.0994262695312 965.3399658203125 C 858.0994262695312 952.9932861328125 860.832763671875 943.3999633789062 866.2994384765625 936.5599975585938 C 871.7727661132812 929.7266235351562 879.3861083984375 926.3099975585938 889.1394653320312 926.3099975585938 C 899.2994384765625 926.3099975585938 907.0927734375 930.0032958984375 912.5194091796875 937.3899536132812 L 913.3994140625 937.3899536132812 L 912.929443359375 931.97998046875 L 912.6494140625 926.719970703125 L 912.6494140625 896.22998046875 L 923.9994506835938 896.22998046875 L 923.9994506835938 1002.5999755859375 L 914.7694091796875 1002.5999755859375 L 913.2694091796875 992.5499877929688 M 890.5694580078125 994.469970703125 C 898.3161010742188 994.469970703125 903.9328002929688 992.3599853515625 907.41943359375 988.1399536132812 C 910.9061279296875 983.9266357421875 912.6494140625 977.1266479492188 912.6494140625 967.739990234375 L 912.6494140625 965.3399658203125 C 912.6494140625 954.7266235351562 910.8827514648438 947.1499633789062 907.3494262695312 942.6099853515625 C 903.82275390625 938.07666015625 898.1860961914062 935.8099975585938 890.439453125 935.8099975585938 C 883.7794189453125 935.8099975585938 878.6860961914062 938.3966674804688 875.159423828125 943.5699462890625 C 871.6260986328125 948.7432861328125 869.8594360351562 956.046630859375 869.8594360351562 965.47998046875 C 869.8594360351562 975.0532836914062 871.61279296875 982.276611328125 875.1194458007812 987.1499633789062 C 878.6327514648438 992.0299682617188 883.7827758789062 994.469970703125 890.5694580078125 994.469970703125 ZM 979.7064819335938 1003.969970703125 C 968.6331787109375 1003.969970703125 959.896484375 1000.5966186523438 953.4964599609375 993.8499755859375 C 947.08984375 987.1033325195312 943.886474609375 977.7366333007812 943.886474609375 965.75 C 943.886474609375 953.6766357421875 946.8598022460938 944.0833129882812 952.8065185546875 936.969970703125 C 958.753173828125 929.86328125 966.7398071289062 926.3099975585938 976.7664794921875 926.3099975585938 C 986.1531372070312 926.3099975585938 993.5831298828125 929.3966674804688 999.0565185546875 935.5699462890625 C 1004.5231323242188 941.75 1007.2564697265625 949.8966674804688 1007.2564697265625 960.0099487304688 L 1007.2564697265625 967.1900024414062 L 955.646484375 967.1900024414062 C 955.8731689453125 975.9833374023438 958.0931396484375 982.6599731445312 962.3065185546875 987.219970703125 C 966.5264892578125 991.7799682617188 972.463134765625 994.0599975585938 980.1165161132812 994.0599975585938 C 988.1831665039062 994.0599975585938 996.1598510742188 992.373291015625 1004.0465087890625 989 L 1004.0465087890625 999.1099853515625 C 1000.0331420898438 1000.8433227539062 996.2398071289062 1002.086669921875 992.66650390625 1002.8399658203125 C 989.0864868164062 1003.5933227539062 984.7664794921875 1003.969970703125 979.7064819335938 1003.969970703125 M 976.636474609375 935.8099975585938 C 970.6165161132812 935.8099975585938 965.81982421875 937.7699584960938 962.2464599609375 941.6900024414062 C 958.66650390625 945.6099853515625 956.5565185546875 951.0333251953125 955.91650390625 957.9599609375 L 995.0864868164062 957.9599609375 C 995.0864868164062 950.806640625 993.4931640625 945.32666015625 990.3065185546875 941.5199584960938 C 987.1131591796875 937.7133178710938 982.5565185546875 935.8099975585938 976.636474609375 935.8099975585938 ZM 1060.7777099609375 926.3099975585938 C 1064.1043701171875 926.3099975585938 1067.091064453125 926.5833129882812 1069.73779296875 927.1300048828125 L 1068.15771484375 937.6599731445312 C 1065.064453125 936.9733276367188 1062.3310546875 936.6300048828125 1059.957763671875 936.6300048828125 C 1053.897705078125 936.6300048828125 1048.71435546875 939.0933227539062 1044.40771484375 944.0199584960938 C 1040.10107421875 948.9400024414062 1037.94775390625 955.066650390625 1037.94775390625 962.3999633789062 L 1037.94775390625 1002.5999755859375 L 1026.5977783203125 1002.5999755859375 L 1026.5977783203125 927.6799926757812 L 1035.9677734375 927.6799926757812 L 1037.2677001953125 941.5599975585938 L 1037.8077392578125 941.5599975585938 C 1040.5877685546875 936.6799926757812 1043.937744140625 932.9199829101562 1047.8577880859375 930.2799682617188 C 1051.7777099609375 927.63330078125 1056.08447265625 926.3099975585938 1060.7777099609375 926.3099975585938 ZM 1132.073486328125 982.1599731445312 C 1132.073486328125 989.13330078125 1129.476806640625 994.5099487304688 1124.283447265625 998.2899780273438 C 1119.0902099609375 1002.07666015625 1111.796875 1003.969970703125 1102.4034423828125 1003.969970703125 C 1092.47021484375 1003.969970703125 1084.7235107421875 1002.3966674804688 1079.1634521484375 999.25 L 1079.1634521484375 988.719970703125 C 1082.7635498046875 990.546630859375 1086.6268310546875 991.9833374023438 1090.7535400390625 993.0299682617188 C 1094.87353515625 994.07666015625 1098.8502197265625 994.5999755859375 1102.6834716796875 994.5999755859375 C 1108.603515625 994.5999755859375 1113.16015625 993.6566162109375 1116.353515625 991.7699584960938 C 1119.5401611328125 989.8766479492188 1121.133544921875 986.9932861328125 1121.133544921875 983.1199951171875 C 1121.133544921875 980.199951171875 1119.8701171875 977.7033081054688 1117.343505859375 975.6300048828125 C 1114.81689453125 973.556640625 1109.883544921875 971.1066284179688 1102.54345703125 968.2799682617188 C 1095.5701904296875 965.6866455078125 1090.613525390625 963.4199829101562 1087.6734619140625 961.47998046875 C 1084.7335205078125 959.546630859375 1082.546875 957.3499755859375 1081.113525390625 954.8899536132812 C 1079.68017578125 952.42333984375 1078.9635009765625 949.4833374023438 1078.9635009765625 946.0699462890625 C 1078.9635009765625 939.9633178710938 1081.44677734375 935.143310546875 1086.4134521484375 931.6099853515625 C 1091.380126953125 928.07666015625 1098.1934814453125 926.3099975585938 1106.853515625 926.3099975585938 C 1114.920166015625 926.3099975585938 1122.803466796875 927.949951171875 1130.5035400390625 931.22998046875 L 1126.4735107421875 940.4599609375 C 1118.9534912109375 937.3599853515625 1112.14013671875 935.8099975585938 1106.033447265625 935.8099975585938 C 1100.6534423828125 935.8099975585938 1096.5968017578125 936.6533203125 1093.863525390625 938.3399658203125 C 1091.130126953125 940.026611328125 1089.7635498046875 942.3499755859375 1089.7635498046875 945.3099975585938 C 1089.7635498046875 947.316650390625 1090.2735595703125 949.026611328125 1091.29345703125 950.4400024414062 C 1092.3201904296875 951.8533325195312 1093.9735107421875 953.1966552734375 1096.2535400390625 954.469970703125 C 1098.533447265625 955.75 1102.91015625 957.5966186523438 1109.383544921875 960.0099487304688 C 1118.2701416015625 963.25 1124.2735595703125 966.5099487304688 1127.3935546875 969.7899780273438 C 1130.5135498046875 973.0699462890625 1132.073486328125 977.1932983398438 1132.073486328125 982.1599731445312 Z" transform="matrix(1.5401744842529297, 0, 0, 1.5401744842529297, -549.5492553710938, -357.80596923828125)" style="fill: rgb(51, 51, 51); white-space: pre; color: rgb(51, 51, 51);"/></g></svg>