<?xml version="1.0" encoding="utf-8"?>
<svg id="master-artboard" viewBox="0 0 1400 980" xmlns="http://www.w3.org/2000/svg" width="1400px" height="980px" version="1.1" style="shape-rendering:geometricPrecision; text-rendering:geometricPrecision; image-rendering:optimizeQuality; fill-rule:evenodd; clip-rule:evenodd"><g transform="matrix(0.9999999128069197, 0, 0, 0.9999999128069197, -0.000021428595573524944, 0.000045021568666925305)"><g transform="matrix(0.7510476895682521, 0, 0, 0.7510476895682521, 161.9385839473804, 44.37920071546899)"><rect id="ee-background" x="0" y="0" width="1406.598388671875" height="1250.3624267578125" style="fill: white; fill-opacity: 0; pointer-events: none;"/><g transform="matrix(4.78025484085083, 0, 0, 4.78025484085083, 247.40121459960938, -52.78717041015625)"><title>Leidos-Logo</title><g id="Layer_2" data-name="Layer 2"><g id="Layer_2-2" data-name="Layer 2"><path d="M 0 37.97999954223633 L 229.75999450683594 45.27000045776367 L 105.76000213623047 116.76000213623047 L 0 37.97999954223633 Z" class="cls-1" style="fill: rgb(7, 41, 77);"/></g><g id="Layer_3" data-name="Layer 3"><path d="M 55.5 0 L 16.780000686645508 106.19999694824219 L 230.22000122070312 45.06999969482422 L 55.5 0 Z" class="cls-2" style="fill: rgb(8, 126, 249);"/></g><g id="Layer_4" data-name="Layer 4"><path d="M 32.7400016784668 62.2599983215332 L 70.86000061035156 90.76000213623047 L 230.11000061035156 45.2599983215332 L 41.11000061035156 39.38999938964844 L 32.7400016784668 62.2599983215332 Z" class="cls-3" style="fill: rgb(13, 92, 163);"/></g><g id="Layer_5" data-name="Layer 5"><path class="cls-2" d="M151.71,50.38s16,29.18-12.4,67.1-3.65,84.61,8.75,87.53c0,0-10.21-29.91,12.4-64.19S178.7,62.78,151.71,50.38Z" style="fill: rgb(8, 126, 249);"/><path class="cls-2" d="M122.78,55.24s7.29,20.91-11.18,47.17-.49,53,7.78,56.89c0,0-9.24-16,8.27-45.22S134,62.54,122.78,55.24Z" style="fill: rgb(8, 126, 249);"/><path class="cls-2" d="M183.08,100s7.29,20.91-11.18,47.17-.49,53,7.78,56.89c0,0-9.24-16,8.27-45.22S194.26,107.27,183.08,100Z" style="fill: rgb(8, 126, 249);"/></g></g></g><path d="M 619.201904296875 952.489990234375 C 619.201904296875 968.489990234375 615.1552734375 981.0699462890625 607.0618896484375 990.22998046875 C 598.9752197265625 999.3899536132812 587.73193359375 1003.969970703125 573.3319091796875 1003.969970703125 C 558.6119384765625 1003.969970703125 547.2518920898438 999.469970703125 539.2518920898438 990.469970703125 C 531.2518920898438 981.469970703125 527.2518920898438 968.7666625976562 527.2518920898438 952.3599853515625 C 527.2518920898438 936.086669921875 531.2652587890625 923.4733276367188 539.2919311523438 914.5199584960938 C 547.3118896484375 905.566650390625 558.7052612304688 901.0899658203125 573.471923828125 901.0899658203125 C 587.8252563476562 901.0899658203125 599.0352783203125 905.6466674804688 607.1019287109375 914.760009765625 C 615.1685791015625 923.873291015625 619.201904296875 936.449951171875 619.201904296875 952.489990234375 M 539.5618896484375 952.489990234375 C 539.5618896484375 966.0299682617188 542.4452514648438 976.296630859375 548.2119140625 983.2899780273438 C 553.971923828125 990.2833251953125 562.3452758789062 993.7799682617188 573.3319091796875 993.7799682617188 C 584.4052734375 993.7799682617188 592.7685546875 990.2933349609375 598.4219360351562 983.3199462890625 C 604.068603515625 976.3466186523438 606.8919067382812 966.0699462890625 606.8919067382812 952.489990234375 C 606.8919067382812 939.0499877929688 604.07861328125 928.8533325195312 598.451904296875 921.8999633789062 C 592.8252563476562 914.9533081054688 584.4985961914062 911.47998046875 573.471923828125 911.47998046875 C 562.3919067382812 911.47998046875 553.971923828125 914.9766235351562 548.2119140625 921.969970703125 C 542.4452514648438 928.9633178710938 539.5618896484375 939.1366577148438 539.5618896484375 952.489990234375 ZM 673.9500732421875 926.3099975585938 C 677.2767333984375 926.3099975585938 680.2633666992188 926.5833129882812 682.9100341796875 927.1300048828125 L 681.330078125 937.6599731445312 C 678.2366943359375 936.9733276367188 675.5033569335938 936.6300048828125 673.1300659179688 936.6300048828125 C 667.070068359375 936.6300048828125 661.88671875 939.0933227539062 657.580078125 944.0199584960938 C 653.2733764648438 948.9400024414062 651.1200561523438 955.066650390625 651.1200561523438 962.3999633789062 L 651.1200561523438 1002.5999755859375 L 639.7700805664062 1002.5999755859375 L 639.7700805664062 927.6799926757812 L 649.1400756835938 927.6799926757812 L 650.4400634765625 941.5599975585938 L 650.9800415039062 941.5599975585938 C 653.7600708007812 936.6799926757812 657.1100463867188 932.9199829101562 661.030029296875 930.2799682617188 C 664.9500732421875 927.63330078125 669.2567138671875 926.3099975585938 673.9500732421875 926.3099975585938 ZM 758.2357788085938 927.6799926757812 L 758.2357788085938 934.8599853515625 L 744.3558349609375 936.5 C 745.6358032226562 938.0933227539062 746.7758178710938 940.1766357421875 747.7758178710938 942.75 C 748.7758178710938 945.3233032226562 749.2758178710938 948.22998046875 749.2758178710938 951.469970703125 C 749.2758178710938 958.8032836914062 746.7724609375 964.6599731445312 741.7658081054688 969.0399780273438 C 736.75244140625 973.413330078125 729.869140625 975.5999755859375 721.1157836914062 975.5999755859375 C 718.8824462890625 975.5999755859375 716.7858276367188 975.4166259765625 714.8258056640625 975.0499877929688 C 709.9991455078125 977.6033325195312 707.5858154296875 980.816650390625 707.5858154296875 984.6900024414062 C 707.5858154296875 986.7432861328125 708.42578125 988.2599487304688 710.1057739257812 989.239990234375 C 711.79248046875 990.219970703125 714.6891479492188 990.7099609375 718.7957763671875 990.7099609375 L 732.0557861328125 990.7099609375 C 740.1691284179688 990.7099609375 746.3991088867188 992.4166259765625 750.7457885742188 995.8299560546875 C 755.09912109375 999.25 757.2758178710938 1004.2166137695312 757.2758178710938 1010.72998046875 C 757.2758178710938 1019.0299682617188 753.9491577148438 1025.353271484375 747.2957763671875 1029.699951171875 C 740.6424560546875 1034.0533447265625 730.935791015625 1036.22998046875 718.17578125 1036.22998046875 C 708.3757934570312 1036.22998046875 700.8224487304688 1034.4066162109375 695.5158081054688 1030.760009765625 C 690.2091064453125 1027.1199951171875 687.5557861328125 1021.969970703125 687.5557861328125 1015.3099975585938 C 687.5557861328125 1010.7566528320312 689.012451171875 1006.816650390625 691.92578125 1003.489990234375 C 694.8458251953125 1000.163330078125 698.9491577148438 997.9066162109375 704.2357788085938 996.719970703125 C 702.3157958984375 995.8533325195312 700.7091064453125 994.5099487304688 699.4158325195312 992.6900024414062 C 698.1157836914062 990.86328125 697.4658203125 988.7432861328125 697.4658203125 986.3299560546875 C 697.4658203125 983.5966186523438 698.19580078125 981.2033081054688 699.6558227539062 979.1499633789062 C 701.109130859375 977.1033325195312 703.4091186523438 975.123291015625 706.5557861328125 973.2099609375 C 702.6824951171875 971.6099853515625 699.5258178710938 968.8966674804688 697.0858154296875 965.0699462890625 C 694.6458129882812 961.2432861328125 693.42578125 956.8699951171875 693.42578125 951.949951171875 C 693.42578125 943.7432861328125 695.88916015625 937.4199829101562 700.8157958984375 932.97998046875 C 705.7357788085938 928.5333251953125 712.7091064453125 926.3099975585938 721.7357788085938 926.3099975585938 C 725.6491088867188 926.3099975585938 729.1791381835938 926.7666625976562 732.3258056640625 927.6799926757812 L 758.2357788085938 927.6799926757812 M 698.4857788085938 1015.1799926757812 C 698.4857788085938 1019.2333374023438 700.19580078125 1022.3099975585938 703.6157836914062 1024.4100341796875 C 707.0358276367188 1026.5032958984375 711.935791015625 1027.5499267578125 718.3157958984375 1027.5499267578125 C 727.8358154296875 1027.5499267578125 734.8858032226562 1026.1265869140625 739.4658203125 1023.2799682617188 C 744.052490234375 1020.4332885742188 746.3458251953125 1016.5699462890625 746.3458251953125 1011.6900024414062 C 746.3458251953125 1007.6366577148438 745.0924682617188 1004.8233032226562 742.5858154296875 1003.25 C 740.0791625976562 1001.6766357421875 735.359130859375 1000.8899536132812 728.42578125 1000.8899536132812 L 714.8258056640625 1000.8899536132812 C 709.6791381835938 1000.8899536132812 705.6691284179688 1002.1199951171875 702.7957763671875 1004.5799560546875 C 699.9224853515625 1007.0399780273438 698.4857788085938 1010.5733032226562 698.4857788085938 1015.1799926757812 M 704.6458129882812 951.6699829101562 C 704.6458129882812 956.9099731445312 706.1257934570312 960.8766479492188 709.0858154296875 963.5699462890625 C 712.0457763671875 966.2566528320312 716.1691284179688 967.5999755859375 721.455810546875 967.5999755859375 C 732.5291137695312 967.5999755859375 738.0657958984375 962.2233276367188 738.0657958984375 951.469970703125 C 738.0657958984375 940.2099609375 732.4624633789062 934.5799560546875 721.2557983398438 934.5799560546875 C 715.9224853515625 934.5799560546875 711.8191528320312 936.0166625976562 708.94580078125 938.8899536132812 C 706.0791625976562 941.7633056640625 704.6458129882812 946.0233154296875 704.6458129882812 951.6699829101562 ZM 819.69140625 1002.5999755859375 L 817.431396484375 991.9400024414062 L 816.8814086914062 991.9400024414062 C 813.1480712890625 996.63330078125 809.4247436523438 999.8099975585938 805.71142578125 1001.469970703125 C 801.9913940429688 1003.1366577148438 797.3514404296875 1003.969970703125 791.7914428710938 1003.969970703125 C 784.36474609375 1003.969970703125 778.5447387695312 1002.0532836914062 774.3314208984375 998.219970703125 C 770.1181030273438 994.393310546875 768.0114135742188 988.949951171875 768.0114135742188 981.8899536132812 C 768.0114135742188 966.7566528320312 780.1080932617188 958.82666015625 804.3013916015625 958.0999755859375 L 817.0214233398438 957.6900024414062 L 817.0214233398438 953.0399780273438 C 817.0214233398438 947.1599731445312 815.758056640625 942.8199462890625 813.2314453125 940.0199584960938 C 810.6980590820312 937.2133178710938 806.6514282226562 935.8099975585938 801.0914306640625 935.8099975585938 C 794.8514404296875 935.8099975585938 787.7880859375 937.7266235351562 779.9014282226562 941.5599975585938 L 776.4114379882812 932.8699951171875 C 780.104736328125 930.8699951171875 784.1514282226562 929.2999877929688 788.5513916015625 928.1599731445312 C 792.9447631835938 927.0199584960938 797.354736328125 926.449951171875 801.7814331054688 926.449951171875 C 810.7080688476562 926.449951171875 817.3247680664062 928.4299926757812 821.6314086914062 932.3899536132812 C 825.9381103515625 936.3566284179688 828.0914306640625 942.7166137695312 828.0914306640625 951.469970703125 L 828.0914306640625 1002.5999755859375 L 819.69140625 1002.5999755859375 M 794.0513916015625 994.5999755859375 C 801.1181030273438 994.5999755859375 806.6680908203125 992.663330078125 810.701416015625 988.7899780273438 C 814.7347412109375 984.9166259765625 816.7514038085938 979.4932861328125 816.7514038085938 972.5199584960938 L 816.7514038085938 965.75 L 805.4014282226562 966.22998046875 C 796.374755859375 966.5499877929688 789.8681030273438 967.9533081054688 785.8814086914062 970.4400024414062 C 781.894775390625 972.9199829101562 779.9014282226562 976.7799682617188 779.9014282226562 982.0199584960938 C 779.9014282226562 986.1266479492188 781.144775390625 989.25 783.6314086914062 991.3899536132812 C 786.1114501953125 993.5299682617188 789.5847778320312 994.5999755859375 794.0513916015625 994.5999755859375 ZM 902.7391357421875 1002.5999755859375 L 902.7391357421875 954.1300048828125 C 902.7391357421875 948.0233154296875 901.34912109375 943.4666137695312 898.5691528320312 940.4599609375 C 895.7891235351562 937.4533081054688 891.435791015625 935.949951171875 885.5091552734375 935.949951171875 C 877.6758422851562 935.949951171875 871.935791015625 938.0699462890625 868.2891235351562 942.3099975585938 C 864.6424560546875 946.5433349609375 862.8191528320312 953.53662109375 862.8191528320312 963.2899780273438 L 862.8191528320312 1002.5999755859375 L 851.4691772460938 1002.5999755859375 L 851.4691772460938 927.6799926757812 L 860.6991577148438 927.6799926757812 L 862.5491333007812 937.9299926757812 L 863.0891723632812 937.9299926757812 C 865.4158325195312 934.2366333007812 868.6758422851562 931.3766479492188 872.869140625 929.3499755859375 C 877.0625 927.3233032226562 881.7324829101562 926.3099975585938 886.879150390625 926.3099975585938 C 895.9058227539062 926.3099975585938 902.69580078125 928.4866333007812 907.2491455078125 932.8399658203125 C 911.8091430664062 937.1932983398438 914.0891723632812 944.1533203125 914.0891723632812 953.719970703125 L 914.0891723632812 1002.5999755859375 L 902.7391357421875 1002.5999755859375 ZM 948.742919921875 1002.5999755859375 L 937.3929443359375 1002.5999755859375 L 937.3929443359375 927.6799926757812 L 948.742919921875 927.6799926757812 L 948.742919921875 1002.5999755859375 M 936.4329223632812 907.3800048828125 C 936.4329223632812 904.7799682617188 937.0729370117188 902.8766479492188 938.3529052734375 901.6699829101562 C 939.626220703125 900.4633178710938 941.2196044921875 899.8599853515625 943.1329345703125 899.8599853515625 C 944.9595947265625 899.8599853515625 946.5328979492188 900.4733276367188 947.8529052734375 901.699951171875 C 949.1729125976562 902.9332885742188 949.8328857421875 904.82666015625 949.8328857421875 907.3800048828125 C 949.8328857421875 909.9266357421875 949.1729125976562 911.82666015625 947.8529052734375 913.0799560546875 C 946.5328979492188 914.3333129882812 944.9595947265625 914.9599609375 943.1329345703125 914.9599609375 C 941.2196044921875 914.9599609375 939.626220703125 914.3333129882812 938.3529052734375 913.0799560546875 C 937.0729370117188 911.82666015625 936.4329223632812 909.9266357421875 936.4329223632812 907.3800048828125 ZM 1020.7213745117188 1002.5999755859375 L 966.38134765625 1002.5999755859375 L 966.38134765625 994.8800048828125 L 1007.2513427734375 936.5 L 968.9013671875 936.5 L 968.9013671875 927.6799926757812 L 1019.7013549804688 927.6799926757812 L 1019.7013549804688 936.5 L 979.3613891601562 993.7799682617188 L 1020.7213745117188 993.7799682617188 L 1020.7213745117188 1002.5999755859375 ZM 1084.3665771484375 1002.5999755859375 L 1082.1065673828125 991.9400024414062 L 1081.556640625 991.9400024414062 C 1077.8232421875 996.63330078125 1074.0999755859375 999.8099975585938 1070.3865966796875 1001.469970703125 C 1066.6666259765625 1003.1366577148438 1062.026611328125 1003.969970703125 1056.466552734375 1003.969970703125 C 1049.0399169921875 1003.969970703125 1043.219970703125 1002.0532836914062 1039.006591796875 998.219970703125 C 1034.793212890625 994.393310546875 1032.6866455078125 988.949951171875 1032.6866455078125 981.8899536132812 C 1032.6866455078125 966.7566528320312 1044.783203125 958.82666015625 1068.9765625 958.0999755859375 L 1081.696533203125 957.6900024414062 L 1081.696533203125 953.0399780273438 C 1081.696533203125 947.1599731445312 1080.4332275390625 942.8199462890625 1077.9066162109375 940.0199584960938 C 1075.373291015625 937.2133178710938 1071.3265380859375 935.8099975585938 1065.7666015625 935.8099975585938 C 1059.526611328125 935.8099975585938 1052.4632568359375 937.7266235351562 1044.5765380859375 941.5599975585938 L 1041.0865478515625 932.8699951171875 C 1044.7799072265625 930.8699951171875 1048.8265380859375 929.2999877929688 1053.2265625 928.1599731445312 C 1057.619873046875 927.0199584960938 1062.0299072265625 926.449951171875 1066.45654296875 926.449951171875 C 1075.38330078125 926.449951171875 1081.9998779296875 928.4299926757812 1086.306640625 932.3899536132812 C 1090.61328125 936.3566284179688 1092.7666015625 942.7166137695312 1092.7666015625 951.469970703125 L 1092.7666015625 1002.5999755859375 L 1084.3665771484375 1002.5999755859375 M 1058.7265625 994.5999755859375 C 1065.793212890625 994.5999755859375 1071.34326171875 992.663330078125 1075.3765869140625 988.7899780273438 C 1079.409912109375 984.9166259765625 1081.4266357421875 979.4932861328125 1081.4266357421875 972.5199584960938 L 1081.4266357421875 965.75 L 1070.0765380859375 966.22998046875 C 1061.0499267578125 966.5499877929688 1054.543212890625 967.9533081054688 1050.556640625 970.4400024414062 C 1046.5699462890625 972.9199829101562 1044.5765380859375 976.7799682617188 1044.5765380859375 982.0199584960938 C 1044.5765380859375 986.1266479492188 1045.8199462890625 989.25 1048.306640625 991.3899536132812 C 1050.78662109375 993.5299682617188 1054.2598876953125 994.5999755859375 1058.7265625 994.5999755859375 ZM 1140.34423828125 994.5999755859375 C 1142.3509521484375 994.5999755859375 1144.28759765625 994.4533081054688 1146.154296875 994.1599731445312 C 1148.0208740234375 993.8599853515625 1149.5009765625 993.5499877929688 1150.59423828125 993.22998046875 L 1150.59423828125 1001.9199829101562 C 1149.3675537109375 1002.5133056640625 1147.5576171875 1003.0032958984375 1145.164306640625 1003.3899536132812 C 1142.7708740234375 1003.7766723632812 1140.6175537109375 1003.969970703125 1138.7042236328125 1003.969970703125 C 1124.2109375 1003.969970703125 1116.9642333984375 996.336669921875 1116.9642333984375 981.0699462890625 L 1116.9642333984375 936.5 L 1106.2342529296875 936.5 L 1106.2342529296875 931.0299682617188 L 1116.9642333984375 926.3099975585938 L 1121.7542724609375 910.3099975585938 L 1128.314208984375 910.3099975585938 L 1128.314208984375 927.6799926757812 L 1150.05419921875 927.6799926757812 L 1150.05419921875 936.5 L 1128.314208984375 936.5 L 1128.314208984375 980.5899658203125 C 1128.314208984375 985.1033325195312 1129.38427734375 988.566650390625 1131.5242919921875 990.97998046875 C 1133.6708984375 993.393310546875 1136.6109619140625 994.5999755859375 1140.34423828125 994.5999755859375 ZM 1176.9158935546875 1002.5999755859375 L 1165.56591796875 1002.5999755859375 L 1165.56591796875 927.6799926757812 L 1176.9158935546875 927.6799926757812 L 1176.9158935546875 1002.5999755859375 M 1164.6058349609375 907.3800048828125 C 1164.6058349609375 904.7799682617188 1165.245849609375 902.8766479492188 1166.52587890625 901.6699829101562 C 1167.7991943359375 900.4633178710938 1169.392578125 899.8599853515625 1171.305908203125 899.8599853515625 C 1173.132568359375 899.8599853515625 1174.7059326171875 900.4733276367188 1176.02587890625 901.699951171875 C 1177.345947265625 902.9332885742188 1178.005859375 904.82666015625 1178.005859375 907.3800048828125 C 1178.005859375 909.9266357421875 1177.345947265625 911.82666015625 1176.02587890625 913.0799560546875 C 1174.7059326171875 914.3333129882812 1173.132568359375 914.9599609375 1171.305908203125 914.9599609375 C 1169.392578125 914.9599609375 1167.7991943359375 914.3333129882812 1166.52587890625 913.0799560546875 C 1165.245849609375 911.82666015625 1164.6058349609375 909.9266357421875 1164.6058349609375 907.3800048828125 ZM 1265.644287109375 965.0699462890625 C 1265.644287109375 977.2833251953125 1262.567626953125 986.8199462890625 1256.414306640625 993.6799926757812 C 1250.260986328125 1000.5399780273438 1241.760986328125 1003.969970703125 1230.914306640625 1003.969970703125 C 1224.21435546875 1003.969970703125 1218.2677001953125 1002.3966674804688 1213.0743408203125 999.25 C 1207.8809814453125 996.1033325195312 1203.8709716796875 991.5933227539062 1201.0443115234375 985.719970703125 C 1198.2176513671875 979.8399658203125 1196.8043212890625 972.9566650390625 1196.8043212890625 965.0699462890625 C 1196.8043212890625 952.8566284179688 1199.857666015625 943.3433227539062 1205.96435546875 936.5299682617188 C 1212.071044921875 929.7166748046875 1220.547607421875 926.3099975585938 1231.394287109375 926.3099975585938 C 1241.8743896484375 926.3099975585938 1250.204345703125 929.796630859375 1256.38427734375 936.7699584960938 C 1262.5576171875 943.7432861328125 1265.644287109375 953.1766357421875 1265.644287109375 965.0699462890625 M 1208.5643310546875 965.0699462890625 C 1208.5643310546875 974.643310546875 1210.4776611328125 981.9366455078125 1214.3043212890625 986.949951171875 C 1218.1309814453125 991.9633178710938 1223.760986328125 994.469970703125 1231.1943359375 994.469970703125 C 1238.6209716796875 994.469970703125 1244.260986328125 991.9733276367188 1248.1143798828125 986.97998046875 C 1251.9610595703125 981.9866333007812 1253.88427734375 974.6832885742188 1253.88427734375 965.0699462890625 C 1253.88427734375 955.5433349609375 1251.9610595703125 948.3099975585938 1248.1143798828125 943.3699951171875 C 1244.260986328125 938.42333984375 1238.5743408203125 935.949951171875 1231.0543212890625 935.949951171875 C 1223.627685546875 935.949951171875 1218.02099609375 938.3866577148438 1214.234375 943.2599487304688 C 1210.454345703125 948.1399536132812 1208.5643310546875 955.4099731445312 1208.5643310546875 965.0699462890625 ZM 1336.801025390625 1002.5999755859375 L 1336.801025390625 954.1300048828125 C 1336.801025390625 948.0233154296875 1335.4110107421875 943.4666137695312 1332.6309814453125 940.4599609375 C 1329.8509521484375 937.4533081054688 1325.4976806640625 935.949951171875 1319.5709228515625 935.949951171875 C 1311.7376708984375 935.949951171875 1305.9976806640625 938.0699462890625 1302.3509521484375 942.3099975585938 C 1298.704345703125 946.5433349609375 1296.8809814453125 953.53662109375 1296.8809814453125 963.2899780273438 L 1296.8809814453125 1002.5999755859375 L 1285.531005859375 1002.5999755859375 L 1285.531005859375 927.6799926757812 L 1294.760986328125 927.6799926757812 L 1296.6109619140625 937.9299926757812 L 1297.1510009765625 937.9299926757812 C 1299.4776611328125 934.2366333007812 1302.7376708984375 931.3766479492188 1306.9310302734375 929.3499755859375 C 1311.124267578125 927.3233032226562 1315.7943115234375 926.3099975585938 1320.94091796875 926.3099975585938 C 1329.9676513671875 926.3099975585938 1336.7576904296875 928.4866333007812 1341.31103515625 932.8399658203125 C 1345.8709716796875 937.1932983398438 1348.1510009765625 944.1533203125 1348.1510009765625 953.719970703125 L 1348.1510009765625 1002.5999755859375 L 1336.801025390625 1002.5999755859375 ZM 1419.7845458984375 982.1599731445312 C 1419.7845458984375 989.13330078125 1417.1878662109375 994.5099487304688 1411.9945068359375 998.2899780273438 C 1406.80126953125 1002.07666015625 1399.5079345703125 1003.969970703125 1390.114501953125 1003.969970703125 C 1380.1812744140625 1003.969970703125 1372.4345703125 1002.3966674804688 1366.87451171875 999.25 L 1366.87451171875 988.719970703125 C 1370.474609375 990.546630859375 1374.337890625 991.9833374023438 1378.464599609375 993.0299682617188 C 1382.5845947265625 994.07666015625 1386.561279296875 994.5999755859375 1390.39453125 994.5999755859375 C 1396.3145751953125 994.5999755859375 1400.8712158203125 993.6566162109375 1404.0645751953125 991.7699584960938 C 1407.251220703125 989.8766479492188 1408.8446044921875 986.9932861328125 1408.8446044921875 983.1199951171875 C 1408.8446044921875 980.199951171875 1407.5811767578125 977.7033081054688 1405.0545654296875 975.6300048828125 C 1402.52783203125 973.556640625 1397.5946044921875 971.1066284179688 1390.2545166015625 968.2799682617188 C 1383.28125 965.6866455078125 1378.3245849609375 963.4199829101562 1375.384521484375 961.47998046875 C 1372.444580078125 959.546630859375 1370.2579345703125 957.3499755859375 1368.8245849609375 954.8899536132812 C 1367.3912353515625 952.42333984375 1366.674560546875 949.4833374023438 1366.674560546875 946.0699462890625 C 1366.674560546875 939.9633178710938 1369.1578369140625 935.143310546875 1374.12451171875 931.6099853515625 C 1379.0911865234375 928.07666015625 1385.904541015625 926.3099975585938 1394.5645751953125 926.3099975585938 C 1402.6312255859375 926.3099975585938 1410.5145263671875 927.949951171875 1418.214599609375 931.22998046875 L 1414.1845703125 940.4599609375 C 1406.66455078125 937.3599853515625 1399.8511962890625 935.8099975585938 1393.7445068359375 935.8099975585938 C 1388.364501953125 935.8099975585938 1384.307861328125 936.6533203125 1381.5745849609375 938.3399658203125 C 1378.8411865234375 940.026611328125 1377.474609375 942.3499755859375 1377.474609375 945.3099975585938 C 1377.474609375 947.316650390625 1377.984619140625 949.026611328125 1379.0045166015625 950.4400024414062 C 1380.03125 951.8533325195312 1381.6845703125 953.1966552734375 1383.964599609375 954.469970703125 C 1386.2445068359375 955.75 1390.6212158203125 957.5966186523438 1397.0946044921875 960.0099487304688 C 1405.981201171875 963.25 1411.984619140625 966.5099487304688 1415.1046142578125 969.7899780273438 C 1418.224609375 973.0699462890625 1419.7845458984375 977.1932983398438 1419.7845458984375 982.1599731445312 Z" transform="matrix(1.5401744842529297, 0, 0, 1.5401744842529297, -796.3291625976562, -356.4862976074219)" style="fill: rgb(51, 51, 51); white-space: pre; color: rgb(51, 51, 51);"/></g></g></svg>