<?xml version="1.0" encoding="utf-8"?>
<svg id="master-artboard" viewBox="0 0 1400 980" xmlns="http://www.w3.org/2000/svg" width="1400px" height="980px" version="1.1" style="shape-rendering:geometricPrecision; text-rendering:geometricPrecision; image-rendering:optimizeQuality; fill-rule:evenodd; clip-rule:evenodd"><g transform="matrix(0.9676749644912016, 0, 0, 0.9676749644912016, 20.911120639235783, 0.06693674851392603)"><g transform="matrix(0.7837727665901184, 0, 0, 0.7837727665901184, 95.67700536432073, 43.4423972195394)"><rect id="ee-background" x="0" y="0" width="1406.598388671875" height="1250.3624267578125" style="fill: white; fill-opacity: 0; pointer-events: none;"/><g transform="matrix(4.78025484085083, 0, 0, 4.78025484085083, 247.40121459960938, -52.78717041015625)"><title>Leidos-Logo</title><g id="Layer_2" data-name="Layer 2"><g id="Layer_2-2" data-name="Layer 2"><path d="M 0 37.97999954223633 L 229.75999450683594 45.27000045776367 L 105.76000213623047 116.76000213623047 L 0 37.97999954223633 Z" class="cls-1" style="fill: rgb(7, 41, 77);"/></g><g id="Layer_3" data-name="Layer 3"><path d="M 55.5 0 L 16.780000686645508 106.19999694824219 L 230.22000122070312 45.06999969482422 L 55.5 0 Z" class="cls-2" style="fill: rgb(8, 126, 249);"/></g><g id="Layer_4" data-name="Layer 4"><path d="M 32.7400016784668 62.2599983215332 L 70.86000061035156 90.76000213623047 L 230.11000061035156 45.2599983215332 L 41.11000061035156 39.38999938964844 L 32.7400016784668 62.2599983215332 Z" class="cls-3" style="fill: rgb(13, 92, 163);"/></g><g id="Layer_5" data-name="Layer 5"><path class="cls-2" d="M151.71,50.38s16,29.18-12.4,67.1-3.65,84.61,8.75,87.53c0,0-10.21-29.91,12.4-64.19S178.7,62.78,151.71,50.38Z" style="fill: rgb(8, 126, 249);"/><path class="cls-2" d="M122.78,55.24s7.29,20.91-11.18,47.17-.49,53,7.78,56.89c0,0-9.24-16,8.27-45.22S134,62.54,122.78,55.24Z" style="fill: rgb(8, 126, 249);"/><path class="cls-2" d="M183.08,100s7.29,20.91-11.18,47.17-.49,53,7.78,56.89c0,0-9.24-16,8.27-45.22S194.26,107.27,183.08,100Z" style="fill: rgb(8, 126, 249);"/></g></g></g><path d="M 595.8218994140625 931.7799682617188 C 595.8218994140625 941.8999633789062 592.3685913085938 949.6799926757812 585.4619140625 955.1199951171875 C 578.5618896484375 960.566650390625 568.6852416992188 963.2899780273438 555.8319091796875 963.2899780273438 L 544.0718994140625 963.2899780273438 L 544.0718994140625 1002.5999755859375 L 532.451904296875 1002.5999755859375 L 532.451904296875 902.6599731445312 L 558.3619384765625 902.6599731445312 C 583.3352661132812 902.6599731445312 595.8218994140625 912.3666381835938 595.8218994140625 931.7799682617188 M 544.0718994140625 953.3099975585938 L 554.5319213867188 953.3099975585938 C 564.8319091796875 953.3099975585938 572.2819213867188 951.6466674804688 576.8818969726562 948.3199462890625 C 581.4885864257812 944.9932861328125 583.7919311523438 939.663330078125 583.7919311523438 932.3299560546875 C 583.7919311523438 925.7166748046875 581.625244140625 920.7933349609375 577.2919311523438 917.5599975585938 C 572.9652709960938 914.32666015625 566.221923828125 912.7099609375 557.0618896484375 912.7099609375 L 544.0718994140625 912.7099609375 L 544.0718994140625 953.3099975585938 ZM 661.1051025390625 1002.5999755859375 L 658.8450927734375 991.9400024414062 L 658.2951049804688 991.9400024414062 C 654.561767578125 996.63330078125 650.8384399414062 999.8099975585938 647.1251220703125 1001.469970703125 C 643.4050903320312 1003.1366577148438 638.76513671875 1003.969970703125 633.2051391601562 1003.969970703125 C 625.7784423828125 1003.969970703125 619.9584350585938 1002.0532836914062 615.7451171875 998.219970703125 C 611.5317993164062 994.393310546875 609.4251098632812 988.949951171875 609.4251098632812 981.8899536132812 C 609.4251098632812 966.7566528320312 621.5217895507812 958.82666015625 645.715087890625 958.0999755859375 L 658.4351196289062 957.6900024414062 L 658.4351196289062 953.0399780273438 C 658.4351196289062 947.1599731445312 657.1717529296875 942.8199462890625 654.6451416015625 940.0199584960938 C 652.1117553710938 937.2133178710938 648.0651245117188 935.8099975585938 642.505126953125 935.8099975585938 C 636.26513671875 935.8099975585938 629.2017822265625 937.7266235351562 621.3151245117188 941.5599975585938 L 617.8251342773438 932.8699951171875 C 621.5184326171875 930.8699951171875 625.5651245117188 929.2999877929688 629.965087890625 928.1599731445312 C 634.3584594726562 927.0199584960938 638.7684326171875 926.449951171875 643.1951293945312 926.449951171875 C 652.1217651367188 926.449951171875 658.7384643554688 928.4299926757812 663.0451049804688 932.3899536132812 C 667.351806640625 936.3566284179688 669.505126953125 942.7166137695312 669.505126953125 951.469970703125 L 669.505126953125 1002.5999755859375 L 661.1051025390625 1002.5999755859375 M 635.465087890625 994.5999755859375 C 642.5317993164062 994.5999755859375 648.081787109375 992.663330078125 652.1151123046875 988.7899780273438 C 656.1484375 984.9166259765625 658.1651000976562 979.4932861328125 658.1651000976562 972.5199584960938 L 658.1651000976562 965.75 L 646.8151245117188 966.22998046875 C 637.7884521484375 966.5499877929688 631.2817993164062 967.9533081054688 627.2951049804688 970.4400024414062 C 623.3084716796875 972.9199829101562 621.3151245117188 976.7799682617188 621.3151245117188 982.0199584960938 C 621.3151245117188 986.1266479492188 622.5584716796875 989.25 625.0451049804688 991.3899536132812 C 627.525146484375 993.5299682617188 630.9984741210938 994.5999755859375 635.465087890625 994.5999755859375 ZM 680.9927978515625 927.6799926757812 L 693.1527709960938 927.6799926757812 L 709.5628051757812 970.3999633789062 C 713.1627807617188 980.1533203125 715.3961181640625 987.1966552734375 716.2627563476562 991.5299682617188 L 716.8128051757812 991.5299682617188 C 717.4061279296875 989.2033081054688 718.6461181640625 985.2266235351562 720.5327758789062 979.5999755859375 C 722.4261474609375 973.9666137695312 728.61279296875 956.6599731445312 739.0927734375 927.6799926757812 L 751.2628173828125 927.6799926757812 L 719.0628051757812 1012.989990234375 C 715.8760986328125 1021.42333984375 712.1527709960938 1027.4033203125 707.8927612304688 1030.929931640625 C 703.6260986328125 1034.4632568359375 698.3961181640625 1036.22998046875 692.2027587890625 1036.22998046875 C 688.7361450195312 1036.22998046875 685.3161010742188 1035.84326171875 681.9428100585938 1035.0699462890625 L 681.9428100585938 1025.97998046875 C 684.449462890625 1026.526611328125 687.2528076171875 1026.7999267578125 690.352783203125 1026.7999267578125 C 698.1461181640625 1026.7999267578125 703.7061157226562 1022.42333984375 707.0327758789062 1013.6699829101562 L 711.2027587890625 1003.0099487304688 L 680.9927978515625 927.6799926757812 ZM 828.0963745117188 965.0699462890625 C 828.0963745117188 977.2833251953125 825.0197143554688 986.8199462890625 818.8663330078125 993.6799926757812 C 812.7130126953125 1000.5399780273438 804.2130126953125 1003.969970703125 793.3663330078125 1003.969970703125 C 786.6663818359375 1003.969970703125 780.7197265625 1002.3966674804688 775.5263671875 999.25 C 770.3330078125 996.1033325195312 766.322998046875 991.5933227539062 763.496337890625 985.719970703125 C 760.669677734375 979.8399658203125 759.25634765625 972.9566650390625 759.25634765625 965.0699462890625 C 759.25634765625 952.8566284179688 762.3096923828125 943.3433227539062 768.4163818359375 936.5299682617188 C 774.5230102539062 929.7166748046875 782.9996948242188 926.3099975585938 793.8463745117188 926.3099975585938 C 804.3263549804688 926.3099975585938 812.6563720703125 929.796630859375 818.8363647460938 936.7699584960938 C 825.0097045898438 943.7432861328125 828.0963745117188 953.1766357421875 828.0963745117188 965.0699462890625 M 771.016357421875 965.0699462890625 C 771.016357421875 974.643310546875 772.9296875 981.9366455078125 776.75634765625 986.949951171875 C 780.5830078125 991.9633178710938 786.2130126953125 994.469970703125 793.6463623046875 994.469970703125 C 801.072998046875 994.469970703125 806.7130126953125 991.9733276367188 810.5663452148438 986.97998046875 C 814.4130249023438 981.9866333007812 816.3363647460938 974.6832885742188 816.3363647460938 965.0699462890625 C 816.3363647460938 955.5433349609375 814.4130249023438 948.3099975585938 810.5663452148438 943.3699951171875 C 806.7130126953125 938.42333984375 801.0263671875 935.949951171875 793.50634765625 935.949951171875 C 786.0797119140625 935.949951171875 780.4730224609375 938.3866577148438 776.6863403320312 943.2599487304688 C 772.9063720703125 948.1399536132812 771.016357421875 955.4099731445312 771.016357421875 965.0699462890625 ZM 882.1630249023438 926.3099975585938 C 885.4896850585938 926.3099975585938 888.476318359375 926.5833129882812 891.1229858398438 927.1300048828125 L 889.5430297851562 937.6599731445312 C 886.4496459960938 936.9733276367188 883.71630859375 936.6300048828125 881.343017578125 936.6300048828125 C 875.2830200195312 936.6300048828125 870.0996704101562 939.0933227539062 865.7930297851562 944.0199584960938 C 861.486328125 948.9400024414062 859.3330078125 955.066650390625 859.3330078125 962.3999633789062 L 859.3330078125 1002.5999755859375 L 847.9830322265625 1002.5999755859375 L 847.9830322265625 927.6799926757812 L 857.35302734375 927.6799926757812 L 858.6530151367188 941.5599975585938 L 859.1929931640625 941.5599975585938 C 861.9730224609375 936.6799926757812 865.322998046875 932.9199829101562 869.2429809570312 930.2799682617188 C 873.1630249023438 927.63330078125 877.4696655273438 926.3099975585938 882.1630249023438 926.3099975585938 ZM 953.458740234375 982.1599731445312 C 953.458740234375 989.13330078125 950.862060546875 994.5099487304688 945.6687622070312 998.2899780273438 C 940.4754028320312 1002.07666015625 933.1820678710938 1003.969970703125 923.7887573242188 1003.969970703125 C 913.8554077148438 1003.969970703125 906.1087646484375 1002.3966674804688 900.5487670898438 999.25 L 900.5487670898438 988.719970703125 C 904.1487426757812 990.546630859375 908.0120849609375 991.9833374023438 912.1387329101562 993.0299682617188 C 916.2587280273438 994.07666015625 920.2354125976562 994.5999755859375 924.0687255859375 994.5999755859375 C 929.98876953125 994.5999755859375 934.54541015625 993.6566162109375 937.73876953125 991.7699584960938 C 940.9254150390625 989.8766479492188 942.5187377929688 986.9932861328125 942.5187377929688 983.1199951171875 C 942.5187377929688 980.199951171875 941.2554321289062 977.7033081054688 938.728759765625 975.6300048828125 C 936.2020874023438 973.556640625 931.2687377929688 971.1066284179688 923.9287719726562 968.2799682617188 C 916.9554443359375 965.6866455078125 911.998779296875 963.4199829101562 909.0587768554688 961.47998046875 C 906.1187744140625 959.546630859375 903.9320678710938 957.3499755859375 902.498779296875 954.8899536132812 C 901.0654296875 952.42333984375 900.3487548828125 949.4833374023438 900.3487548828125 946.0699462890625 C 900.3487548828125 939.9633178710938 902.8320922851562 935.143310546875 907.7987670898438 931.6099853515625 C 912.7654418945312 928.07666015625 919.5787353515625 926.3099975585938 928.23876953125 926.3099975585938 C 936.305419921875 926.3099975585938 944.1887817382812 927.949951171875 951.8887329101562 931.22998046875 L 947.8587646484375 940.4599609375 C 940.3387451171875 937.3599853515625 933.525390625 935.8099975585938 927.4187622070312 935.8099975585938 C 922.0387573242188 935.8099975585938 917.9821166992188 936.6533203125 915.248779296875 938.3399658203125 C 912.5154418945312 940.026611328125 911.1487426757812 942.3499755859375 911.1487426757812 945.3099975585938 C 911.1487426757812 947.316650390625 911.6587524414062 949.026611328125 912.6787719726562 950.4400024414062 C 913.7054443359375 951.8533325195312 915.3587646484375 953.1966552734375 917.6387329101562 954.469970703125 C 919.9187622070312 955.75 924.29541015625 957.5966186523438 930.7687377929688 960.0099487304688 C 939.6553955078125 963.25 945.6587524414062 966.5099487304688 948.7787475585938 969.7899780273438 C 951.8987426757812 973.0699462890625 953.458740234375 977.1932983398438 953.458740234375 982.1599731445312 Z" transform="matrix(1.5401744842529297, 0, 0, 1.5401744842529297, -421.5404052734375, -359.1256408691406)" style="fill: rgb(51, 51, 51); white-space: pre; color: rgb(51, 51, 51);"/></g></g></svg>