<?xml version="1.0" encoding="utf-8"?>
<svg id="master-artboard" viewBox="0 0 1400 980" version="1.1" xmlns="http://www.w3.org/2000/svg" x="0px" y="0px" style="enable-background:new 0 0 1400 980;" width="1400px" height="980px"><g transform="matrix(0.7837727069854737, 0, 0, 0.7837727069854737, 115.734375, 42.04946854009253)"><rect id="ee-background" x="0" y="0" width="1406.598388671875" height="1250.3624267578125" style="fill: white; fill-opacity: 0; pointer-events: none;"/><g transform="matrix(4.78025484085083, 0, 0, 4.78025484085083, 247.40121459960938, -52.78717041015625)"><title>Leidos-Logo</title><g id="Layer_2" data-name="Layer 2"><g id="Layer_2-2" data-name="Layer 2"><path d="M 0 37.97999954223633 L 229.75999450683594 45.27000045776367 L 105.76000213623047 116.76000213623047 L 0 37.97999954223633 Z" class="cls-1" style="fill: rgb(7, 41, 77);"/></g><g id="Layer_3" data-name="Layer 3"><path d="M 55.5 0 L 16.780000686645508 106.19999694824219 L 230.22000122070312 45.06999969482422 L 55.5 0 Z" class="cls-2" style="fill: rgb(8, 126, 249);"/></g><g id="Layer_4" data-name="Layer 4"><path d="M 32.7400016784668 62.2599983215332 L 70.86000061035156 90.76000213623047 L 230.11000061035156 45.2599983215332 L 41.11000061035156 39.38999938964844 L 32.7400016784668 62.2599983215332 Z" class="cls-3" style="fill: rgb(13, 92, 163);"/></g><g id="Layer_5" data-name="Layer 5"><path class="cls-2" d="M151.71,50.38s16,29.18-12.4,67.1-3.65,84.61,8.75,87.53c0,0-10.21-29.91,12.4-64.19S178.7,62.78,151.71,50.38Z" style="fill: rgb(8, 126, 249);"/><path class="cls-2" d="M122.78,55.24s7.29,20.91-11.18,47.17-.49,53,7.78,56.89c0,0-9.24-16,8.27-45.22S134,62.54,122.78,55.24Z" style="fill: rgb(8, 126, 249);"/><path class="cls-2" d="M183.08,100s7.29,20.91-11.18,47.17-.49,53,7.78,56.89c0,0-9.24-16,8.27-45.22S194.26,107.27,183.08,100Z" style="fill: rgb(8, 126, 249);"/></g></g></g><path d="M 595.8218994140625 931.7799682617188 C 595.8218994140625 941.8999633789062 592.3685913085938 949.6799926757812 585.4619140625 955.1199951171875 C 578.5618896484375 960.566650390625 568.6852416992188 963.2899780273438 555.8319091796875 963.2899780273438 L 544.0718994140625 963.2899780273438 L 544.0718994140625 1002.5999755859375 L 532.451904296875 1002.5999755859375 L 532.451904296875 902.6599731445312 L 558.3619384765625 902.6599731445312 C 583.3352661132812 902.6599731445312 595.8218994140625 912.3666381835938 595.8218994140625 931.7799682617188 M 544.0718994140625 953.3099975585938 L 554.5319213867188 953.3099975585938 C 564.8319091796875 953.3099975585938 572.2819213867188 951.6466674804688 576.8818969726562 948.3199462890625 C 581.4885864257812 944.9932861328125 583.7919311523438 939.663330078125 583.7919311523438 932.3299560546875 C 583.7919311523438 925.7166748046875 581.625244140625 920.7933349609375 577.2919311523438 917.5599975585938 C 572.9652709960938 914.32666015625 566.221923828125 912.7099609375 557.0618896484375 912.7099609375 L 544.0718994140625 912.7099609375 L 544.0718994140625 953.3099975585938 ZM 661.1051025390625 1002.5999755859375 L 658.8450927734375 991.9400024414062 L 658.2951049804688 991.9400024414062 C 654.561767578125 996.63330078125 650.8384399414062 999.8099975585938 647.1251220703125 1001.469970703125 C 643.4050903320312 1003.1366577148438 638.76513671875 1003.969970703125 633.2051391601562 1003.969970703125 C 625.7784423828125 1003.969970703125 619.9584350585938 1002.0532836914062 615.7451171875 998.219970703125 C 611.5317993164062 994.393310546875 609.4251098632812 988.949951171875 609.4251098632812 981.8899536132812 C 609.4251098632812 966.7566528320312 621.5217895507812 958.82666015625 645.715087890625 958.0999755859375 L 658.4351196289062 957.6900024414062 L 658.4351196289062 953.0399780273438 C 658.4351196289062 947.1599731445312 657.1717529296875 942.8199462890625 654.6451416015625 940.0199584960938 C 652.1117553710938 937.2133178710938 648.0651245117188 935.8099975585938 642.505126953125 935.8099975585938 C 636.26513671875 935.8099975585938 629.2017822265625 937.7266235351562 621.3151245117188 941.5599975585938 L 617.8251342773438 932.8699951171875 C 621.5184326171875 930.8699951171875 625.5651245117188 929.2999877929688 629.965087890625 928.1599731445312 C 634.3584594726562 927.0199584960938 638.7684326171875 926.449951171875 643.1951293945312 926.449951171875 C 652.1217651367188 926.449951171875 658.7384643554688 928.4299926757812 663.0451049804688 932.3899536132812 C 667.351806640625 936.3566284179688 669.505126953125 942.7166137695312 669.505126953125 951.469970703125 L 669.505126953125 1002.5999755859375 L 661.1051025390625 1002.5999755859375 M 635.465087890625 994.5999755859375 C 642.5317993164062 994.5999755859375 648.081787109375 992.663330078125 652.1151123046875 988.7899780273438 C 656.1484375 984.9166259765625 658.1651000976562 979.4932861328125 658.1651000976562 972.5199584960938 L 658.1651000976562 965.75 L 646.8151245117188 966.22998046875 C 637.7884521484375 966.5499877929688 631.2817993164062 967.9533081054688 627.2951049804688 970.4400024414062 C 623.3084716796875 972.9199829101562 621.3151245117188 976.7799682617188 621.3151245117188 982.0199584960938 C 621.3151245117188 986.1266479492188 622.5584716796875 989.25 625.0451049804688 991.3899536132812 C 627.525146484375 993.5299682617188 630.9984741210938 994.5999755859375 635.465087890625 994.5999755859375 ZM 717.082763671875 994.5999755859375 C 719.0894775390625 994.5999755859375 721.026123046875 994.4533081054688 722.8927612304688 994.1599731445312 C 724.7594604492188 993.8599853515625 726.2394409179688 993.5499877929688 727.332763671875 993.22998046875 L 727.332763671875 1001.9199829101562 C 726.1061401367188 1002.5133056640625 724.296142578125 1003.0032958984375 721.9027709960938 1003.3899536132812 C 719.5094604492188 1003.7766723632812 717.3561401367188 1003.969970703125 715.4428100585938 1003.969970703125 C 700.949462890625 1003.969970703125 693.7027587890625 996.336669921875 693.7027587890625 981.0699462890625 L 693.7027587890625 936.5 L 682.9727783203125 936.5 L 682.9727783203125 931.0299682617188 L 693.7027587890625 926.3099975585938 L 698.4927978515625 910.3099975585938 L 705.0527954101562 910.3099975585938 L 705.0527954101562 927.6799926757812 L 726.7927856445312 927.6799926757812 L 726.7927856445312 936.5 L 705.0527954101562 936.5 L 705.0527954101562 980.5899658203125 C 705.0527954101562 985.1033325195312 706.122802734375 988.566650390625 708.2627563476562 990.97998046875 C 710.409423828125 993.393310546875 713.3494262695312 994.5999755859375 717.082763671875 994.5999755859375 ZM 753.654296875 1002.5999755859375 L 742.3043212890625 1002.5999755859375 L 742.3043212890625 927.6799926757812 L 753.654296875 927.6799926757812 L 753.654296875 1002.5999755859375 M 741.3442993164062 907.3800048828125 C 741.3442993164062 904.7799682617188 741.9843139648438 902.8766479492188 743.2642822265625 901.6699829101562 C 744.53759765625 900.4633178710938 746.1309814453125 899.8599853515625 748.0443115234375 899.8599853515625 C 749.8709716796875 899.8599853515625 751.4442749023438 900.4733276367188 752.7642822265625 901.699951171875 C 754.0842895507812 902.9332885742188 754.7442626953125 904.82666015625 754.7442626953125 907.3800048828125 C 754.7442626953125 909.9266357421875 754.0842895507812 911.82666015625 752.7642822265625 913.0799560546875 C 751.4442749023438 914.3333129882812 749.8709716796875 914.9599609375 748.0443115234375 914.9599609375 C 746.1309814453125 914.9599609375 744.53759765625 914.3333129882812 743.2642822265625 913.0799560546875 C 741.9843139648438 911.82666015625 741.3442993164062 909.9266357421875 741.3442993164062 907.3800048828125 ZM 809.36279296875 1003.969970703125 C 798.2894897460938 1003.969970703125 789.5527954101562 1000.5966186523438 783.1527709960938 993.8499755859375 C 776.7461547851562 987.1033325195312 773.5427856445312 977.7366333007812 773.5427856445312 965.75 C 773.5427856445312 953.6766357421875 776.51611328125 944.0833129882812 782.4628295898438 936.969970703125 C 788.4094848632812 929.86328125 796.3961181640625 926.3099975585938 806.4227905273438 926.3099975585938 C 815.8094482421875 926.3099975585938 823.2394409179688 929.3966674804688 828.7127685546875 935.5699462890625 C 834.179443359375 941.75 836.9127807617188 949.8966674804688 836.9127807617188 960.0099487304688 L 836.9127807617188 967.1900024414062 L 785.3027954101562 967.1900024414062 C 785.5294799804688 975.9833374023438 787.7494506835938 982.6599731445312 791.9628295898438 987.219970703125 C 796.1828002929688 991.7799682617188 802.1194458007812 994.0599975585938 809.7728271484375 994.0599975585938 C 817.8394775390625 994.0599975585938 825.816162109375 992.373291015625 833.7028198242188 989 L 833.7028198242188 999.1099853515625 C 829.689453125 1000.8433227539062 825.8961181640625 1002.086669921875 822.3228149414062 1002.8399658203125 C 818.7427978515625 1003.5933227539062 814.4227905273438 1003.969970703125 809.36279296875 1003.969970703125 M 806.2927856445312 935.8099975585938 C 800.2728271484375 935.8099975585938 795.4761352539062 937.7699584960938 791.9027709960938 941.6900024414062 C 788.3228149414062 945.6099853515625 786.2128295898438 951.0333251953125 785.5728149414062 957.9599609375 L 824.7427978515625 957.9599609375 C 824.7427978515625 950.806640625 823.1494750976562 945.32666015625 819.9627685546875 941.5199584960938 C 816.7694702148438 937.7133178710938 812.2127685546875 935.8099975585938 806.2927856445312 935.8099975585938 ZM 907.5240478515625 1002.5999755859375 L 907.5240478515625 954.1300048828125 C 907.5240478515625 948.0233154296875 906.134033203125 943.4666137695312 903.3540649414062 940.4599609375 C 900.5740356445312 937.4533081054688 896.220703125 935.949951171875 890.2940673828125 935.949951171875 C 882.4607543945312 935.949951171875 876.720703125 938.0699462890625 873.0740356445312 942.3099975585938 C 869.4273681640625 946.5433349609375 867.6040649414062 953.53662109375 867.6040649414062 963.2899780273438 L 867.6040649414062 1002.5999755859375 L 856.2540893554688 1002.5999755859375 L 856.2540893554688 927.6799926757812 L 865.4840698242188 927.6799926757812 L 867.3340454101562 937.9299926757812 L 867.8740844726562 937.9299926757812 C 870.2007446289062 934.2366333007812 873.4607543945312 931.3766479492188 877.654052734375 929.3499755859375 C 881.847412109375 927.3233032226562 886.5173950195312 926.3099975585938 891.6640625 926.3099975585938 C 900.6907348632812 926.3099975585938 907.480712890625 928.4866333007812 912.0340576171875 932.8399658203125 C 916.5940551757812 937.1932983398438 918.8740844726562 944.1533203125 918.8740844726562 953.719970703125 L 918.8740844726562 1002.5999755859375 L 907.5240478515625 1002.5999755859375 ZM 966.3777465820312 994.5999755859375 C 968.3844604492188 994.5999755859375 970.3211059570312 994.4533081054688 972.187744140625 994.1599731445312 C 974.054443359375 993.8599853515625 975.534423828125 993.5499877929688 976.6277465820312 993.22998046875 L 976.6277465820312 1001.9199829101562 C 975.401123046875 1002.5133056640625 973.5911254882812 1003.0032958984375 971.19775390625 1003.3899536132812 C 968.804443359375 1003.7766723632812 966.651123046875 1003.969970703125 964.73779296875 1003.969970703125 C 950.2444458007812 1003.969970703125 942.9977416992188 996.336669921875 942.9977416992188 981.0699462890625 L 942.9977416992188 936.5 L 932.2677612304688 936.5 L 932.2677612304688 931.0299682617188 L 942.9977416992188 926.3099975585938 L 947.7877807617188 910.3099975585938 L 954.3477783203125 910.3099975585938 L 954.3477783203125 927.6799926757812 L 976.0877685546875 927.6799926757812 L 976.0877685546875 936.5 L 954.3477783203125 936.5 L 954.3477783203125 980.5899658203125 C 954.3477783203125 985.1033325195312 955.4177856445312 988.566650390625 957.5577392578125 990.97998046875 C 959.7044067382812 993.393310546875 962.6444091796875 994.5999755859375 966.3777465820312 994.5999755859375 ZM 1039.9293212890625 982.1599731445312 C 1039.9293212890625 989.13330078125 1037.3326416015625 994.5099487304688 1032.1392822265625 998.2899780273438 C 1026.9459228515625 1002.07666015625 1019.652587890625 1003.969970703125 1010.25927734375 1003.969970703125 C 1000.325927734375 1003.969970703125 992.5792846679688 1002.3966674804688 987.019287109375 999.25 L 987.019287109375 988.719970703125 C 990.6192626953125 990.546630859375 994.4826049804688 991.9833374023438 998.6092529296875 993.0299682617188 C 1002.729248046875 994.07666015625 1006.7059326171875 994.5999755859375 1010.5392456054688 994.5999755859375 C 1016.4592895507812 994.5999755859375 1021.0159301757812 993.6566162109375 1024.209228515625 991.7699584960938 C 1027.39599609375 989.8766479492188 1028.9892578125 986.9932861328125 1028.9892578125 983.1199951171875 C 1028.9892578125 980.199951171875 1027.7259521484375 977.7033081054688 1025.19921875 975.6300048828125 C 1022.672607421875 973.556640625 1017.7392578125 971.1066284179688 1010.3992919921875 968.2799682617188 C 1003.4259643554688 965.6866455078125 998.4692993164062 963.4199829101562 995.529296875 961.47998046875 C 992.5892944335938 959.546630859375 990.402587890625 957.3499755859375 988.9692993164062 954.8899536132812 C 987.5359497070312 952.42333984375 986.8192749023438 949.4833374023438 986.8192749023438 946.0699462890625 C 986.8192749023438 939.9633178710938 989.3026123046875 935.143310546875 994.269287109375 931.6099853515625 C 999.2359619140625 928.07666015625 1006.0492553710938 926.3099975585938 1014.7092895507812 926.3099975585938 C 1022.7759399414062 926.3099975585938 1030.6593017578125 927.949951171875 1038.3592529296875 931.22998046875 L 1034.3292236328125 940.4599609375 C 1026.809326171875 937.3599853515625 1019.9959716796875 935.8099975585938 1013.8892822265625 935.8099975585938 C 1008.50927734375 935.8099975585938 1004.45263671875 936.6533203125 1001.7192993164062 938.3399658203125 C 998.9859619140625 940.026611328125 997.6192626953125 942.3499755859375 997.6192626953125 945.3099975585938 C 997.6192626953125 947.316650390625 998.1292724609375 949.026611328125 999.1492919921875 950.4400024414062 C 1000.1759643554688 951.8533325195312 1001.8292846679688 953.1966552734375 1004.1092529296875 954.469970703125 C 1006.3892822265625 955.75 1010.7659301757812 957.5966186523438 1017.2392578125 960.0099487304688 C 1026.1259765625 963.25 1032.1292724609375 966.5099487304688 1035.249267578125 969.7899780273438 C 1038.3692626953125 973.0699462890625 1039.9293212890625 977.1932983398438 1039.9293212890625 982.1599731445312 Z" transform="matrix(1.5401744842529297, 0, 0, 1.5401744842529297, -486.2046813964844, -389.478271484375)" style="fill: rgb(51, 51, 51); white-space: pre; color: rgb(51, 51, 51);"/></g></svg>