<?xml version="1.0" encoding="utf-8"?>
<svg id="master-artboard" viewBox="0 0 1400 980" xmlns="http://www.w3.org/2000/svg" width="1400px" height="980px" version="1.1" style="shape-rendering:geometricPrecision; text-rendering:geometricPrecision; image-rendering:optimizeQuality; fill-rule:evenodd; clip-rule:evenodd"><g transform="matrix(0.9645964173778216, 0, 0, 0.9645964173778216, 22.95960770728359, 0.016337781294647313)"><g transform="matrix(0.7837727665901184, 0, 0, 0.7837727665901184, 97.2859830700479, 41.83341951381213)"><rect id="ee-background" x="0" y="0" width="1406.598388671875" height="1250.3624267578125" style="fill: white; fill-opacity: 0; pointer-events: none;"/><g transform="matrix(4.78025484085083, 0, 0, 4.78025484085083, 247.40121459960938, -52.78717041015625)"><title>Leidos-Logo</title><g id="Layer_2" data-name="Layer 2"><g id="Layer_2-2" data-name="Layer 2"><path d="M 0 37.97999954223633 L 229.75999450683594 45.27000045776367 L 105.76000213623047 116.76000213623047 L 0 37.97999954223633 Z" class="cls-1" style="fill: rgb(7, 41, 77);"/></g><g id="Layer_3" data-name="Layer 3"><path d="M 55.5 0 L 16.780000686645508 106.19999694824219 L 230.22000122070312 45.06999969482422 L 55.5 0 Z" class="cls-2" style="fill: rgb(8, 126, 249);"/></g><g id="Layer_4" data-name="Layer 4"><path d="M 32.7400016784668 62.2599983215332 L 70.86000061035156 90.76000213623047 L 230.11000061035156 45.2599983215332 L 41.11000061035156 39.38999938964844 L 32.7400016784668 62.2599983215332 Z" class="cls-3" style="fill: rgb(13, 92, 163);"/></g><g id="Layer_5" data-name="Layer 5"><path class="cls-2" d="M151.71,50.38s16,29.18-12.4,67.1-3.65,84.61,8.75,87.53c0,0-10.21-29.91,12.4-64.19S178.7,62.78,151.71,50.38Z" style="fill: rgb(8, 126, 249);"/><path class="cls-2" d="M122.78,55.24s7.29,20.91-11.18,47.17-.49,53,7.78,56.89c0,0-9.24-16,8.27-45.22S134,62.54,122.78,55.24Z" style="fill: rgb(8, 126, 249);"/><path class="cls-2" d="M183.08,100s7.29,20.91-11.18,47.17-.49,53,7.78,56.89c0,0-9.24-16,8.27-45.22S194.26,107.27,183.08,100Z" style="fill: rgb(8, 126, 249);"/></g></g></g><path d="M 595.8218994140625 931.7799682617188 C 595.8218994140625 941.8999633789062 592.3685913085938 949.6799926757812 585.4619140625 955.1199951171875 C 578.5618896484375 960.566650390625 568.6852416992188 963.2899780273438 555.8319091796875 963.2899780273438 L 544.0718994140625 963.2899780273438 L 544.0718994140625 1002.5999755859375 L 532.451904296875 1002.5999755859375 L 532.451904296875 902.6599731445312 L 558.3619384765625 902.6599731445312 C 583.3352661132812 902.6599731445312 595.8218994140625 912.3666381835938 595.8218994140625 931.7799682617188 M 544.0718994140625 953.3099975585938 L 554.5319213867188 953.3099975585938 C 564.8319091796875 953.3099975585938 572.2819213867188 951.6466674804688 576.8818969726562 948.3199462890625 C 581.4885864257812 944.9932861328125 583.7919311523438 939.663330078125 583.7919311523438 932.3299560546875 C 583.7919311523438 925.7166748046875 581.625244140625 920.7933349609375 577.2919311523438 917.5599975585938 C 572.9652709960938 914.32666015625 566.221923828125 912.7099609375 557.0618896484375 912.7099609375 L 544.0718994140625 912.7099609375 L 544.0718994140625 953.3099975585938 ZM 661.1051025390625 1002.5999755859375 L 658.8450927734375 991.9400024414062 L 658.2951049804688 991.9400024414062 C 654.561767578125 996.63330078125 650.8384399414062 999.8099975585938 647.1251220703125 1001.469970703125 C 643.4050903320312 1003.1366577148438 638.76513671875 1003.969970703125 633.2051391601562 1003.969970703125 C 625.7784423828125 1003.969970703125 619.9584350585938 1002.0532836914062 615.7451171875 998.219970703125 C 611.5317993164062 994.393310546875 609.4251098632812 988.949951171875 609.4251098632812 981.8899536132812 C 609.4251098632812 966.7566528320312 621.5217895507812 958.82666015625 645.715087890625 958.0999755859375 L 658.4351196289062 957.6900024414062 L 658.4351196289062 953.0399780273438 C 658.4351196289062 947.1599731445312 657.1717529296875 942.8199462890625 654.6451416015625 940.0199584960938 C 652.1117553710938 937.2133178710938 648.0651245117188 935.8099975585938 642.505126953125 935.8099975585938 C 636.26513671875 935.8099975585938 629.2017822265625 937.7266235351562 621.3151245117188 941.5599975585938 L 617.8251342773438 932.8699951171875 C 621.5184326171875 930.8699951171875 625.5651245117188 929.2999877929688 629.965087890625 928.1599731445312 C 634.3584594726562 927.0199584960938 638.7684326171875 926.449951171875 643.1951293945312 926.449951171875 C 652.1217651367188 926.449951171875 658.7384643554688 928.4299926757812 663.0451049804688 932.3899536132812 C 667.351806640625 936.3566284179688 669.505126953125 942.7166137695312 669.505126953125 951.469970703125 L 669.505126953125 1002.5999755859375 L 661.1051025390625 1002.5999755859375 M 635.465087890625 994.5999755859375 C 642.5317993164062 994.5999755859375 648.081787109375 992.663330078125 652.1151123046875 988.7899780273438 C 656.1484375 984.9166259765625 658.1651000976562 979.4932861328125 658.1651000976562 972.5199584960938 L 658.1651000976562 965.75 L 646.8151245117188 966.22998046875 C 637.7884521484375 966.5499877929688 631.2817993164062 967.9533081054688 627.2951049804688 970.4400024414062 C 623.3084716796875 972.9199829101562 621.3151245117188 976.7799682617188 621.3151245117188 982.0199584960938 C 621.3151245117188 986.1266479492188 622.5584716796875 989.25 625.0451049804688 991.3899536132812 C 627.525146484375 993.5299682617188 630.9984741210938 994.5999755859375 635.465087890625 994.5999755859375 ZM 680.9927978515625 927.6799926757812 L 693.1527709960938 927.6799926757812 L 709.5628051757812 970.3999633789062 C 713.1627807617188 980.1533203125 715.3961181640625 987.1966552734375 716.2627563476562 991.5299682617188 L 716.8128051757812 991.5299682617188 C 717.4061279296875 989.2033081054688 718.6461181640625 985.2266235351562 720.5327758789062 979.5999755859375 C 722.4261474609375 973.9666137695312 728.61279296875 956.6599731445312 739.0927734375 927.6799926757812 L 751.2628173828125 927.6799926757812 L 719.0628051757812 1012.989990234375 C 715.8760986328125 1021.42333984375 712.1527709960938 1027.4033203125 707.8927612304688 1030.929931640625 C 703.6260986328125 1034.4632568359375 698.3961181640625 1036.22998046875 692.2027587890625 1036.22998046875 C 688.7361450195312 1036.22998046875 685.3161010742188 1035.84326171875 681.9428100585938 1035.0699462890625 L 681.9428100585938 1025.97998046875 C 684.449462890625 1026.526611328125 687.2528076171875 1026.7999267578125 690.352783203125 1026.7999267578125 C 698.1461181640625 1026.7999267578125 703.7061157226562 1022.42333984375 707.0327758789062 1013.6699829101562 L 711.2027587890625 1003.0099487304688 L 680.9927978515625 927.6799926757812 ZM 795.0763549804688 1003.969970703125 C 784.0030517578125 1003.969970703125 775.266357421875 1000.5966186523438 768.8663330078125 993.8499755859375 C 762.459716796875 987.1033325195312 759.25634765625 977.7366333007812 759.25634765625 965.75 C 759.25634765625 953.6766357421875 762.2296752929688 944.0833129882812 768.1763916015625 936.969970703125 C 774.123046875 929.86328125 782.1096801757812 926.3099975585938 792.1363525390625 926.3099975585938 C 801.5230102539062 926.3099975585938 808.9530029296875 929.3966674804688 814.4263916015625 935.5699462890625 C 819.8930053710938 941.75 822.6263427734375 949.8966674804688 822.6263427734375 960.0099487304688 L 822.6263427734375 967.1900024414062 L 771.016357421875 967.1900024414062 C 771.2430419921875 975.9833374023438 773.4630126953125 982.6599731445312 777.6763916015625 987.219970703125 C 781.8963623046875 991.7799682617188 787.8330078125 994.0599975585938 795.4863891601562 994.0599975585938 C 803.5530395507812 994.0599975585938 811.5297241210938 992.373291015625 819.4163818359375 989 L 819.4163818359375 999.1099853515625 C 815.4030151367188 1000.8433227539062 811.6096801757812 1002.086669921875 808.036376953125 1002.8399658203125 C 804.4563598632812 1003.5933227539062 800.1363525390625 1003.969970703125 795.0763549804688 1003.969970703125 M 792.00634765625 935.8099975585938 C 785.9863891601562 935.8099975585938 781.189697265625 937.7699584960938 777.6163330078125 941.6900024414062 C 774.036376953125 945.6099853515625 771.9263916015625 951.0333251953125 771.286376953125 957.9599609375 L 810.4563598632812 957.9599609375 C 810.4563598632812 950.806640625 808.863037109375 945.32666015625 805.6763916015625 941.5199584960938 C 802.4830322265625 937.7133178710938 797.9263916015625 935.8099975585938 792.00634765625 935.8099975585938 ZM 873.6176147460938 1003.969970703125 C 862.5443115234375 1003.969970703125 853.8076171875 1000.5966186523438 847.4075927734375 993.8499755859375 C 841.0009765625 987.1033325195312 837.797607421875 977.7366333007812 837.797607421875 965.75 C 837.797607421875 953.6766357421875 840.7709350585938 944.0833129882812 846.7176513671875 936.969970703125 C 852.664306640625 929.86328125 860.6509399414062 926.3099975585938 870.6776123046875 926.3099975585938 C 880.0642700195312 926.3099975585938 887.4942626953125 929.3966674804688 892.9676513671875 935.5699462890625 C 898.4342651367188 941.75 901.1676025390625 949.8966674804688 901.1676025390625 960.0099487304688 L 901.1676025390625 967.1900024414062 L 849.5576171875 967.1900024414062 C 849.7843017578125 975.9833374023438 852.0042724609375 982.6599731445312 856.2176513671875 987.219970703125 C 860.4376220703125 991.7799682617188 866.374267578125 994.0599975585938 874.0276489257812 994.0599975585938 C 882.0942993164062 994.0599975585938 890.0709838867188 992.373291015625 897.9576416015625 989 L 897.9576416015625 999.1099853515625 C 893.9442749023438 1000.8433227539062 890.1509399414062 1002.086669921875 886.57763671875 1002.8399658203125 C 882.9976196289062 1003.5933227539062 878.6776123046875 1003.969970703125 873.6176147460938 1003.969970703125 M 870.547607421875 935.8099975585938 C 864.5276489257812 935.8099975585938 859.73095703125 937.7699584960938 856.1575927734375 941.6900024414062 C 852.57763671875 945.6099853515625 850.4676513671875 951.0333251953125 849.82763671875 957.9599609375 L 888.9976196289062 957.9599609375 C 888.9976196289062 950.806640625 887.404296875 945.32666015625 884.2176513671875 941.5199584960938 C 881.0242919921875 937.7133178710938 876.4676513671875 935.8099975585938 870.547607421875 935.8099975585938 ZM 968.8388671875 982.1599731445312 C 968.8388671875 989.13330078125 966.2421875 994.5099487304688 961.0488891601562 998.2899780273438 C 955.8555297851562 1002.07666015625 948.5621948242188 1003.969970703125 939.1688842773438 1003.969970703125 C 929.2355346679688 1003.969970703125 921.4888916015625 1002.3966674804688 915.9288940429688 999.25 L 915.9288940429688 988.719970703125 C 919.5288696289062 990.546630859375 923.3922119140625 991.9833374023438 927.5188598632812 993.0299682617188 C 931.6388549804688 994.07666015625 935.6155395507812 994.5999755859375 939.4488525390625 994.5999755859375 C 945.368896484375 994.5999755859375 949.925537109375 993.6566162109375 953.118896484375 991.7699584960938 C 956.3055419921875 989.8766479492188 957.8988647460938 986.9932861328125 957.8988647460938 983.1199951171875 C 957.8988647460938 980.199951171875 956.6355590820312 977.7033081054688 954.10888671875 975.6300048828125 C 951.5822143554688 973.556640625 946.6488647460938 971.1066284179688 939.3088989257812 968.2799682617188 C 932.3355712890625 965.6866455078125 927.37890625 963.4199829101562 924.4389038085938 961.47998046875 C 921.4989013671875 959.546630859375 919.3121948242188 957.3499755859375 917.87890625 954.8899536132812 C 916.445556640625 952.42333984375 915.7288818359375 949.4833374023438 915.7288818359375 946.0699462890625 C 915.7288818359375 939.9633178710938 918.2122192382812 935.143310546875 923.1788940429688 931.6099853515625 C 928.1455688476562 928.07666015625 934.9588623046875 926.3099975585938 943.618896484375 926.3099975585938 C 951.685546875 926.3099975585938 959.5689086914062 927.949951171875 967.2688598632812 931.22998046875 L 963.2388916015625 940.4599609375 C 955.7188720703125 937.3599853515625 948.905517578125 935.8099975585938 942.7988891601562 935.8099975585938 C 937.4188842773438 935.8099975585938 933.3622436523438 936.6533203125 930.62890625 938.3399658203125 C 927.8955688476562 940.026611328125 926.5288696289062 942.3499755859375 926.5288696289062 945.3099975585938 C 926.5288696289062 947.316650390625 927.0388793945312 949.026611328125 928.0588989257812 950.4400024414062 C 929.0855712890625 951.8533325195312 930.7388916015625 953.1966552734375 933.0188598632812 954.469970703125 C 935.2988891601562 955.75 939.675537109375 957.5966186523438 946.1488647460938 960.0099487304688 C 955.0355224609375 963.25 961.0388793945312 966.5099487304688 964.1588745117188 969.7899780273438 C 967.2788696289062 973.0699462890625 968.8388671875 977.1932983398438 968.8388671875 982.1599731445312 Z" transform="matrix(1.5401744842529297, 0, 0, 1.5401744842529297, -421.5404052734375, -359.1256408691406)" style="fill: rgb(51, 51, 51); white-space: pre; color: rgb(51, 51, 51);"/></g></g></svg>