<?xml version="1.0" encoding="utf-8"?>
<svg id="master-artboard" viewBox="0 0 1400 980" version="1.1" xmlns="http://www.w3.org/2000/svg" x="0px" y="0px" style="enable-background:new 0 0 1400 980;" width="1400px" height="980px"><g transform="matrix(0.7837727665901184, 0, 0, 0.7837727665901184, 105.33087159868421, 41.83341951381213)"><rect id="ee-background" x="0" y="0" width="1406.598388671875" height="1250.3624267578125" style="fill: white; fill-opacity: 0; pointer-events: none;"/><g transform="matrix(4.78025484085083, 0, 0, 4.78025484085083, 247.40121459960938, -52.78717041015625)"><title>Leidos-Logo</title><g id="Layer_2" data-name="Layer 2"><g id="Layer_2-2" data-name="Layer 2"><path d="M 0 37.97999954223633 L 229.75999450683594 45.27000045776367 L 105.76000213623047 116.76000213623047 L 0 37.97999954223633 Z" class="cls-1" style="fill: rgb(7, 41, 77);"/></g><g id="Layer_3" data-name="Layer 3"><path d="M 55.5 0 L 16.780000686645508 106.19999694824219 L 230.22000122070312 45.06999969482422 L 55.5 0 Z" class="cls-2" style="fill: rgb(8, 126, 249);"/></g><g id="Layer_4" data-name="Layer 4"><path d="M 32.7400016784668 62.2599983215332 L 70.86000061035156 90.76000213623047 L 230.11000061035156 45.2599983215332 L 41.11000061035156 39.38999938964844 L 32.7400016784668 62.2599983215332 Z" class="cls-3" style="fill: rgb(13, 92, 163);"/></g><g id="Layer_5" data-name="Layer 5"><path class="cls-2" d="M151.71,50.38s16,29.18-12.4,67.1-3.65,84.61,8.75,87.53c0,0-10.21-29.91,12.4-64.19S178.7,62.78,151.71,50.38Z" style="fill: rgb(8, 126, 249);"/><path class="cls-2" d="M122.78,55.24s7.29,20.91-11.18,47.17-.49,53,7.78,56.89c0,0-9.24-16,8.27-45.22S134,62.54,122.78,55.24Z" style="fill: rgb(8, 126, 249);"/><path class="cls-2" d="M183.08,100s7.29,20.91-11.18,47.17-.49,53,7.78,56.89c0,0-9.24-16,8.27-45.22S194.26,107.27,183.08,100Z" style="fill: rgb(8, 126, 249);"/></g></g></g><path d="M 544.0718994140625 961.0399780273438 L 544.0718994140625 1002.5999755859375 L 532.451904296875 1002.5999755859375 L 532.451904296875 902.6599731445312 L 559.8619384765625 902.6599731445312 C 572.1218872070312 902.6599731445312 581.181884765625 905.0066528320312 587.0419311523438 909.699951171875 C 592.895263671875 914.393310546875 595.8218994140625 921.4566650390625 595.8218994140625 930.8899536132812 C 595.8218994140625 944.1099853515625 589.1219482421875 953.0433349609375 575.721923828125 957.6900024414062 L 602.8619384765625 1002.5999755859375 L 589.1219482421875 1002.5999755859375 L 564.9219360351562 961.0399780273438 L 544.0718994140625 961.0399780273438 M 544.0718994140625 951.0599975585938 L 560.0018920898438 951.0599975585938 C 568.201904296875 951.0599975585938 574.2185668945312 949.4299926757812 578.0519409179688 946.1699829101562 C 581.8786010742188 942.9099731445312 583.7919311523438 938.0233154296875 583.7919311523438 931.510009765625 C 583.7919311523438 924.8966674804688 581.8419189453125 920.13330078125 577.94189453125 917.219970703125 C 574.048583984375 914.2999877929688 567.7952270507812 912.8399658203125 559.181884765625 912.8399658203125 L 544.0718994140625 912.8399658203125 L 544.0718994140625 951.0599975585938 ZM 648.9308471679688 1003.969970703125 C 637.8575439453125 1003.969970703125 629.120849609375 1000.5966186523438 622.7208251953125 993.8499755859375 C 616.314208984375 987.1033325195312 613.11083984375 977.7366333007812 613.11083984375 965.75 C 613.11083984375 953.6766357421875 616.0841674804688 944.0833129882812 622.0308837890625 936.969970703125 C 627.9775390625 929.86328125 635.9641723632812 926.3099975585938 645.9908447265625 926.3099975585938 C 655.3775024414062 926.3099975585938 662.8074951171875 929.3966674804688 668.2808837890625 935.5699462890625 C 673.7474975585938 941.75 676.4808349609375 949.8966674804688 676.4808349609375 960.0099487304688 L 676.4808349609375 967.1900024414062 L 624.870849609375 967.1900024414062 C 625.0975341796875 975.9833374023438 627.3175048828125 982.6599731445312 631.5308837890625 987.219970703125 C 635.7508544921875 991.7799682617188 641.6875 994.0599975585938 649.3408813476562 994.0599975585938 C 657.4075317382812 994.0599975585938 665.3842163085938 992.373291015625 673.2708740234375 989 L 673.2708740234375 999.1099853515625 C 669.2575073242188 1000.8433227539062 665.4641723632812 1002.086669921875 661.890869140625 1002.8399658203125 C 658.3108520507812 1003.5933227539062 653.9908447265625 1003.969970703125 648.9308471679688 1003.969970703125 M 645.86083984375 935.8099975585938 C 639.8408813476562 935.8099975585938 635.044189453125 937.7699584960938 631.4708251953125 941.6900024414062 C 627.890869140625 945.6099853515625 625.7808837890625 951.0333251953125 625.140869140625 957.9599609375 L 664.3108520507812 957.9599609375 C 664.3108520507812 950.806640625 662.717529296875 945.32666015625 659.5308837890625 941.5199584960938 C 656.3375244140625 937.7133178710938 651.7808837890625 935.8099975585938 645.86083984375 935.8099975585938 ZM 744.152099609375 982.1599731445312 C 744.152099609375 989.13330078125 741.555419921875 994.5099487304688 736.3621215820312 998.2899780273438 C 731.1687622070312 1002.07666015625 723.8754272460938 1003.969970703125 714.4821166992188 1003.969970703125 C 704.5487670898438 1003.969970703125 696.8021240234375 1002.3966674804688 691.2421264648438 999.25 L 691.2421264648438 988.719970703125 C 694.8421020507812 990.546630859375 698.7054443359375 991.9833374023438 702.8320922851562 993.0299682617188 C 706.9520874023438 994.07666015625 710.9287719726562 994.5999755859375 714.7620849609375 994.5999755859375 C 720.68212890625 994.5999755859375 725.23876953125 993.6566162109375 728.43212890625 991.7699584960938 C 731.6187744140625 989.8766479492188 733.2120971679688 986.9932861328125 733.2120971679688 983.1199951171875 C 733.2120971679688 980.199951171875 731.9487915039062 977.7033081054688 729.422119140625 975.6300048828125 C 726.8954467773438 973.556640625 721.9620971679688 971.1066284179688 714.6221313476562 968.2799682617188 C 707.6488037109375 965.6866455078125 702.692138671875 963.4199829101562 699.7521362304688 961.47998046875 C 696.8121337890625 959.546630859375 694.6254272460938 957.3499755859375 693.192138671875 954.8899536132812 C 691.7587890625 952.42333984375 691.0421142578125 949.4833374023438 691.0421142578125 946.0699462890625 C 691.0421142578125 939.9633178710938 693.5254516601562 935.143310546875 698.4921264648438 931.6099853515625 C 703.4588012695312 928.07666015625 710.2720947265625 926.3099975585938 718.93212890625 926.3099975585938 C 726.998779296875 926.3099975585938 734.8821411132812 927.949951171875 742.5820922851562 931.22998046875 L 738.5521240234375 940.4599609375 C 731.0321044921875 937.3599853515625 724.21875 935.8099975585938 718.1121215820312 935.8099975585938 C 712.7321166992188 935.8099975585938 708.6754760742188 936.6533203125 705.942138671875 938.3399658203125 C 703.2088012695312 940.026611328125 701.8421020507812 942.3499755859375 701.8421020507812 945.3099975585938 C 701.8421020507812 947.316650390625 702.3521118164062 949.026611328125 703.3721313476562 950.4400024414062 C 704.3988037109375 951.8533325195312 706.0521240234375 953.1966552734375 708.3320922851562 954.469970703125 C 710.6121215820312 955.75 714.98876953125 957.5966186523438 721.4620971679688 960.0099487304688 C 730.3487548828125 963.25 736.3521118164062 966.5099487304688 739.4721069335938 969.7899780273438 C 742.5921020507812 973.0699462890625 744.152099609375 977.1932983398438 744.152099609375 982.1599731445312 ZM 794.2560424804688 1003.969970703125 C 783.1827392578125 1003.969970703125 774.446044921875 1000.5966186523438 768.0460205078125 993.8499755859375 C 761.639404296875 987.1033325195312 758.43603515625 977.7366333007812 758.43603515625 965.75 C 758.43603515625 953.6766357421875 761.4093627929688 944.0833129882812 767.3560791015625 936.969970703125 C 773.302734375 929.86328125 781.2893676757812 926.3099975585938 791.3160400390625 926.3099975585938 C 800.7026977539062 926.3099975585938 808.1326904296875 929.3966674804688 813.6060791015625 935.5699462890625 C 819.0726928710938 941.75 821.8060302734375 949.8966674804688 821.8060302734375 960.0099487304688 L 821.8060302734375 967.1900024414062 L 770.196044921875 967.1900024414062 C 770.4227294921875 975.9833374023438 772.6427001953125 982.6599731445312 776.8560791015625 987.219970703125 C 781.0760498046875 991.7799682617188 787.0126953125 994.0599975585938 794.6660766601562 994.0599975585938 C 802.7327270507812 994.0599975585938 810.7094116210938 992.373291015625 818.5960693359375 989 L 818.5960693359375 999.1099853515625 C 814.5827026367188 1000.8433227539062 810.7893676757812 1002.086669921875 807.216064453125 1002.8399658203125 C 803.6360473632812 1003.5933227539062 799.3160400390625 1003.969970703125 794.2560424804688 1003.969970703125 M 791.18603515625 935.8099975585938 C 785.1660766601562 935.8099975585938 780.369384765625 937.7699584960938 776.7960205078125 941.6900024414062 C 773.216064453125 945.6099853515625 771.1060791015625 951.0333251953125 770.466064453125 957.9599609375 L 809.6360473632812 957.9599609375 C 809.6360473632812 950.806640625 808.042724609375 945.32666015625 804.8560791015625 941.5199584960938 C 801.6627197265625 937.7133178710938 797.1060791015625 935.8099975585938 791.18603515625 935.8099975585938 ZM 887.227294921875 1002.5999755859375 L 884.96728515625 991.9400024414062 L 884.4172973632812 991.9400024414062 C 880.6839599609375 996.63330078125 876.9606323242188 999.8099975585938 873.247314453125 1001.469970703125 C 869.5272827148438 1003.1366577148438 864.8873291015625 1003.969970703125 859.3273315429688 1003.969970703125 C 851.900634765625 1003.969970703125 846.0806274414062 1002.0532836914062 841.8673095703125 998.219970703125 C 837.6539916992188 994.393310546875 835.5473022460938 988.949951171875 835.5473022460938 981.8899536132812 C 835.5473022460938 966.7566528320312 847.6439819335938 958.82666015625 871.8372802734375 958.0999755859375 L 884.5573120117188 957.6900024414062 L 884.5573120117188 953.0399780273438 C 884.5573120117188 947.1599731445312 883.2939453125 942.8199462890625 880.767333984375 940.0199584960938 C 878.2339477539062 937.2133178710938 874.1873168945312 935.8099975585938 868.6273193359375 935.8099975585938 C 862.3873291015625 935.8099975585938 855.323974609375 937.7266235351562 847.4373168945312 941.5599975585938 L 843.9473266601562 932.8699951171875 C 847.640625 930.8699951171875 851.6873168945312 929.2999877929688 856.0872802734375 928.1599731445312 C 860.4806518554688 927.0199584960938 864.890625 926.449951171875 869.3173217773438 926.449951171875 C 878.2439575195312 926.449951171875 884.8606567382812 928.4299926757812 889.1672973632812 932.3899536132812 C 893.4739990234375 936.3566284179688 895.6273193359375 942.7166137695312 895.6273193359375 951.469970703125 L 895.6273193359375 1002.5999755859375 L 887.227294921875 1002.5999755859375 M 861.5872802734375 994.5999755859375 C 868.6539916992188 994.5999755859375 874.2039794921875 992.663330078125 878.2373046875 988.7899780273438 C 882.2706298828125 984.9166259765625 884.2872924804688 979.4932861328125 884.2872924804688 972.5199584960938 L 884.2872924804688 965.75 L 872.9373168945312 966.22998046875 C 863.91064453125 966.5499877929688 857.4039916992188 967.9533081054688 853.4172973632812 970.4400024414062 C 849.4306640625 972.9199829101562 847.4373168945312 976.7799682617188 847.4373168945312 982.0199584960938 C 847.4373168945312 986.1266479492188 848.6806640625 989.25 851.1672973632812 991.3899536132812 C 853.6473388671875 993.5299682617188 857.1206665039062 994.5999755859375 861.5872802734375 994.5999755859375 ZM 953.18505859375 926.3099975585938 C 956.51171875 926.3099975585938 959.4983520507812 926.5833129882812 962.14501953125 927.1300048828125 L 960.5650634765625 937.6599731445312 C 957.4716796875 936.9733276367188 954.7383422851562 936.6300048828125 952.3650512695312 936.6300048828125 C 946.3050537109375 936.6300048828125 941.1217041015625 939.0933227539062 936.8150634765625 944.0199584960938 C 932.5083618164062 948.9400024414062 930.3550415039062 955.066650390625 930.3550415039062 962.3999633789062 L 930.3550415039062 1002.5999755859375 L 919.0050659179688 1002.5999755859375 L 919.0050659179688 927.6799926757812 L 928.3750610351562 927.6799926757812 L 929.675048828125 941.5599975585938 L 930.2150268554688 941.5599975585938 C 932.9950561523438 936.6799926757812 936.3450317382812 932.9199829101562 940.2650146484375 930.2799682617188 C 944.18505859375 927.63330078125 948.49169921875 926.3099975585938 953.18505859375 926.3099975585938 ZM 1006.0908203125 1003.969970703125 C 995.244140625 1003.969970703125 986.8474731445312 1000.6300048828125 980.9008178710938 993.949951171875 C 974.9541015625 987.276611328125 971.9807739257812 977.8333129882812 971.9807739257812 965.6199951171875 C 971.9807739257812 953.086669921875 975.0007934570312 943.3999633789062 981.040771484375 936.5599975585938 C 987.080810546875 929.7266235351562 995.6807861328125 926.3099975585938 1006.8408203125 926.3099975585938 C 1010.4474487304688 926.3099975585938 1014.05078125 926.6966552734375 1017.6507568359375 927.469970703125 C 1021.2507934570312 928.25 1024.0740966796875 929.163330078125 1026.120849609375 930.2099609375 L 1022.6408081054688 939.8499755859375 C 1020.1340942382812 938.8433227539062 1017.3974609375 938.010009765625 1014.4307861328125 937.3499755859375 C 1011.4707641601562 936.68994140625 1008.8507690429688 936.3599853515625 1006.57080078125 936.3599853515625 C 991.3507690429688 936.3599853515625 983.7407836914062 946.066650390625 983.7407836914062 965.47998046875 C 983.7407836914062 974.6866455078125 985.5974731445312 981.75 989.310791015625 986.6699829101562 C 993.0241088867188 991.5966186523438 998.5274658203125 994.0599975585938 1005.82080078125 994.0599975585938 C 1012.060791015625 994.0599975585938 1018.464111328125 992.7133178710938 1025.03076171875 990.0199584960938 L 1025.03076171875 1000.0699462890625 C 1020.0174560546875 1002.6699829101562 1013.7041015625 1003.969970703125 1006.0908203125 1003.969970703125 ZM 1094.068115234375 1002.5999755859375 L 1094.068115234375 954.1300048828125 C 1094.068115234375 948.0233154296875 1092.6781005859375 943.4666137695312 1089.8980712890625 940.4599609375 C 1087.1180419921875 937.4533081054688 1082.7647705078125 935.949951171875 1076.8380126953125 935.949951171875 C 1068.9580078125 935.949951171875 1063.2047119140625 938.0933227539062 1059.578125 942.3800048828125 C 1055.9580078125 946.6599731445312 1054.1480712890625 953.6766357421875 1054.1480712890625 963.4299926757812 L 1054.1480712890625 1002.5999755859375 L 1042.798095703125 1002.5999755859375 L 1042.798095703125 896.22998046875 L 1054.1480712890625 896.22998046875 L 1054.1480712890625 928.4299926757812 C 1054.1480712890625 932.3032836914062 1053.9647216796875 935.5166625976562 1053.5980224609375 938.0699462890625 L 1054.2880859375 938.0699462890625 C 1056.5213623046875 934.469970703125 1059.6981201171875 931.63330078125 1063.818115234375 929.5599975585938 C 1067.9447021484375 927.4866333007812 1072.6513671875 926.449951171875 1077.9381103515625 926.449951171875 C 1087.0980224609375 926.449951171875 1093.968017578125 928.6266479492188 1098.548095703125 932.97998046875 C 1103.1280517578125 937.32666015625 1105.4180908203125 944.239990234375 1105.4180908203125 953.719970703125 L 1105.4180908203125 1002.5999755859375 L 1094.068115234375 1002.5999755859375 ZM 1160.371826171875 1003.969970703125 C 1149.2984619140625 1003.969970703125 1140.561767578125 1000.5966186523438 1134.1617431640625 993.8499755859375 C 1127.755126953125 987.1033325195312 1124.5517578125 977.7366333007812 1124.5517578125 965.75 C 1124.5517578125 953.6766357421875 1127.525146484375 944.0833129882812 1133.4718017578125 936.969970703125 C 1139.41845703125 929.86328125 1147.4051513671875 926.3099975585938 1157.4317626953125 926.3099975585938 C 1166.8184814453125 926.3099975585938 1174.2484130859375 929.3966674804688 1179.7218017578125 935.5699462890625 C 1185.1884765625 941.75 1187.9217529296875 949.8966674804688 1187.9217529296875 960.0099487304688 L 1187.9217529296875 967.1900024414062 L 1136.311767578125 967.1900024414062 C 1136.5384521484375 975.9833374023438 1138.7584228515625 982.6599731445312 1142.9718017578125 987.219970703125 C 1147.1917724609375 991.7799682617188 1153.12841796875 994.0599975585938 1160.78173828125 994.0599975585938 C 1168.848388671875 994.0599975585938 1176.8250732421875 992.373291015625 1184.7117919921875 989 L 1184.7117919921875 999.1099853515625 C 1180.698486328125 1000.8433227539062 1176.9051513671875 1002.086669921875 1173.331787109375 1002.8399658203125 C 1169.7518310546875 1003.5933227539062 1165.4317626953125 1003.969970703125 1160.371826171875 1003.969970703125 M 1157.3017578125 935.8099975585938 C 1151.28173828125 935.8099975585938 1146.485107421875 937.7699584960938 1142.9117431640625 941.6900024414062 C 1139.331787109375 945.6099853515625 1137.2218017578125 951.0333251953125 1136.581787109375 957.9599609375 L 1175.7518310546875 957.9599609375 C 1175.7518310546875 950.806640625 1174.158447265625 945.32666015625 1170.9718017578125 941.5199584960938 C 1167.7784423828125 937.7133178710938 1163.2218017578125 935.8099975585938 1157.3017578125 935.8099975585938 ZM 1241.4429931640625 926.3099975585938 C 1244.7696533203125 926.3099975585938 1247.75634765625 926.5833129882812 1250.403076171875 927.1300048828125 L 1248.822998046875 937.6599731445312 C 1245.729736328125 936.9733276367188 1242.996337890625 936.6300048828125 1240.623046875 936.6300048828125 C 1234.56298828125 936.6300048828125 1229.379638671875 939.0933227539062 1225.072998046875 944.0199584960938 C 1220.766357421875 948.9400024414062 1218.613037109375 955.066650390625 1218.613037109375 962.3999633789062 L 1218.613037109375 1002.5999755859375 L 1207.2630615234375 1002.5999755859375 L 1207.2630615234375 927.6799926757812 L 1216.633056640625 927.6799926757812 L 1217.9329833984375 941.5599975585938 L 1218.4730224609375 941.5599975585938 C 1221.2530517578125 936.6799926757812 1224.60302734375 932.9199829101562 1228.5230712890625 930.2799682617188 C 1232.4429931640625 927.63330078125 1236.749755859375 926.3099975585938 1241.4429931640625 926.3099975585938 ZM 1312.73876953125 982.1599731445312 C 1312.73876953125 989.13330078125 1310.14208984375 994.5099487304688 1304.94873046875 998.2899780273438 C 1299.7554931640625 1002.07666015625 1292.462158203125 1003.969970703125 1283.0687255859375 1003.969970703125 C 1273.135498046875 1003.969970703125 1265.3887939453125 1002.3966674804688 1259.8287353515625 999.25 L 1259.8287353515625 988.719970703125 C 1263.4288330078125 990.546630859375 1267.2921142578125 991.9833374023438 1271.4188232421875 993.0299682617188 C 1275.538818359375 994.07666015625 1279.5155029296875 994.5999755859375 1283.3487548828125 994.5999755859375 C 1289.268798828125 994.5999755859375 1293.825439453125 993.6566162109375 1297.018798828125 991.7699584960938 C 1300.2054443359375 989.8766479492188 1301.798828125 986.9932861328125 1301.798828125 983.1199951171875 C 1301.798828125 980.199951171875 1300.535400390625 977.7033081054688 1298.0087890625 975.6300048828125 C 1295.482177734375 973.556640625 1290.548828125 971.1066284179688 1283.208740234375 968.2799682617188 C 1276.2354736328125 965.6866455078125 1271.27880859375 963.4199829101562 1268.3387451171875 961.47998046875 C 1265.3988037109375 959.546630859375 1263.212158203125 957.3499755859375 1261.77880859375 954.8899536132812 C 1260.345458984375 952.42333984375 1259.6287841796875 949.4833374023438 1259.6287841796875 946.0699462890625 C 1259.6287841796875 939.9633178710938 1262.112060546875 935.143310546875 1267.0787353515625 931.6099853515625 C 1272.04541015625 928.07666015625 1278.8587646484375 926.3099975585938 1287.518798828125 926.3099975585938 C 1295.58544921875 926.3099975585938 1303.46875 927.949951171875 1311.1688232421875 931.22998046875 L 1307.1387939453125 940.4599609375 C 1299.6187744140625 937.3599853515625 1292.805419921875 935.8099975585938 1286.69873046875 935.8099975585938 C 1281.3187255859375 935.8099975585938 1277.2620849609375 936.6533203125 1274.52880859375 938.3399658203125 C 1271.79541015625 940.026611328125 1270.4288330078125 942.3499755859375 1270.4288330078125 945.3099975585938 C 1270.4288330078125 947.316650390625 1270.9388427734375 949.026611328125 1271.958740234375 950.4400024414062 C 1272.9854736328125 951.8533325195312 1274.6387939453125 953.1966552734375 1276.9188232421875 954.469970703125 C 1279.19873046875 955.75 1283.575439453125 957.5966186523438 1290.048828125 960.0099487304688 C 1298.9354248046875 963.25 1304.9388427734375 966.5099487304688 1308.058837890625 969.7899780273438 C 1311.1788330078125 973.0699462890625 1312.73876953125 977.1932983398438 1312.73876953125 982.1599731445312 Z" transform="matrix(1.5401744842529297, 0, 0, 1.5401744842529297, -713.1893920898438, -356.4862976074219)" style="fill: rgb(51, 51, 51); white-space: pre; color: rgb(51, 51, 51);"/></g></svg>