<svg xmlns="http://www.w3.org/2000/svg" viewBox="0 0 271.74 360.74"><defs><style>.cls-1{fill:#07294d;stroke-width:5px;}.cls-1,.cls-3,.cls-4{stroke:#087ef9;stroke-miterlimit:10;}.cls-2{fill:#087ef9;}.cls-3,.cls-4{fill:none;}.cls-3{stroke-width:12px;}.cls-4{stroke-width:14px;}</style></defs><title>Security</title><g id="Layer_2" data-name="Layer 2"><g id="Layer_6" data-name="Layer 6"><path class="cls-1" d="M135.9,2.62,7.24,42.39,2.56,255.25s-7,58.48,128.65,102.92c0,0,112.28-16.37,138-93.57L264.55,44.73Z"/></g><g id="Layer_5" data-name="Layer 5"><circle class="cls-2" cx="137.64" cy="197.85" r="13.62"/><path class="cls-2" d="M127.81,214.62l-4.65,16.69A10,10,0,0,0,132.83,244h9.31a10,10,0,0,0,9.67-12.74l-4.65-16.69C144.43,204.83,130.54,204.83,127.81,214.62Z"/><path class="cls-3" d="M179.46,160.48l-84.56,0a17.75,17.75,0,0,0-17.75,17.75v60.49a14.57,14.57,0,0,0,6.42,12.07c16.19,10.94,60.34,34.76,101.44,3.06A21.19,21.19,0,0,0,193.25,238l2.41-60.62A16.21,16.21,0,0,0,179.46,160.48Z"/><path class="cls-4" d="M98.06,158.87l.71-40.58a21,21,0,0,1,6.83-15.14c11.36-10.38,35.8-25.63,62.32,2a21.1,21.1,0,0,1,5.85,14.65l-.08,39.8Z"/></g></g></svg>