<?xml version="1.0" encoding="utf-8"?>
<!-- Generator: Adobe Illustrator 21.0.0, SVG Export Plug-In . SVG Version: 6.00 Build 0)  -->
<svg version="1.1" id="bp_x5F_logo" xmlns="http://www.w3.org/2000/svg" xmlns:xlink="http://www.w3.org/1999/xlink" x="0px"
	 y="0px" viewBox="0 0 400 300" style="enable-background:new 0 0 400 300;" xml:space="preserve">
<style type="text/css">
	.st0{fill:#009900;}
	.st1{fill:#99CC00;}
	.st2{fill:#FFFF00;}
	.st3{fill:#FFFFFF;}
</style>
<g id="splash">
	<path class="st0" d="M301.4,201c-6.5-7-13.8-13-21.4-17.8c7.5-4.8,14.7-10.9,21.3-17.9c-8.6-4.3-17.4-7.5-26.2-9.4
		c5.4-7.1,10.1-15.3,14-24.1c-9.5-1.2-18.9-1.1-27.8,0.1c2.7-8.6,4.3-17.8,4.8-27.4c-9.3,2.2-18.2,5.4-26.1,9.5
		c-0.5-9-2-18.2-4.8-27.4c-8,5.3-15.2,11.4-21.3,17.9c-3.5-8.3-8.2-16.4-14-24.1c-5.8,7.7-10.4,15.9-13.9,24.2
		c-6.1-6.6-13.3-12.7-21.3-17.9l0,0c-2.8,9.1-4.3,18.4-4.8,27.3c-8-4.1-16.8-7.3-26.1-9.5c0.6,9.6,2.2,18.9,4.9,27.4
		c-9-1.2-18.3-1.2-27.9,0c3.8,8.9,8.5,16.9,14,24.1c-8.8,2-17.6,5.2-26.2,9.5c6.5,7,13.8,13,21.4,17.8c-7.5,4.8-14.7,10.9-21.3,17.9
		c8.6,4.3,17.4,7.5,26.2,9.4c-5.4,7.1-10.1,15.3-14,24.1c9.5,1.2,18.9,1.1,27.7,0c-2.7,8.6-4.3,17.8-4.8,27.3
		c9.3-2.2,18.2-5.4,26.1-9.5c0.4,9,2,18.2,4.8,27.4c8-5.3,15.2-11.3,21.3-17.9c3.5,8.3,8.2,16.5,14,24.2
		c5.8-7.7,10.4-15.9,13.9-24.2c6.1,6.6,13.3,12.7,21.4,17.9c2.8-9.1,4.3-18.4,4.8-27.4c8,4.1,16.8,7.3,26.2,9.5
		c-0.6-9.6-2.2-18.8-4.9-27.3c8.9,1.2,18.3,1.2,27.8,0c-3.8-8.9-8.5-16.9-14-24.1C283.9,208.5,292.8,205.3,301.4,201z"/>
	<path class="st1" d="M275.2,210.5c-5-6.5-10.7-12.3-16.8-17c7.4-2.3,14.6-5.9,21.7-10.3c-7-4.4-14.2-7.9-21.7-10.2
		c6.2-4.7,11.7-10.5,16.8-17.1c-8.1-1.8-16.1-2.6-23.9-2.2c4.1-6.5,7.5-13.9,9.9-21.9c-8.2,1.1-16,3.1-23.2,6.1
		c1.6-7.6,2.3-15.6,1.8-24c-7.3,3.9-14,8.4-19.6,13.7c-1.1-7.7-3.2-15.5-6.4-23.1c-5.7,6.2-10.3,12.7-13.9,19.6
		c-3.6-6.8-8.3-13.5-14-19.5c-3.2,7.6-5.3,15.4-6.3,23c-5.7-5.2-12.4-9.8-19.8-13.6c-0.4,8.3,0.3,16.4,1.9,24
		c-7.1-3-14.9-4.9-23.2-6c2.5,7.9,5.9,15.2,10,21.8c-7.7-0.3-15.8,0.5-24,2.3c5,6.5,10.7,12.3,16.8,17c-7.4,2.3-14.6,5.9-21.7,10.3
		c7,4.4,14.2,7.9,21.7,10.2c-6.2,4.7-11.7,10.5-16.8,17.1c8.1,1.8,16.1,2.6,23.8,2.2c-4.1,6.5-7.5,13.9-9.9,21.9
		c8.2-1.1,16.1-3.1,23.2-6.1c-1.6,7.5-2.3,15.6-1.9,23.9c7.4-3.9,14.1-8.4,19.7-13.6c1.1,7.7,3.2,15.5,6.4,23.1
		c5.6-6.2,10.3-12.7,13.9-19.5c3.6,6.8,8.3,13.5,14,19.5c3.2-7.6,5.3-15.4,6.4-23.1c5.7,5.2,12.4,9.8,19.8,13.6
		c0.4-8.3-0.3-16.4-1.9-23.9c7.1,3,15,4.9,23.2,6c-2.5-7.9-5.9-15.2-10-21.8C259,213.1,267.1,212.3,275.2,210.5z"/>
	<path id="_x0032_" class="st2" d="M239.9,183.3c6.4-2.4,12.7-5.9,18.5-10.3c-6.9-2.2-14-3.3-20.8-3.4c5.3-4.4,9.9-9.8,13.8-16
		c-7.2,0.3-14.2,1.6-20.7,4c3.5-6,6-12.6,7.5-19.7c-6.7,2.8-12.8,6.4-18.1,10.9c1.2-6.8,1.3-14,0.3-21.2
		c-5.4,4.9-9.9,10.5-13.4,16.5c-1.3-6.8-3.6-13.6-6.9-20c-3.3,6.4-5.7,13.1-6.8,19.8c-3.5-6-8-11.5-13.4-16.4
		c-1,7.2-0.9,14.3,0.3,21.2c-5.3-4.4-11.5-8.1-18.2-10.8c1.5,7.1,4,13.8,7.5,19.7c-6.4-2.3-13.5-3.7-20.7-3.9
		c3.9,6.2,8.6,11.5,13.8,16c-6.9,0-14,1.2-20.9,3.4c5.8,4.4,11.9,7.9,18.5,10.2c-6.4,2.4-12.7,5.9-18.5,10.3
		c6.9,2.1,14,3.3,20.8,3.4c-5.3,4.4-9.9,9.8-13.9,16c7.2-0.3,14.2-1.6,20.7-3.9c-3.5,6-6,12.7-7.5,19.7c6.7-2.8,12.8-6.4,18.1-10.9
		c-1.2,6.8-1.3,13.9-0.3,21.1c5.4-4.9,9.9-10.4,13.4-16.4c1.3,6.8,3.6,13.5,6.9,19.9c3.4-6.4,5.7-13.1,6.9-19.9
		c3.5,6,8,11.5,13.4,16.4c1-7.2,0.9-14.3-0.3-21.1c5.3,4.4,11.5,8.1,18.2,10.9c-1.5-7.1-4-13.8-7.5-19.7c6.5,2.3,13.5,3.7,20.8,3.9
		c-3.9-6.2-8.6-11.5-13.9-16c6.9,0,14-1.2,20.9-3.4C252.6,189,246.4,185.6,239.9,183.3z"/>
	<path id="_x0031_" class="st3" d="M220.2,186.7c6.7,0,13.4-1.3,19.6-3.6c-6.4-2.3-12.9-3.6-19.6-3.6c6.4-2.3,12.1-5.8,17.2-10.1
		c-6.7,0-13.4,1.1-19.7,3.4c5.2-4.3,9.4-9.5,12.8-15.4c-6.4,2.3-12.1,5.6-17.3,9.9c3.4-5.9,5.6-12.2,6.7-18.8
		c-5.2,4.3-9.5,9.4-13,15.3c1.2-6.6,1.1-13.4-0.1-20c-3.4,5.8-5.7,12-6.8,18.6c-1.2-6.6-3.6-13-6.9-18.8c-1.2,6.6-1.3,13.4-0.1,20
		c-3.4-5.9-7.8-11-12.9-15.3c1.2,6.6,3.4,13,6.7,18.8c-5.2-4.3-11.1-7.6-17.3-9.9c3.4,5.9,7.6,11,12.8,15.4
		c-6.4-2.3-13-3.4-19.6-3.4c5.1,4.3,10.9,7.7,17.2,10.1c-6.7,0-13.4,1.3-19.7,3.6c6.4,2.3,12.9,3.6,19.6,3.6
		c-6.4,2.3-12.1,5.8-17.3,10.1c6.7,0,13.4-1.1,19.7-3.4c-5.2,4.3-9.4,9.5-12.8,15.4c6.4-2.3,12.2-5.6,17.3-9.9
		c-3.4,5.9-5.6,12.2-6.7,18.9c5.2-4.3,9.5-9.4,12.9-15.2c-1.2,6.6-1.1,13.4,0.1,19.9c3.4-5.8,5.8-12.1,6.9-18.7
		c1.2,6.6,3.6,12.9,6.9,18.8c1.2-6.6,1.3-13.3,0.1-19.9c3.4,5.9,7.8,11,12.9,15.2c-1.2-6.6-3.4-12.9-6.7-18.8
		c5.2,4.3,11.1,7.6,17.4,9.9c-3.4-5.9-7.6-11-12.8-15.4c6.4,2.3,13,3.4,19.7,3.4C232.3,192.5,226.6,189.1,220.2,186.7z"/>
</g>
<g id="bp">
	<g>
		<path class="st0" d="M255.2,45.8c0,5.9-2.1,14-10.4,14c-10,0-10-11.3-10-13.6s0-14.2,10.3-14.2C254.4,31.8,255.2,42.2,255.2,45.8z
			 M234.9,14.5h-6.7v43.1l-0.2,6.4h6.4l0.2-5.4c0.7,1.1,1.5,2.3,3.5,3.7c3.1,2.1,6.3,2.3,8,2.3c4.9,0,9.7-2.1,12.6-6.2
			c1.8-2.3,3.5-6.2,3.5-13.1c0-7.9-2.4-11.5-4.2-13.5c-3.3-3.8-7.8-4.6-11.4-4.6c-8.2,0-10.8,4.5-11.7,6.2L234.9,14.5L234.9,14.5z"
			/>
		<path class="st0" d="M273.7,47.3c0-3.2,0-14.5,10.7-14.5c7.9,0,9.8,6.7,9.8,13.2c0,2.6-0.4,7.7-2.9,11.3c-2.3,3.2-5.9,3.5-7.6,3.5
			C274.4,60.5,273.7,51.6,273.7,47.3z M267.4,77.9h6.6V60.2c1.9,3.2,5.8,5.4,11,5.4c8.6,0,16.4-5.9,16.4-19.3
			c0-13.3-7.3-18.6-15-18.6c-2.9,0-8.9,0.9-12.2,6.5l-0.1-6h-6.7c0.1,3.5,0.2,4.3,0.2,5.9L267.4,77.9L267.4,77.9z"/>
	</g>
</g>
</svg>
